<?xml version="1.0" encoding="UTF-8"?>
<svg xmlns="http://www.w3.org/2000/svg" xmlns:xlink="http://www.w3.org/1999/xlink" width="5px" height="5px" viewBox="0 0 5 5" version="1.1">
<g id="surface1">
<path style=" stroke:none;fill-rule:nonzero;fill:rgb(0%,0%,0%);fill-opacity:1;" d="M 4.53125 1.238281 L 3.320312 0.03125 C 3.304688 0.0117188 3.277344 0 3.25 0 L 0.933594 0 C 0.660156 0 0.4375 0.222656 0.4375 0.496094 L 0.4375 4.503906 C 0.4375 4.777344 0.660156 5 0.933594 5 L 4.066406 5 C 4.339844 5 4.5625 4.777344 4.5625 4.503906 L 4.5625 1.3125 C 4.5625 1.285156 4.550781 1.257812 4.53125 1.238281 Z M 3.351562 0.347656 L 4.210938 1.210938 L 3.644531 1.210938 C 3.566406 1.210938 3.492188 1.179688 3.4375 1.125 C 3.382812 1.070312 3.351562 0.996094 3.351562 0.917969 Z M 4.355469 4.503906 C 4.355469 4.664062 4.226562 4.796875 4.066406 4.796875 L 0.933594 4.796875 C 0.773438 4.796875 0.644531 4.664062 0.644531 4.503906 L 0.644531 0.496094 C 0.644531 0.335938 0.773438 0.203125 0.933594 0.203125 L 3.148438 0.203125 L 3.148438 0.917969 C 3.148438 1.050781 3.199219 1.175781 3.292969 1.269531 C 3.386719 1.363281 3.511719 1.414062 3.644531 1.414062 L 4.355469 1.414062 Z M 4.355469 4.503906 "/>
<path style=" stroke:none;fill-rule:nonzero;fill:rgb(0%,0%,0%);fill-opacity:1;" d="M 2.6875 3.433594 L 2.640625 3.433594 C 2.585938 3.433594 2.539062 3.476562 2.539062 3.535156 C 2.539062 3.589844 2.585938 3.636719 2.640625 3.636719 L 2.6875 3.636719 C 2.742188 3.636719 2.789062 3.589844 2.789062 3.535156 C 2.789062 3.476562 2.742188 3.433594 2.6875 3.433594 Z M 2.6875 3.433594 "/>
<path style=" stroke:none;fill-rule:nonzero;fill:rgb(0%,0%,0%);fill-opacity:1;" d="M 2.3125 3.433594 L 1.320312 3.433594 C 1.261719 3.433594 1.21875 3.476562 1.21875 3.535156 C 1.21875 3.589844 1.261719 3.636719 1.320312 3.636719 L 2.3125 3.636719 C 2.367188 3.636719 2.414062 3.589844 2.414062 3.535156 C 2.414062 3.476562 2.367188 3.433594 2.3125 3.433594 Z M 2.3125 3.433594 "/>
<path style=" stroke:none;fill-rule:nonzero;fill:rgb(0%,0%,0%);fill-opacity:1;" d="M 3.679688 2.964844 L 1.320312 2.964844 C 1.261719 2.964844 1.21875 3.011719 1.21875 3.066406 C 1.21875 3.125 1.261719 3.171875 1.320312 3.171875 L 3.679688 3.171875 C 3.738281 3.171875 3.78125 3.125 3.78125 3.066406 C 3.78125 3.011719 3.738281 2.964844 3.679688 2.964844 Z M 3.679688 2.964844 "/>
<path style=" stroke:none;fill-rule:nonzero;fill:rgb(0%,0%,0%);fill-opacity:1;" d="M 3.679688 2.5 L 1.320312 2.5 C 1.261719 2.5 1.21875 2.546875 1.21875 2.601562 C 1.21875 2.660156 1.261719 2.703125 1.320312 2.703125 L 3.679688 2.703125 C 3.738281 2.703125 3.78125 2.660156 3.78125 2.601562 C 3.78125 2.546875 3.738281 2.5 3.679688 2.5 Z M 3.679688 2.5 "/>
<path style=" stroke:none;fill-rule:nonzero;fill:rgb(0%,0%,0%);fill-opacity:1;" d="M 3.679688 2.035156 L 1.320312 2.035156 C 1.261719 2.035156 1.21875 2.078125 1.21875 2.136719 C 1.21875 2.191406 1.261719 2.238281 1.320312 2.238281 L 3.679688 2.238281 C 3.738281 2.238281 3.78125 2.191406 3.78125 2.136719 C 3.78125 2.078125 3.738281 2.035156 3.679688 2.035156 Z M 3.679688 2.035156 "/>
</g>
</svg>
