<?xml version="1.0" encoding="UTF-8"?>
<svg xmlns="http://www.w3.org/2000/svg" xmlns:xlink="http://www.w3.org/1999/xlink" width="16px" height="16px" viewBox="0 0 16 16" version="1.1">
<defs>
<clipPath id="clip1">
  <path d="M 7 2 L 10 2 L 10 3 L 7 3 Z M 7 2 "/>
</clipPath>
<clipPath id="clip2">
  <path d="M 4.765625 2.941406 L 4.765625 5.828125 L 3.386719 5.828125 L 3.386719 7.269531 L 2.230469 7.269531 L 2.21875 7.394531 C 2.148438 8.179688 2.285156 8.90625 2.597656 9.527344 L 2.707031 9.714844 C 2.769531 9.828125 2.84375 9.9375 2.921875 10.039062 C 3 10.144531 3.027344 10.203125 3.074219 10.273438 C 3.910156 11.207031 5.152344 11.660156 6.585938 11.660156 C 9.765625 11.660156 12.460938 10.253906 13.652344 7.089844 C 14.5 7.175781 15.3125 6.960938 15.683594 6.238281 C 15.09375 5.898438 14.335938 6.007812 13.898438 6.226562 L 15.054688 2.941406 L 10.539062 5.828125 L 9.097656 5.828125 L 9.097656 2.941406 Z M 4.765625 2.941406 "/>
</clipPath>
<clipPath id="clip3">
  <path d="M 7 3 L 10 3 L 10 5 L 7 5 Z M 7 3 "/>
</clipPath>
<clipPath id="clip4">
  <path d="M 4.765625 2.941406 L 4.765625 5.828125 L 3.386719 5.828125 L 3.386719 7.269531 L 2.230469 7.269531 L 2.21875 7.394531 C 2.148438 8.179688 2.285156 8.90625 2.597656 9.527344 L 2.707031 9.714844 C 2.769531 9.828125 2.84375 9.9375 2.921875 10.039062 C 3 10.144531 3.027344 10.203125 3.074219 10.273438 C 3.910156 11.207031 5.152344 11.660156 6.585938 11.660156 C 9.765625 11.660156 12.460938 10.253906 13.652344 7.089844 C 14.5 7.175781 15.3125 6.960938 15.683594 6.238281 C 15.09375 5.898438 14.335938 6.007812 13.898438 6.226562 L 15.054688 2.941406 L 10.539062 5.828125 L 9.097656 5.828125 L 9.097656 2.941406 Z M 4.765625 2.941406 "/>
</clipPath>
<clipPath id="clip5">
  <path d="M 7 2 L 9 2 L 9 3 L 7 3 Z M 7 2 "/>
</clipPath>
<clipPath id="clip6">
  <path d="M 4.765625 2.941406 L 4.765625 5.828125 L 3.386719 5.828125 L 3.386719 7.269531 L 2.230469 7.269531 L 2.21875 7.394531 C 2.148438 8.179688 2.285156 8.90625 2.597656 9.527344 L 2.707031 9.714844 C 2.769531 9.828125 2.84375 9.9375 2.921875 10.039062 C 3 10.144531 3.027344 10.203125 3.074219 10.273438 C 3.910156 11.207031 5.152344 11.660156 6.585938 11.660156 C 9.765625 11.660156 12.460938 10.253906 13.652344 7.089844 C 14.5 7.175781 15.3125 6.960938 15.683594 6.238281 C 15.09375 5.898438 14.335938 6.007812 13.898438 6.226562 L 15.054688 2.941406 L 10.539062 5.828125 L 9.097656 5.828125 L 9.097656 2.941406 Z M 4.765625 2.941406 "/>
</clipPath>
<clipPath id="clip7">
  <path d="M 7 3 L 9 3 L 9 5 L 7 5 Z M 7 3 "/>
</clipPath>
<clipPath id="clip8">
  <path d="M 4.765625 2.941406 L 4.765625 5.828125 L 3.386719 5.828125 L 3.386719 7.269531 L 2.230469 7.269531 L 2.21875 7.394531 C 2.148438 8.179688 2.285156 8.90625 2.597656 9.527344 L 2.707031 9.714844 C 2.769531 9.828125 2.84375 9.9375 2.921875 10.039062 C 3 10.144531 3.027344 10.203125 3.074219 10.273438 C 3.910156 11.207031 5.152344 11.660156 6.585938 11.660156 C 9.765625 11.660156 12.460938 10.253906 13.652344 7.089844 C 14.5 7.175781 15.3125 6.960938 15.683594 6.238281 C 15.09375 5.898438 14.335938 6.007812 13.898438 6.226562 L 15.054688 2.941406 L 10.539062 5.828125 L 9.097656 5.828125 L 9.097656 2.941406 Z M 4.765625 2.941406 "/>
</clipPath>
<clipPath id="clip9">
  <path d="M 9 3 L 11 3 L 11 5 L 9 5 Z M 9 3 "/>
</clipPath>
<clipPath id="clip10">
  <path d="M 4.765625 2.941406 L 4.765625 5.828125 L 3.386719 5.828125 L 3.386719 7.269531 L 2.230469 7.269531 L 2.21875 7.394531 C 2.148438 8.179688 2.285156 8.90625 2.597656 9.527344 L 2.707031 9.714844 C 2.769531 9.828125 2.84375 9.9375 2.921875 10.039062 C 3 10.144531 3.027344 10.203125 3.074219 10.273438 C 3.910156 11.207031 5.152344 11.660156 6.585938 11.660156 C 9.765625 11.660156 12.460938 10.253906 13.652344 7.089844 C 14.5 7.175781 15.3125 6.960938 15.683594 6.238281 C 15.09375 5.898438 14.335938 6.007812 13.898438 6.226562 L 15.054688 2.941406 L 10.539062 5.828125 L 9.097656 5.828125 L 9.097656 2.941406 Z M 4.765625 2.941406 "/>
</clipPath>
<clipPath id="clip11">
  <path d="M 9 2 L 11 2 L 11 3 L 9 3 Z M 9 2 "/>
</clipPath>
<clipPath id="clip12">
  <path d="M 4.765625 2.941406 L 4.765625 5.828125 L 3.386719 5.828125 L 3.386719 7.269531 L 2.230469 7.269531 L 2.21875 7.394531 C 2.148438 8.179688 2.285156 8.90625 2.597656 9.527344 L 2.707031 9.714844 C 2.769531 9.828125 2.84375 9.9375 2.921875 10.039062 C 3 10.144531 3.027344 10.203125 3.074219 10.273438 C 3.910156 11.207031 5.152344 11.660156 6.585938 11.660156 C 9.765625 11.660156 12.460938 10.253906 13.652344 7.089844 C 14.5 7.175781 15.3125 6.960938 15.683594 6.238281 C 15.09375 5.898438 14.335938 6.007812 13.898438 6.226562 L 15.054688 2.941406 L 10.539062 5.828125 L 9.097656 5.828125 L 9.097656 2.941406 Z M 4.765625 2.941406 "/>
</clipPath>
<clipPath id="clip13">
  <path d="M 9 3 L 11 3 L 11 5 L 9 5 Z M 9 3 "/>
</clipPath>
<clipPath id="clip14">
  <path d="M 4.765625 2.941406 L 4.765625 5.828125 L 3.386719 5.828125 L 3.386719 7.269531 L 2.230469 7.269531 L 2.21875 7.394531 C 2.148438 8.179688 2.285156 8.90625 2.597656 9.527344 L 2.707031 9.714844 C 2.769531 9.828125 2.84375 9.9375 2.921875 10.039062 C 3 10.144531 3.027344 10.203125 3.074219 10.273438 C 3.910156 11.207031 5.152344 11.660156 6.585938 11.660156 C 9.765625 11.660156 12.460938 10.253906 13.652344 7.089844 C 14.5 7.175781 15.3125 6.960938 15.683594 6.238281 C 15.09375 5.898438 14.335938 6.007812 13.898438 6.226562 L 15.054688 2.941406 L 10.539062 5.828125 L 9.097656 5.828125 L 9.097656 2.941406 Z M 4.765625 2.941406 "/>
</clipPath>
<clipPath id="clip15">
  <path d="M 9 2 L 11 2 L 11 3 L 9 3 Z M 9 2 "/>
</clipPath>
<clipPath id="clip16">
  <path d="M 4.765625 2.941406 L 4.765625 5.828125 L 3.386719 5.828125 L 3.386719 7.269531 L 2.230469 7.269531 L 2.21875 7.394531 C 2.148438 8.179688 2.285156 8.90625 2.597656 9.527344 L 2.707031 9.714844 C 2.769531 9.828125 2.84375 9.9375 2.921875 10.039062 C 3 10.144531 3.027344 10.203125 3.074219 10.273438 C 3.910156 11.207031 5.152344 11.660156 6.585938 11.660156 C 9.765625 11.660156 12.460938 10.253906 13.652344 7.089844 C 14.5 7.175781 15.3125 6.960938 15.683594 6.238281 C 15.09375 5.898438 14.335938 6.007812 13.898438 6.226562 L 15.054688 2.941406 L 10.539062 5.828125 L 9.097656 5.828125 L 9.097656 2.941406 Z M 4.765625 2.941406 "/>
</clipPath>
<clipPath id="clip17">
  <path d="M 2 4 L 4 4 L 4 6 L 2 6 Z M 2 4 "/>
</clipPath>
<clipPath id="clip18">
  <path d="M 4.765625 2.941406 L 4.765625 5.828125 L 3.386719 5.828125 L 3.386719 7.269531 L 2.230469 7.269531 L 2.21875 7.394531 C 2.148438 8.179688 2.285156 8.90625 2.597656 9.527344 L 2.707031 9.714844 C 2.769531 9.828125 2.84375 9.9375 2.921875 10.039062 C 3 10.144531 3.027344 10.203125 3.074219 10.273438 C 3.910156 11.207031 5.152344 11.660156 6.585938 11.660156 C 9.765625 11.660156 12.460938 10.253906 13.652344 7.089844 C 14.5 7.175781 15.3125 6.960938 15.683594 6.238281 C 15.09375 5.898438 14.335938 6.007812 13.898438 6.226562 L 15.054688 2.941406 L 10.539062 5.828125 L 9.097656 5.828125 L 9.097656 2.941406 Z M 4.765625 2.941406 "/>
</clipPath>
<clipPath id="clip19">
  <path d="M 2 5 L 4 5 L 4 8 L 2 8 Z M 2 5 "/>
</clipPath>
<clipPath id="clip20">
  <path d="M 4.765625 2.941406 L 4.765625 5.828125 L 3.386719 5.828125 L 3.386719 7.269531 L 2.230469 7.269531 L 2.21875 7.394531 C 2.148438 8.179688 2.285156 8.90625 2.597656 9.527344 L 2.707031 9.714844 C 2.769531 9.828125 2.84375 9.9375 2.921875 10.039062 C 3 10.144531 3.027344 10.203125 3.074219 10.273438 C 3.910156 11.207031 5.152344 11.660156 6.585938 11.660156 C 9.765625 11.660156 12.460938 10.253906 13.652344 7.089844 C 14.5 7.175781 15.3125 6.960938 15.683594 6.238281 C 15.09375 5.898438 14.335938 6.007812 13.898438 6.226562 L 15.054688 2.941406 L 10.539062 5.828125 L 9.097656 5.828125 L 9.097656 2.941406 Z M 4.765625 2.941406 "/>
</clipPath>
<clipPath id="clip21">
  <path d="M 2 4 L 4 4 L 4 6 L 2 6 Z M 2 4 "/>
</clipPath>
<clipPath id="clip22">
  <path d="M 4.765625 2.941406 L 4.765625 5.828125 L 3.386719 5.828125 L 3.386719 7.269531 L 2.230469 7.269531 L 2.21875 7.394531 C 2.148438 8.179688 2.285156 8.90625 2.597656 9.527344 L 2.707031 9.714844 C 2.769531 9.828125 2.84375 9.9375 2.921875 10.039062 C 3 10.144531 3.027344 10.203125 3.074219 10.273438 C 3.910156 11.207031 5.152344 11.660156 6.585938 11.660156 C 9.765625 11.660156 12.460938 10.253906 13.652344 7.089844 C 14.5 7.175781 15.3125 6.960938 15.683594 6.238281 C 15.09375 5.898438 14.335938 6.007812 13.898438 6.226562 L 15.054688 2.941406 L 10.539062 5.828125 L 9.097656 5.828125 L 9.097656 2.941406 Z M 4.765625 2.941406 "/>
</clipPath>
<clipPath id="clip23">
  <path d="M 2 6 L 4 6 L 4 8 L 2 8 Z M 2 6 "/>
</clipPath>
<clipPath id="clip24">
  <path d="M 4.765625 2.941406 L 4.765625 5.828125 L 3.386719 5.828125 L 3.386719 7.269531 L 2.230469 7.269531 L 2.21875 7.394531 C 2.148438 8.179688 2.285156 8.90625 2.597656 9.527344 L 2.707031 9.714844 C 2.769531 9.828125 2.84375 9.9375 2.921875 10.039062 C 3 10.144531 3.027344 10.203125 3.074219 10.273438 C 3.910156 11.207031 5.152344 11.660156 6.585938 11.660156 C 9.765625 11.660156 12.460938 10.253906 13.652344 7.089844 C 14.5 7.175781 15.3125 6.960938 15.683594 6.238281 C 15.09375 5.898438 14.335938 6.007812 13.898438 6.226562 L 15.054688 2.941406 L 10.539062 5.828125 L 9.097656 5.828125 L 9.097656 2.941406 Z M 4.765625 2.941406 "/>
</clipPath>
<clipPath id="clip25">
  <path d="M 2 5 L 4 5 L 4 8 L 2 8 Z M 2 5 "/>
</clipPath>
<clipPath id="clip26">
  <path d="M 4.765625 2.941406 L 4.765625 5.828125 L 3.386719 5.828125 L 3.386719 7.269531 L 2.230469 7.269531 L 2.21875 7.394531 C 2.148438 8.179688 2.285156 8.90625 2.597656 9.527344 L 2.707031 9.714844 C 2.769531 9.828125 2.84375 9.9375 2.921875 10.039062 C 3 10.144531 3.027344 10.203125 3.074219 10.273438 C 3.910156 11.207031 5.152344 11.660156 6.585938 11.660156 C 9.765625 11.660156 12.460938 10.253906 13.652344 7.089844 C 14.5 7.175781 15.3125 6.960938 15.683594 6.238281 C 15.09375 5.898438 14.335938 6.007812 13.898438 6.226562 L 15.054688 2.941406 L 10.539062 5.828125 L 9.097656 5.828125 L 9.097656 2.941406 Z M 4.765625 2.941406 "/>
</clipPath>
<clipPath id="clip27">
  <path d="M 3 5 L 5 5 L 5 8 L 3 8 Z M 3 5 "/>
</clipPath>
<clipPath id="clip28">
  <path d="M 4.765625 2.941406 L 4.765625 5.828125 L 3.386719 5.828125 L 3.386719 7.269531 L 2.230469 7.269531 L 2.21875 7.394531 C 2.148438 8.179688 2.285156 8.90625 2.597656 9.527344 L 2.707031 9.714844 C 2.769531 9.828125 2.84375 9.9375 2.921875 10.039062 C 3 10.144531 3.027344 10.203125 3.074219 10.273438 C 3.910156 11.207031 5.152344 11.660156 6.585938 11.660156 C 9.765625 11.660156 12.460938 10.253906 13.652344 7.089844 C 14.5 7.175781 15.3125 6.960938 15.683594 6.238281 C 15.09375 5.898438 14.335938 6.007812 13.898438 6.226562 L 15.054688 2.941406 L 10.539062 5.828125 L 9.097656 5.828125 L 9.097656 2.941406 Z M 4.765625 2.941406 "/>
</clipPath>
<clipPath id="clip29">
  <path d="M 3 4 L 5 4 L 5 6 L 3 6 Z M 3 4 "/>
</clipPath>
<clipPath id="clip30">
  <path d="M 4.765625 2.941406 L 4.765625 5.828125 L 3.386719 5.828125 L 3.386719 7.269531 L 2.230469 7.269531 L 2.21875 7.394531 C 2.148438 8.179688 2.285156 8.90625 2.597656 9.527344 L 2.707031 9.714844 C 2.769531 9.828125 2.84375 9.9375 2.921875 10.039062 C 3 10.144531 3.027344 10.203125 3.074219 10.273438 C 3.910156 11.207031 5.152344 11.660156 6.585938 11.660156 C 9.765625 11.660156 12.460938 10.253906 13.652344 7.089844 C 14.5 7.175781 15.3125 6.960938 15.683594 6.238281 C 15.09375 5.898438 14.335938 6.007812 13.898438 6.226562 L 15.054688 2.941406 L 10.539062 5.828125 L 9.097656 5.828125 L 9.097656 2.941406 Z M 4.765625 2.941406 "/>
</clipPath>
<clipPath id="clip31">
  <path d="M 3 6 L 5 6 L 5 8 L 3 8 Z M 3 6 "/>
</clipPath>
<clipPath id="clip32">
  <path d="M 4.765625 2.941406 L 4.765625 5.828125 L 3.386719 5.828125 L 3.386719 7.269531 L 2.230469 7.269531 L 2.21875 7.394531 C 2.148438 8.179688 2.285156 8.90625 2.597656 9.527344 L 2.707031 9.714844 C 2.769531 9.828125 2.84375 9.9375 2.921875 10.039062 C 3 10.144531 3.027344 10.203125 3.074219 10.273438 C 3.910156 11.207031 5.152344 11.660156 6.585938 11.660156 C 9.765625 11.660156 12.460938 10.253906 13.652344 7.089844 C 14.5 7.175781 15.3125 6.960938 15.683594 6.238281 C 15.09375 5.898438 14.335938 6.007812 13.898438 6.226562 L 15.054688 2.941406 L 10.539062 5.828125 L 9.097656 5.828125 L 9.097656 2.941406 Z M 4.765625 2.941406 "/>
</clipPath>
<clipPath id="clip33">
  <path d="M 3 5 L 5 5 L 5 8 L 3 8 Z M 3 5 "/>
</clipPath>
<clipPath id="clip34">
  <path d="M 4.765625 2.941406 L 4.765625 5.828125 L 3.386719 5.828125 L 3.386719 7.269531 L 2.230469 7.269531 L 2.21875 7.394531 C 2.148438 8.179688 2.285156 8.90625 2.597656 9.527344 L 2.707031 9.714844 C 2.769531 9.828125 2.84375 9.9375 2.921875 10.039062 C 3 10.144531 3.027344 10.203125 3.074219 10.273438 C 3.910156 11.207031 5.152344 11.660156 6.585938 11.660156 C 9.765625 11.660156 12.460938 10.253906 13.652344 7.089844 C 14.5 7.175781 15.3125 6.960938 15.683594 6.238281 C 15.09375 5.898438 14.335938 6.007812 13.898438 6.226562 L 15.054688 2.941406 L 10.539062 5.828125 L 9.097656 5.828125 L 9.097656 2.941406 Z M 4.765625 2.941406 "/>
</clipPath>
<clipPath id="clip35">
  <path d="M 3 4 L 5 4 L 5 6 L 3 6 Z M 3 4 "/>
</clipPath>
<clipPath id="clip36">
  <path d="M 4.765625 2.941406 L 4.765625 5.828125 L 3.386719 5.828125 L 3.386719 7.269531 L 2.230469 7.269531 L 2.21875 7.394531 C 2.148438 8.179688 2.285156 8.90625 2.597656 9.527344 L 2.707031 9.714844 C 2.769531 9.828125 2.84375 9.9375 2.921875 10.039062 C 3 10.144531 3.027344 10.203125 3.074219 10.273438 C 3.910156 11.207031 5.152344 11.660156 6.585938 11.660156 C 9.765625 11.660156 12.460938 10.253906 13.652344 7.089844 C 14.5 7.175781 15.3125 6.960938 15.683594 6.238281 C 15.09375 5.898438 14.335938 6.007812 13.898438 6.226562 L 15.054688 2.941406 L 10.539062 5.828125 L 9.097656 5.828125 L 9.097656 2.941406 Z M 4.765625 2.941406 "/>
</clipPath>
<clipPath id="clip37">
  <path d="M 4 4 L 7 4 L 7 6 L 4 6 Z M 4 4 "/>
</clipPath>
<clipPath id="clip38">
  <path d="M 4.765625 2.941406 L 4.765625 5.828125 L 3.386719 5.828125 L 3.386719 7.269531 L 2.230469 7.269531 L 2.21875 7.394531 C 2.148438 8.179688 2.285156 8.90625 2.597656 9.527344 L 2.707031 9.714844 C 2.769531 9.828125 2.84375 9.9375 2.921875 10.039062 C 3 10.144531 3.027344 10.203125 3.074219 10.273438 C 3.910156 11.207031 5.152344 11.660156 6.585938 11.660156 C 9.765625 11.660156 12.460938 10.253906 13.652344 7.089844 C 14.5 7.175781 15.3125 6.960938 15.683594 6.238281 C 15.09375 5.898438 14.335938 6.007812 13.898438 6.226562 L 15.054688 2.941406 L 10.539062 5.828125 L 9.097656 5.828125 L 9.097656 2.941406 Z M 4.765625 2.941406 "/>
</clipPath>
<clipPath id="clip39">
  <path d="M 4 5 L 7 5 L 7 8 L 4 8 Z M 4 5 "/>
</clipPath>
<clipPath id="clip40">
  <path d="M 4.765625 2.941406 L 4.765625 5.828125 L 3.386719 5.828125 L 3.386719 7.269531 L 2.230469 7.269531 L 2.21875 7.394531 C 2.148438 8.179688 2.285156 8.90625 2.597656 9.527344 L 2.707031 9.714844 C 2.769531 9.828125 2.84375 9.9375 2.921875 10.039062 C 3 10.144531 3.027344 10.203125 3.074219 10.273438 C 3.910156 11.207031 5.152344 11.660156 6.585938 11.660156 C 9.765625 11.660156 12.460938 10.253906 13.652344 7.089844 C 14.5 7.175781 15.3125 6.960938 15.683594 6.238281 C 15.09375 5.898438 14.335938 6.007812 13.898438 6.226562 L 15.054688 2.941406 L 10.539062 5.828125 L 9.097656 5.828125 L 9.097656 2.941406 Z M 4.765625 2.941406 "/>
</clipPath>
<clipPath id="clip41">
  <path d="M 5 4 L 6 4 L 6 6 L 5 6 Z M 5 4 "/>
</clipPath>
<clipPath id="clip42">
  <path d="M 4.765625 2.941406 L 4.765625 5.828125 L 3.386719 5.828125 L 3.386719 7.269531 L 2.230469 7.269531 L 2.21875 7.394531 C 2.148438 8.179688 2.285156 8.90625 2.597656 9.527344 L 2.707031 9.714844 C 2.769531 9.828125 2.84375 9.9375 2.921875 10.039062 C 3 10.144531 3.027344 10.203125 3.074219 10.273438 C 3.910156 11.207031 5.152344 11.660156 6.585938 11.660156 C 9.765625 11.660156 12.460938 10.253906 13.652344 7.089844 C 14.5 7.175781 15.3125 6.960938 15.683594 6.238281 C 15.09375 5.898438 14.335938 6.007812 13.898438 6.226562 L 15.054688 2.941406 L 10.539062 5.828125 L 9.097656 5.828125 L 9.097656 2.941406 Z M 4.765625 2.941406 "/>
</clipPath>
<clipPath id="clip43">
  <path d="M 5 4 L 7 4 L 7 6 L 5 6 Z M 5 4 "/>
</clipPath>
<clipPath id="clip44">
  <path d="M 4.765625 2.941406 L 4.765625 5.828125 L 3.386719 5.828125 L 3.386719 7.269531 L 2.230469 7.269531 L 2.21875 7.394531 C 2.148438 8.179688 2.285156 8.90625 2.597656 9.527344 L 2.707031 9.714844 C 2.769531 9.828125 2.84375 9.9375 2.921875 10.039062 C 3 10.144531 3.027344 10.203125 3.074219 10.273438 C 3.910156 11.207031 5.152344 11.660156 6.585938 11.660156 C 9.765625 11.660156 12.460938 10.253906 13.652344 7.089844 C 14.5 7.175781 15.3125 6.960938 15.683594 6.238281 C 15.09375 5.898438 14.335938 6.007812 13.898438 6.226562 L 15.054688 2.941406 L 10.539062 5.828125 L 9.097656 5.828125 L 9.097656 2.941406 Z M 4.765625 2.941406 "/>
</clipPath>
<clipPath id="clip45">
  <path d="M 5 6 L 6 6 L 6 8 L 5 8 Z M 5 6 "/>
</clipPath>
<clipPath id="clip46">
  <path d="M 4.765625 2.941406 L 4.765625 5.828125 L 3.386719 5.828125 L 3.386719 7.269531 L 2.230469 7.269531 L 2.21875 7.394531 C 2.148438 8.179688 2.285156 8.90625 2.597656 9.527344 L 2.707031 9.714844 C 2.769531 9.828125 2.84375 9.9375 2.921875 10.039062 C 3 10.144531 3.027344 10.203125 3.074219 10.273438 C 3.910156 11.207031 5.152344 11.660156 6.585938 11.660156 C 9.765625 11.660156 12.460938 10.253906 13.652344 7.089844 C 14.5 7.175781 15.3125 6.960938 15.683594 6.238281 C 15.09375 5.898438 14.335938 6.007812 13.898438 6.226562 L 15.054688 2.941406 L 10.539062 5.828125 L 9.097656 5.828125 L 9.097656 2.941406 Z M 4.765625 2.941406 "/>
</clipPath>
<clipPath id="clip47">
  <path d="M 5 5 L 7 5 L 7 8 L 5 8 Z M 5 5 "/>
</clipPath>
<clipPath id="clip48">
  <path d="M 4.765625 2.941406 L 4.765625 5.828125 L 3.386719 5.828125 L 3.386719 7.269531 L 2.230469 7.269531 L 2.21875 7.394531 C 2.148438 8.179688 2.285156 8.90625 2.597656 9.527344 L 2.707031 9.714844 C 2.769531 9.828125 2.84375 9.9375 2.921875 10.039062 C 3 10.144531 3.027344 10.203125 3.074219 10.273438 C 3.910156 11.207031 5.152344 11.660156 6.585938 11.660156 C 9.765625 11.660156 12.460938 10.253906 13.652344 7.089844 C 14.5 7.175781 15.3125 6.960938 15.683594 6.238281 C 15.09375 5.898438 14.335938 6.007812 13.898438 6.226562 L 15.054688 2.941406 L 10.539062 5.828125 L 9.097656 5.828125 L 9.097656 2.941406 Z M 4.765625 2.941406 "/>
</clipPath>
<clipPath id="clip49">
  <path d="M 6 5 L 8 5 L 8 8 L 6 8 Z M 6 5 "/>
</clipPath>
<clipPath id="clip50">
  <path d="M 4.765625 2.941406 L 4.765625 5.828125 L 3.386719 5.828125 L 3.386719 7.269531 L 2.230469 7.269531 L 2.21875 7.394531 C 2.148438 8.179688 2.285156 8.90625 2.597656 9.527344 L 2.707031 9.714844 C 2.769531 9.828125 2.84375 9.9375 2.921875 10.039062 C 3 10.144531 3.027344 10.203125 3.074219 10.273438 C 3.910156 11.207031 5.152344 11.660156 6.585938 11.660156 C 9.765625 11.660156 12.460938 10.253906 13.652344 7.089844 C 14.5 7.175781 15.3125 6.960938 15.683594 6.238281 C 15.09375 5.898438 14.335938 6.007812 13.898438 6.226562 L 15.054688 2.941406 L 10.539062 5.828125 L 9.097656 5.828125 L 9.097656 2.941406 Z M 4.765625 2.941406 "/>
</clipPath>
<clipPath id="clip51">
  <path d="M 6 4 L 8 4 L 8 6 L 6 6 Z M 6 4 "/>
</clipPath>
<clipPath id="clip52">
  <path d="M 4.765625 2.941406 L 4.765625 5.828125 L 3.386719 5.828125 L 3.386719 7.269531 L 2.230469 7.269531 L 2.21875 7.394531 C 2.148438 8.179688 2.285156 8.90625 2.597656 9.527344 L 2.707031 9.714844 C 2.769531 9.828125 2.84375 9.9375 2.921875 10.039062 C 3 10.144531 3.027344 10.203125 3.074219 10.273438 C 3.910156 11.207031 5.152344 11.660156 6.585938 11.660156 C 9.765625 11.660156 12.460938 10.253906 13.652344 7.089844 C 14.5 7.175781 15.3125 6.960938 15.683594 6.238281 C 15.09375 5.898438 14.335938 6.007812 13.898438 6.226562 L 15.054688 2.941406 L 10.539062 5.828125 L 9.097656 5.828125 L 9.097656 2.941406 Z M 4.765625 2.941406 "/>
</clipPath>
<clipPath id="clip53">
  <path d="M 6 6 L 8 6 L 8 8 L 6 8 Z M 6 6 "/>
</clipPath>
<clipPath id="clip54">
  <path d="M 4.765625 2.941406 L 4.765625 5.828125 L 3.386719 5.828125 L 3.386719 7.269531 L 2.230469 7.269531 L 2.21875 7.394531 C 2.148438 8.179688 2.285156 8.90625 2.597656 9.527344 L 2.707031 9.714844 C 2.769531 9.828125 2.84375 9.9375 2.921875 10.039062 C 3 10.144531 3.027344 10.203125 3.074219 10.273438 C 3.910156 11.207031 5.152344 11.660156 6.585938 11.660156 C 9.765625 11.660156 12.460938 10.253906 13.652344 7.089844 C 14.5 7.175781 15.3125 6.960938 15.683594 6.238281 C 15.09375 5.898438 14.335938 6.007812 13.898438 6.226562 L 15.054688 2.941406 L 10.539062 5.828125 L 9.097656 5.828125 L 9.097656 2.941406 Z M 4.765625 2.941406 "/>
</clipPath>
<clipPath id="clip55">
  <path d="M 6 5 L 8 5 L 8 8 L 6 8 Z M 6 5 "/>
</clipPath>
<clipPath id="clip56">
  <path d="M 4.765625 2.941406 L 4.765625 5.828125 L 3.386719 5.828125 L 3.386719 7.269531 L 2.230469 7.269531 L 2.21875 7.394531 C 2.148438 8.179688 2.285156 8.90625 2.597656 9.527344 L 2.707031 9.714844 C 2.769531 9.828125 2.84375 9.9375 2.921875 10.039062 C 3 10.144531 3.027344 10.203125 3.074219 10.273438 C 3.910156 11.207031 5.152344 11.660156 6.585938 11.660156 C 9.765625 11.660156 12.460938 10.253906 13.652344 7.089844 C 14.5 7.175781 15.3125 6.960938 15.683594 6.238281 C 15.09375 5.898438 14.335938 6.007812 13.898438 6.226562 L 15.054688 2.941406 L 10.539062 5.828125 L 9.097656 5.828125 L 9.097656 2.941406 Z M 4.765625 2.941406 "/>
</clipPath>
<clipPath id="clip57">
  <path d="M 6 4 L 8 4 L 8 6 L 6 6 Z M 6 4 "/>
</clipPath>
<clipPath id="clip58">
  <path d="M 4.765625 2.941406 L 4.765625 5.828125 L 3.386719 5.828125 L 3.386719 7.269531 L 2.230469 7.269531 L 2.21875 7.394531 C 2.148438 8.179688 2.285156 8.90625 2.597656 9.527344 L 2.707031 9.714844 C 2.769531 9.828125 2.84375 9.9375 2.921875 10.039062 C 3 10.144531 3.027344 10.203125 3.074219 10.273438 C 3.910156 11.207031 5.152344 11.660156 6.585938 11.660156 C 9.765625 11.660156 12.460938 10.253906 13.652344 7.089844 C 14.5 7.175781 15.3125 6.960938 15.683594 6.238281 C 15.09375 5.898438 14.335938 6.007812 13.898438 6.226562 L 15.054688 2.941406 L 10.539062 5.828125 L 9.097656 5.828125 L 9.097656 2.941406 Z M 4.765625 2.941406 "/>
</clipPath>
<clipPath id="clip59">
  <path d="M 7 4 L 10 4 L 10 6 L 7 6 Z M 7 4 "/>
</clipPath>
<clipPath id="clip60">
  <path d="M 4.765625 2.941406 L 4.765625 5.828125 L 3.386719 5.828125 L 3.386719 7.269531 L 2.230469 7.269531 L 2.21875 7.394531 C 2.148438 8.179688 2.285156 8.90625 2.597656 9.527344 L 2.707031 9.714844 C 2.769531 9.828125 2.84375 9.9375 2.921875 10.039062 C 3 10.144531 3.027344 10.203125 3.074219 10.273438 C 3.910156 11.207031 5.152344 11.660156 6.585938 11.660156 C 9.765625 11.660156 12.460938 10.253906 13.652344 7.089844 C 14.5 7.175781 15.3125 6.960938 15.683594 6.238281 C 15.09375 5.898438 14.335938 6.007812 13.898438 6.226562 L 15.054688 2.941406 L 10.539062 5.828125 L 9.097656 5.828125 L 9.097656 2.941406 Z M 4.765625 2.941406 "/>
</clipPath>
<clipPath id="clip61">
  <path d="M 7 5 L 10 5 L 10 8 L 7 8 Z M 7 5 "/>
</clipPath>
<clipPath id="clip62">
  <path d="M 4.765625 2.941406 L 4.765625 5.828125 L 3.386719 5.828125 L 3.386719 7.269531 L 2.230469 7.269531 L 2.21875 7.394531 C 2.148438 8.179688 2.285156 8.90625 2.597656 9.527344 L 2.707031 9.714844 C 2.769531 9.828125 2.84375 9.9375 2.921875 10.039062 C 3 10.144531 3.027344 10.203125 3.074219 10.273438 C 3.910156 11.207031 5.152344 11.660156 6.585938 11.660156 C 9.765625 11.660156 12.460938 10.253906 13.652344 7.089844 C 14.5 7.175781 15.3125 6.960938 15.683594 6.238281 C 15.09375 5.898438 14.335938 6.007812 13.898438 6.226562 L 15.054688 2.941406 L 10.539062 5.828125 L 9.097656 5.828125 L 9.097656 2.941406 Z M 4.765625 2.941406 "/>
</clipPath>
<clipPath id="clip63">
  <path d="M 7 4 L 9 4 L 9 6 L 7 6 Z M 7 4 "/>
</clipPath>
<clipPath id="clip64">
  <path d="M 4.765625 2.941406 L 4.765625 5.828125 L 3.386719 5.828125 L 3.386719 7.269531 L 2.230469 7.269531 L 2.21875 7.394531 C 2.148438 8.179688 2.285156 8.90625 2.597656 9.527344 L 2.707031 9.714844 C 2.769531 9.828125 2.84375 9.9375 2.921875 10.039062 C 3 10.144531 3.027344 10.203125 3.074219 10.273438 C 3.910156 11.207031 5.152344 11.660156 6.585938 11.660156 C 9.765625 11.660156 12.460938 10.253906 13.652344 7.089844 C 14.5 7.175781 15.3125 6.960938 15.683594 6.238281 C 15.09375 5.898438 14.335938 6.007812 13.898438 6.226562 L 15.054688 2.941406 L 10.539062 5.828125 L 9.097656 5.828125 L 9.097656 2.941406 Z M 4.765625 2.941406 "/>
</clipPath>
<clipPath id="clip65">
  <path d="M 7 6 L 9 6 L 9 8 L 7 8 Z M 7 6 "/>
</clipPath>
<clipPath id="clip66">
  <path d="M 4.765625 2.941406 L 4.765625 5.828125 L 3.386719 5.828125 L 3.386719 7.269531 L 2.230469 7.269531 L 2.21875 7.394531 C 2.148438 8.179688 2.285156 8.90625 2.597656 9.527344 L 2.707031 9.714844 C 2.769531 9.828125 2.84375 9.9375 2.921875 10.039062 C 3 10.144531 3.027344 10.203125 3.074219 10.273438 C 3.910156 11.207031 5.152344 11.660156 6.585938 11.660156 C 9.765625 11.660156 12.460938 10.253906 13.652344 7.089844 C 14.5 7.175781 15.3125 6.960938 15.683594 6.238281 C 15.09375 5.898438 14.335938 6.007812 13.898438 6.226562 L 15.054688 2.941406 L 10.539062 5.828125 L 9.097656 5.828125 L 9.097656 2.941406 Z M 4.765625 2.941406 "/>
</clipPath>
<clipPath id="clip67">
  <path d="M 7 5 L 9 5 L 9 8 L 7 8 Z M 7 5 "/>
</clipPath>
<clipPath id="clip68">
  <path d="M 4.765625 2.941406 L 4.765625 5.828125 L 3.386719 5.828125 L 3.386719 7.269531 L 2.230469 7.269531 L 2.21875 7.394531 C 2.148438 8.179688 2.285156 8.90625 2.597656 9.527344 L 2.707031 9.714844 C 2.769531 9.828125 2.84375 9.9375 2.921875 10.039062 C 3 10.144531 3.027344 10.203125 3.074219 10.273438 C 3.910156 11.207031 5.152344 11.660156 6.585938 11.660156 C 9.765625 11.660156 12.460938 10.253906 13.652344 7.089844 C 14.5 7.175781 15.3125 6.960938 15.683594 6.238281 C 15.09375 5.898438 14.335938 6.007812 13.898438 6.226562 L 15.054688 2.941406 L 10.539062 5.828125 L 9.097656 5.828125 L 9.097656 2.941406 Z M 4.765625 2.941406 "/>
</clipPath>
<clipPath id="clip69">
  <path d="M 9 5 L 11 5 L 11 8 L 9 8 Z M 9 5 "/>
</clipPath>
<clipPath id="clip70">
  <path d="M 4.765625 2.941406 L 4.765625 5.828125 L 3.386719 5.828125 L 3.386719 7.269531 L 2.230469 7.269531 L 2.21875 7.394531 C 2.148438 8.179688 2.285156 8.90625 2.597656 9.527344 L 2.707031 9.714844 C 2.769531 9.828125 2.84375 9.9375 2.921875 10.039062 C 3 10.144531 3.027344 10.203125 3.074219 10.273438 C 3.910156 11.207031 5.152344 11.660156 6.585938 11.660156 C 9.765625 11.660156 12.460938 10.253906 13.652344 7.089844 C 14.5 7.175781 15.3125 6.960938 15.683594 6.238281 C 15.09375 5.898438 14.335938 6.007812 13.898438 6.226562 L 15.054688 2.941406 L 10.539062 5.828125 L 9.097656 5.828125 L 9.097656 2.941406 Z M 4.765625 2.941406 "/>
</clipPath>
<clipPath id="clip71">
  <path d="M 9 4 L 11 4 L 11 6 L 9 6 Z M 9 4 "/>
</clipPath>
<clipPath id="clip72">
  <path d="M 4.765625 2.941406 L 4.765625 5.828125 L 3.386719 5.828125 L 3.386719 7.269531 L 2.230469 7.269531 L 2.21875 7.394531 C 2.148438 8.179688 2.285156 8.90625 2.597656 9.527344 L 2.707031 9.714844 C 2.769531 9.828125 2.84375 9.9375 2.921875 10.039062 C 3 10.144531 3.027344 10.203125 3.074219 10.273438 C 3.910156 11.207031 5.152344 11.660156 6.585938 11.660156 C 9.765625 11.660156 12.460938 10.253906 13.652344 7.089844 C 14.5 7.175781 15.3125 6.960938 15.683594 6.238281 C 15.09375 5.898438 14.335938 6.007812 13.898438 6.226562 L 15.054688 2.941406 L 10.539062 5.828125 L 9.097656 5.828125 L 9.097656 2.941406 Z M 4.765625 2.941406 "/>
</clipPath>
<clipPath id="clip73">
  <path d="M 9 6 L 11 6 L 11 8 L 9 8 Z M 9 6 "/>
</clipPath>
<clipPath id="clip74">
  <path d="M 4.765625 2.941406 L 4.765625 5.828125 L 3.386719 5.828125 L 3.386719 7.269531 L 2.230469 7.269531 L 2.21875 7.394531 C 2.148438 8.179688 2.285156 8.90625 2.597656 9.527344 L 2.707031 9.714844 C 2.769531 9.828125 2.84375 9.9375 2.921875 10.039062 C 3 10.144531 3.027344 10.203125 3.074219 10.273438 C 3.910156 11.207031 5.152344 11.660156 6.585938 11.660156 C 9.765625 11.660156 12.460938 10.253906 13.652344 7.089844 C 14.5 7.175781 15.3125 6.960938 15.683594 6.238281 C 15.09375 5.898438 14.335938 6.007812 13.898438 6.226562 L 15.054688 2.941406 L 10.539062 5.828125 L 9.097656 5.828125 L 9.097656 2.941406 Z M 4.765625 2.941406 "/>
</clipPath>
<clipPath id="clip75">
  <path d="M 9 5 L 11 5 L 11 8 L 9 8 Z M 9 5 "/>
</clipPath>
<clipPath id="clip76">
  <path d="M 4.765625 2.941406 L 4.765625 5.828125 L 3.386719 5.828125 L 3.386719 7.269531 L 2.230469 7.269531 L 2.21875 7.394531 C 2.148438 8.179688 2.285156 8.90625 2.597656 9.527344 L 2.707031 9.714844 C 2.769531 9.828125 2.84375 9.9375 2.921875 10.039062 C 3 10.144531 3.027344 10.203125 3.074219 10.273438 C 3.910156 11.207031 5.152344 11.660156 6.585938 11.660156 C 9.765625 11.660156 12.460938 10.253906 13.652344 7.089844 C 14.5 7.175781 15.3125 6.960938 15.683594 6.238281 C 15.09375 5.898438 14.335938 6.007812 13.898438 6.226562 L 15.054688 2.941406 L 10.539062 5.828125 L 9.097656 5.828125 L 9.097656 2.941406 Z M 4.765625 2.941406 "/>
</clipPath>
<clipPath id="clip77">
  <path d="M 9 4 L 11 4 L 11 6 L 9 6 Z M 9 4 "/>
</clipPath>
<clipPath id="clip78">
  <path d="M 4.765625 2.941406 L 4.765625 5.828125 L 3.386719 5.828125 L 3.386719 7.269531 L 2.230469 7.269531 L 2.21875 7.394531 C 2.148438 8.179688 2.285156 8.90625 2.597656 9.527344 L 2.707031 9.714844 C 2.769531 9.828125 2.84375 9.9375 2.921875 10.039062 C 3 10.144531 3.027344 10.203125 3.074219 10.273438 C 3.910156 11.207031 5.152344 11.660156 6.585938 11.660156 C 9.765625 11.660156 12.460938 10.253906 13.652344 7.089844 C 14.5 7.175781 15.3125 6.960938 15.683594 6.238281 C 15.09375 5.898438 14.335938 6.007812 13.898438 6.226562 L 15.054688 2.941406 L 10.539062 5.828125 L 9.097656 5.828125 L 9.097656 2.941406 Z M 4.765625 2.941406 "/>
</clipPath>
<clipPath id="clip79">
  <path d="M 2 4 L 16 4 L 16 12 L 2 12 Z M 2 4 "/>
</clipPath>
<clipPath id="clip80">
  <path d="M 4.765625 2.941406 L 4.765625 5.828125 L 3.386719 5.828125 L 3.386719 7.269531 L 2.230469 7.269531 L 2.21875 7.394531 C 2.148438 8.179688 2.285156 8.90625 2.597656 9.527344 L 2.707031 9.714844 C 2.769531 9.828125 2.84375 9.9375 2.921875 10.039062 C 3 10.144531 3.027344 10.203125 3.074219 10.273438 C 3.910156 11.207031 5.152344 11.660156 6.585938 11.660156 C 9.765625 11.660156 12.460938 10.253906 13.652344 7.089844 C 14.5 7.175781 15.3125 6.960938 15.683594 6.238281 C 15.09375 5.898438 14.335938 6.007812 13.898438 6.226562 L 15.054688 2.941406 L 10.539062 5.828125 L 9.097656 5.828125 L 9.097656 2.941406 Z M 4.765625 2.941406 "/>
</clipPath>
<clipPath id="clip81">
  <path d="M 2 8 L 16 8 L 16 12 L 2 12 Z M 2 8 "/>
</clipPath>
<clipPath id="clip82">
  <path d="M 4.765625 2.941406 L 4.765625 5.828125 L 3.386719 5.828125 L 3.386719 7.269531 L 2.230469 7.269531 L 2.21875 7.394531 C 2.148438 8.179688 2.285156 8.90625 2.597656 9.527344 L 2.707031 9.714844 C 2.769531 9.828125 2.84375 9.9375 2.921875 10.039062 C 3 10.144531 3.027344 10.203125 3.074219 10.273438 C 3.910156 11.207031 5.152344 11.660156 6.585938 11.660156 C 9.765625 11.660156 12.460938 10.253906 13.652344 7.089844 C 14.5 7.175781 15.3125 6.960938 15.683594 6.238281 C 15.09375 5.898438 14.335938 6.007812 13.898438 6.226562 L 15.054688 2.941406 L 10.539062 5.828125 L 9.097656 5.828125 L 9.097656 2.941406 Z M 4.765625 2.941406 "/>
</clipPath>
<clipPath id="clip83">
  <path d="M 2 10 L 7 10 L 7 12 L 2 12 Z M 2 10 "/>
</clipPath>
<clipPath id="clip84">
  <path d="M 4.765625 2.941406 L 4.765625 5.828125 L 3.386719 5.828125 L 3.386719 7.269531 L 2.230469 7.269531 L 2.21875 7.394531 C 2.148438 8.179688 2.285156 8.90625 2.597656 9.527344 L 2.707031 9.714844 C 2.769531 9.828125 2.84375 9.9375 2.921875 10.039062 C 3 10.144531 3.027344 10.203125 3.074219 10.273438 C 3.910156 11.207031 5.152344 11.660156 6.585938 11.660156 C 9.765625 11.660156 12.460938 10.253906 13.652344 7.089844 C 14.5 7.175781 15.3125 6.960938 15.683594 6.238281 C 15.09375 5.898438 14.335938 6.007812 13.898438 6.226562 L 15.054688 2.941406 L 10.539062 5.828125 L 9.097656 5.828125 L 9.097656 2.941406 Z M 4.765625 2.941406 "/>
</clipPath>
<clipPath id="clip85">
  <path d="M 2 5 L 16 5 L 16 12 L 2 12 Z M 2 5 "/>
</clipPath>
<clipPath id="clip86">
  <path d="M 4.765625 2.941406 L 4.765625 5.828125 L 3.386719 5.828125 L 3.386719 7.269531 L 2.230469 7.269531 L 2.21875 7.394531 C 2.148438 8.179688 2.285156 8.90625 2.597656 9.527344 L 2.707031 9.714844 C 2.769531 9.828125 2.84375 9.9375 2.921875 10.039062 C 3 10.144531 3.027344 10.203125 3.074219 10.273438 C 3.910156 11.207031 5.152344 11.660156 6.585938 11.660156 C 9.765625 11.660156 12.460938 10.253906 13.652344 7.089844 C 14.5 7.175781 15.3125 6.960938 15.683594 6.238281 C 15.09375 5.898438 14.335938 6.007812 13.898438 6.226562 L 15.054688 2.941406 L 10.539062 5.828125 L 9.097656 5.828125 L 9.097656 2.941406 Z M 4.765625 2.941406 "/>
</clipPath>
</defs>
<g id="surface1">
<path style=" stroke:none;fill-rule:nonzero;fill:rgb(22.352941%,30.196078%,32.941176%);fill-opacity:1;" d="M 9.25 5.683594 L 10.6875 5.683594 L 10.6875 7.148438 L 11.410156 7.148438 C 11.75 7.148438 12.085938 7.09375 12.40625 6.984375 C 12.5625 6.929688 12.738281 6.855469 12.890625 6.765625 C 12.691406 6.5 12.585938 6.167969 12.554688 5.835938 C 12.511719 5.390625 12.601562 4.808594 12.90625 4.457031 L 13.054688 4.28125 L 13.234375 4.425781 C 13.6875 4.789062 14.070312 5.296875 14.136719 5.878906 C 14.679688 5.71875 15.320312 5.753906 15.800781 6.03125 L 15.996094 6.144531 L 15.894531 6.347656 C 15.492188 7.140625 14.640625 7.386719 13.8125 7.34375 C 12.570312 10.433594 9.867188 11.898438 6.585938 11.898438 C 4.894531 11.898438 3.339844 11.265625 2.457031 9.765625 C 2.402344 9.671875 2.359375 9.574219 2.3125 9.476562 C 2.011719 8.816406 1.914062 8.089844 1.980469 7.371094 L 2 7.152344 L 3.222656 7.152344 L 3.222656 5.683594 L 4.660156 5.683594 L 4.660156 4.25 L 7.527344 4.25 L 7.527344 2.816406 L 9.25 2.816406 L 9.25 5.683594 "/>
<g clip-path="url(#clip1)" clip-rule="nonzero">
<g clip-path="url(#clip2)" clip-rule="nonzero">
<path style=" stroke:none;fill-rule:nonzero;fill:rgb(0%,67.45098%,82.745098%);fill-opacity:1;" d="M 7.769531 1.617188 L 9.011719 1.617188 L 9.011719 2.863281 L 7.769531 2.863281 Z M 7.769531 1.617188 "/>
</g>
</g>
<g clip-path="url(#clip3)" clip-rule="nonzero">
<g clip-path="url(#clip4)" clip-rule="nonzero">
<path style=" stroke:none;fill-rule:nonzero;fill:rgb(12.54902%,76.078431%,93.72549%);fill-opacity:1;" d="M 7.769531 3.054688 L 9.011719 3.054688 L 9.011719 4.296875 L 7.769531 4.296875 Z M 7.769531 3.054688 "/>
</g>
</g>
<g clip-path="url(#clip5)" clip-rule="nonzero">
<g clip-path="url(#clip6)" clip-rule="nonzero">
<path style="fill-rule:nonzero;fill:rgb(0%,0%,0%);fill-opacity:1;stroke-width:1.56;stroke-linecap:butt;stroke-linejoin:miter;stroke:rgb(22.352941%,30.196078%,32.941176%);stroke-opacity:1;stroke-miterlimit:4;" d="M 126.283686 21.952834 L 126.283686 5.451267 M 129.272649 21.952834 L 129.272649 5.451267 M 132.261612 21.952834 L 132.261612 5.451267 M 135.250575 21.952834 L 135.250575 5.451267 M 138.301808 21.952834 L 138.301808 5.451267 M 141.228501 21.952834 L 141.228501 5.451267 " transform="matrix(0.0627308,0,0,0.0627308,0.000000148828,1.380694)"/>
</g>
</g>
<g clip-path="url(#clip7)" clip-rule="nonzero">
<g clip-path="url(#clip8)" clip-rule="nonzero">
<path style="fill-rule:nonzero;fill:rgb(0%,0%,0%);fill-opacity:1;stroke-width:1.56;stroke-linecap:butt;stroke-linejoin:miter;stroke:rgb(22.352941%,30.196078%,32.941176%);stroke-opacity:1;stroke-miterlimit:4;" d="M 126.283686 22.002217 L 126.283686 5.43838 M 129.272649 22.002217 L 129.272649 5.43838 M 132.261612 22.002217 L 132.261612 5.43838 M 135.250575 22.002217 L 135.250575 5.43838 M 138.301808 22.002217 L 138.301808 5.43838 M 141.228501 22.002217 L 141.228501 5.43838 " transform="matrix(0.0627308,0,0,0.0627308,0.000000148828,2.815096)"/>
</g>
</g>
<g clip-path="url(#clip9)" clip-rule="nonzero">
<g clip-path="url(#clip10)" clip-rule="nonzero">
<path style=" stroke:none;fill-rule:nonzero;fill:rgb(0%,67.45098%,82.745098%);fill-opacity:1;" d="M 9.203125 4.296875 L 10.449219 4.296875 L 10.449219 3.054688 L 9.203125 3.054688 Z M 9.203125 4.296875 "/>
</g>
</g>
<g clip-path="url(#clip11)" clip-rule="nonzero">
<g clip-path="url(#clip12)" clip-rule="nonzero">
<path style=" stroke:none;fill-rule:nonzero;fill:rgb(12.54902%,76.078431%,93.72549%);fill-opacity:1;" d="M 9.203125 2.863281 L 10.449219 2.863281 L 10.449219 1.621094 L 9.203125 1.621094 Z M 9.203125 2.863281 "/>
</g>
</g>
<g clip-path="url(#clip13)" clip-rule="nonzero">
<g clip-path="url(#clip14)" clip-rule="nonzero">
<path style="fill-rule:nonzero;fill:rgb(0%,0%,0%);fill-opacity:1;stroke-width:1.56;stroke-linecap:butt;stroke-linejoin:miter;stroke:rgb(22.352941%,30.196078%,32.941176%);stroke-opacity:1;stroke-miterlimit:4;" d="M 126.270799 22.000271 L 126.270799 5.436434 M 129.259762 22.000271 L 129.259762 5.436434 M 132.248725 22.000271 L 132.248725 5.436434 M 135.299958 22.000271 L 135.299958 5.436434 M 138.288921 22.000271 L 138.288921 5.436434 M 141.215614 22.000271 L 141.215614 5.436434 " transform="matrix(0.0627308,0,0,-0.0627308,1.434402,4.536344)"/>
</g>
</g>
<g clip-path="url(#clip15)" clip-rule="nonzero">
<g clip-path="url(#clip16)" clip-rule="nonzero">
<path style="fill-rule:nonzero;fill:rgb(0%,0%,0%);fill-opacity:1;stroke-width:1.56;stroke-linecap:butt;stroke-linejoin:miter;stroke:rgb(22.352941%,30.196078%,32.941176%);stroke-opacity:1;stroke-miterlimit:4;" d="M 126.270799 21.987384 L 126.270799 5.485817 M 129.259762 21.987384 L 129.259762 5.485817 M 132.248725 21.987384 L 132.248725 5.485817 M 135.299958 21.987384 L 135.299958 5.485817 M 138.288921 21.987384 L 138.288921 5.485817 M 141.215614 21.987384 L 141.215614 5.485817 " transform="matrix(0.0627308,0,0,-0.0627308,1.434402,3.101942)"/>
</g>
</g>
<g clip-path="url(#clip17)" clip-rule="nonzero">
<g clip-path="url(#clip18)" clip-rule="nonzero">
<path style=" stroke:none;fill-rule:nonzero;fill:rgb(0%,67.45098%,82.745098%);fill-opacity:1;" d="M 2.03125 4.488281 L 3.277344 4.488281 L 3.277344 5.730469 L 2.03125 5.730469 Z M 2.03125 4.488281 "/>
</g>
</g>
<g clip-path="url(#clip19)" clip-rule="nonzero">
<g clip-path="url(#clip20)" clip-rule="nonzero">
<path style=" stroke:none;fill-rule:nonzero;fill:rgb(12.54902%,76.078431%,93.72549%);fill-opacity:1;" d="M 2.03125 5.921875 L 3.277344 5.921875 L 3.277344 7.167969 L 2.03125 7.167969 Z M 2.03125 5.921875 "/>
</g>
</g>
<g clip-path="url(#clip21)" clip-rule="nonzero">
<g clip-path="url(#clip22)" clip-rule="nonzero">
<path style="fill-rule:nonzero;fill:rgb(0%,0%,0%);fill-opacity:1;stroke-width:1.56;stroke-linecap:butt;stroke-linejoin:miter;stroke:rgb(22.352941%,30.196078%,32.941176%);stroke-opacity:1;stroke-miterlimit:4;" d="M 126.272963 21.98933 L 126.272963 5.487764 M 129.261926 21.98933 L 129.261926 5.487764 M 132.250889 21.98933 L 132.250889 5.487764 M 135.239852 21.98933 L 135.239852 5.487764 M 138.291085 21.98933 L 138.291085 5.487764 M 141.217778 21.98933 L 141.217778 5.487764 " transform="matrix(0.0627308,0,0,0.0627308,-5.737608,4.249498)"/>
</g>
</g>
<g clip-path="url(#clip23)" clip-rule="nonzero">
<g clip-path="url(#clip24)" clip-rule="nonzero">
<path style=" stroke:none;fill-rule:nonzero;fill:rgb(0%,0%,0%);fill-opacity:1;" d="M 2.183594 7.0625 L 2.183594 6.027344 M 2.371094 7.0625 L 2.371094 6.027344 M 2.558594 7.0625 L 2.558594 6.027344 M 2.746094 7.0625 L 2.746094 6.027344 M 2.9375 7.0625 L 2.9375 6.027344 M 3.121094 7.0625 L 3.121094 6.027344 "/>
</g>
</g>
<g clip-path="url(#clip25)" clip-rule="nonzero">
<g clip-path="url(#clip26)" clip-rule="nonzero">
<path style="fill:none;stroke-width:1.56;stroke-linecap:butt;stroke-linejoin:miter;stroke:rgb(22.352941%,30.196078%,32.941176%);stroke-opacity:1;stroke-miterlimit:4;" d="M 126.272963 21.976444 L 126.272963 5.474877 M 129.261926 21.976444 L 129.261926 5.474877 M 132.250889 21.976444 L 132.250889 5.474877 M 135.239852 21.976444 L 135.239852 5.474877 M 138.291085 21.976444 L 138.291085 5.474877 M 141.217778 21.976444 L 141.217778 5.474877 " transform="matrix(0.0627308,0,0,0.0627308,-5.737608,5.6839)"/>
</g>
</g>
<g clip-path="url(#clip27)" clip-rule="nonzero">
<g clip-path="url(#clip28)" clip-rule="nonzero">
<path style=" stroke:none;fill-rule:nonzero;fill:rgb(0%,67.45098%,82.745098%);fill-opacity:1;" d="M 3.464844 7.167969 L 4.710938 7.167969 L 4.710938 5.921875 L 3.464844 5.921875 Z M 3.464844 7.167969 "/>
</g>
</g>
<g clip-path="url(#clip29)" clip-rule="nonzero">
<g clip-path="url(#clip30)" clip-rule="nonzero">
<path style=" stroke:none;fill-rule:nonzero;fill:rgb(12.54902%,76.078431%,93.72549%);fill-opacity:1;" d="M 3.464844 5.730469 L 4.710938 5.730469 L 4.710938 4.488281 L 3.464844 4.488281 Z M 3.464844 5.730469 "/>
</g>
</g>
<g clip-path="url(#clip31)" clip-rule="nonzero">
<g clip-path="url(#clip32)" clip-rule="nonzero">
<path style=" stroke:none;fill-rule:nonzero;fill:rgb(0%,0%,0%);fill-opacity:1;" d="M 3.621094 6.027344 L 3.621094 7.0625 M 3.804688 6.027344 L 3.804688 7.0625 M 3.992188 6.027344 L 3.992188 7.0625 M 4.183594 6.027344 L 4.183594 7.0625 M 4.371094 6.027344 L 4.371094 7.0625 M 4.558594 6.027344 L 4.558594 7.0625 "/>
</g>
</g>
<g clip-path="url(#clip33)" clip-rule="nonzero">
<g clip-path="url(#clip34)" clip-rule="nonzero">
<path style="fill:none;stroke-width:1.56;stroke-linecap:butt;stroke-linejoin:miter;stroke:rgb(22.352941%,30.196078%,32.941176%);stroke-opacity:1;stroke-miterlimit:4;" d="M 126.322346 21.963774 L 126.322346 5.462207 M 129.249039 21.963774 L 129.249039 5.462207 M 132.238002 21.963774 L 132.238002 5.462207 M 135.289235 21.963774 L 135.289235 5.462207 M 138.278198 21.963774 L 138.278198 5.462207 M 141.267161 21.963774 L 141.267161 5.462207 " transform="matrix(0.0627308,0,0,-0.0627308,-4.303206,7.405149)"/>
</g>
</g>
<g clip-path="url(#clip35)" clip-rule="nonzero">
<g clip-path="url(#clip36)" clip-rule="nonzero">
<path style="fill-rule:nonzero;fill:rgb(0%,0%,0%);fill-opacity:1;stroke-width:1.56;stroke-linecap:butt;stroke-linejoin:miter;stroke:rgb(22.352941%,30.196078%,32.941176%);stroke-opacity:1;stroke-miterlimit:4;" d="M 126.322346 21.950887 L 126.322346 5.449321 M 129.249039 21.950887 L 129.249039 5.449321 M 132.238002 21.950887 L 132.238002 5.449321 M 135.289235 21.950887 L 135.289235 5.449321 M 138.278198 21.950887 L 138.278198 5.449321 M 141.267161 21.950887 L 141.267161 5.449321 " transform="matrix(0.0627308,0,0,-0.0627308,-4.303206,5.970746)"/>
</g>
</g>
<g clip-path="url(#clip37)" clip-rule="nonzero">
<g clip-path="url(#clip38)" clip-rule="nonzero">
<path style=" stroke:none;fill-rule:nonzero;fill:rgb(0%,67.45098%,82.745098%);fill-opacity:1;" d="M 4.902344 4.488281 L 6.144531 4.488281 L 6.144531 5.730469 L 4.902344 5.730469 Z M 4.902344 4.488281 "/>
</g>
</g>
<g clip-path="url(#clip39)" clip-rule="nonzero">
<g clip-path="url(#clip40)" clip-rule="nonzero">
<path style=" stroke:none;fill-rule:nonzero;fill:rgb(12.54902%,76.078431%,93.72549%);fill-opacity:1;" d="M 4.902344 5.921875 L 6.144531 5.921875 L 6.144531 7.167969 L 4.902344 7.167969 Z M 4.902344 5.921875 "/>
</g>
</g>
<g clip-path="url(#clip41)" clip-rule="nonzero">
<g clip-path="url(#clip42)" clip-rule="nonzero">
<path style=" stroke:none;fill-rule:nonzero;fill:rgb(0%,0%,0%);fill-opacity:1;" d="M 5.054688 5.628906 L 5.054688 4.59375 M 5.238281 5.628906 L 5.238281 4.59375 M 5.429688 5.628906 L 5.429688 4.59375 M 5.617188 5.628906 L 5.617188 4.59375 M 5.804688 5.628906 L 5.804688 4.59375 M 5.992188 5.628906 L 5.992188 4.59375 "/>
</g>
</g>
<g clip-path="url(#clip43)" clip-rule="nonzero">
<g clip-path="url(#clip44)" clip-rule="nonzero">
<path style="fill:none;stroke-width:1.56;stroke-linecap:butt;stroke-linejoin:miter;stroke:rgb(22.352941%,30.196078%,32.941176%);stroke-opacity:1;stroke-miterlimit:4;" d="M 126.309459 21.98933 L 126.309459 5.487764 M 129.236152 21.98933 L 129.236152 5.487764 M 132.287385 21.98933 L 132.287385 5.487764 M 135.276348 21.98933 L 135.276348 5.487764 M 138.265312 21.98933 L 138.265312 5.487764 M 141.254275 21.98933 L 141.254275 5.487764 " transform="matrix(0.0627308,0,0,0.0627308,-2.868804,4.249498)"/>
</g>
</g>
<g clip-path="url(#clip45)" clip-rule="nonzero">
<g clip-path="url(#clip46)" clip-rule="nonzero">
<path style=" stroke:none;fill-rule:nonzero;fill:rgb(0%,0%,0%);fill-opacity:1;" d="M 5.054688 7.0625 L 5.054688 6.027344 M 5.238281 7.0625 L 5.238281 6.027344 M 5.429688 7.0625 L 5.429688 6.027344 M 5.617188 7.0625 L 5.617188 6.027344 M 5.804688 7.0625 L 5.804688 6.027344 M 5.992188 7.0625 L 5.992188 6.027344 "/>
</g>
</g>
<g clip-path="url(#clip47)" clip-rule="nonzero">
<g clip-path="url(#clip48)" clip-rule="nonzero">
<path style="fill:none;stroke-width:1.56;stroke-linecap:butt;stroke-linejoin:miter;stroke:rgb(22.352941%,30.196078%,32.941176%);stroke-opacity:1;stroke-miterlimit:4;" d="M 126.309459 21.976444 L 126.309459 5.474877 M 129.236152 21.976444 L 129.236152 5.474877 M 132.287385 21.976444 L 132.287385 5.474877 M 135.276348 21.976444 L 135.276348 5.474877 M 138.265312 21.976444 L 138.265312 5.474877 M 141.254275 21.976444 L 141.254275 5.474877 " transform="matrix(0.0627308,0,0,0.0627308,-2.868804,5.6839)"/>
</g>
</g>
<g clip-path="url(#clip49)" clip-rule="nonzero">
<g clip-path="url(#clip50)" clip-rule="nonzero">
<path style=" stroke:none;fill-rule:nonzero;fill:rgb(0%,67.45098%,82.745098%);fill-opacity:1;" d="M 6.335938 7.167969 L 7.578125 7.167969 L 7.578125 5.921875 L 6.335938 5.921875 Z M 6.335938 7.167969 "/>
</g>
</g>
<g clip-path="url(#clip51)" clip-rule="nonzero">
<g clip-path="url(#clip52)" clip-rule="nonzero">
<path style=" stroke:none;fill-rule:nonzero;fill:rgb(12.54902%,76.078431%,93.72549%);fill-opacity:1;" d="M 6.335938 5.730469 L 7.578125 5.730469 L 7.578125 4.488281 L 6.335938 4.488281 Z M 6.335938 5.730469 "/>
</g>
</g>
<g clip-path="url(#clip53)" clip-rule="nonzero">
<g clip-path="url(#clip54)" clip-rule="nonzero">
<path style=" stroke:none;fill-rule:nonzero;fill:rgb(0%,0%,0%);fill-opacity:1;" d="M 6.488281 6.027344 L 6.488281 7.0625 M 6.675781 6.027344 L 6.675781 7.0625 M 6.863281 6.027344 L 6.863281 7.0625 M 7.050781 6.027344 L 7.050781 7.0625 M 7.238281 6.027344 L 7.238281 7.0625 M 7.425781 6.027344 L 7.425781 7.0625 "/>
</g>
</g>
<g clip-path="url(#clip55)" clip-rule="nonzero">
<g clip-path="url(#clip56)" clip-rule="nonzero">
<path style="fill:none;stroke-width:1.56;stroke-linecap:butt;stroke-linejoin:miter;stroke:rgb(22.352941%,30.196078%,32.941176%);stroke-opacity:1;stroke-miterlimit:4;" d="M 126.296573 21.963774 L 126.296573 5.462207 M 129.285536 21.963774 L 129.285536 5.462207 M 132.274499 21.963774 L 132.274499 5.462207 M 135.263462 21.963774 L 135.263462 5.462207 M 138.252425 21.963774 L 138.252425 5.462207 M 141.241388 21.963774 L 141.241388 5.462207 " transform="matrix(0.0627308,0,0,-0.0627308,-1.434402,7.405149)"/>
</g>
</g>
<g clip-path="url(#clip57)" clip-rule="nonzero">
<g clip-path="url(#clip58)" clip-rule="nonzero">
<path style="fill-rule:nonzero;fill:rgb(0%,0%,0%);fill-opacity:1;stroke-width:1.56;stroke-linecap:butt;stroke-linejoin:miter;stroke:rgb(22.352941%,30.196078%,32.941176%);stroke-opacity:1;stroke-miterlimit:4;" d="M 126.296573 21.950887 L 126.296573 5.449321 M 129.285536 21.950887 L 129.285536 5.449321 M 132.274499 21.950887 L 132.274499 5.449321 M 135.263462 21.950887 L 135.263462 5.449321 M 138.252425 21.950887 L 138.252425 5.449321 M 141.241388 21.950887 L 141.241388 5.449321 " transform="matrix(0.0627308,0,0,-0.0627308,-1.434402,5.970746)"/>
</g>
</g>
<g clip-path="url(#clip59)" clip-rule="nonzero">
<g clip-path="url(#clip60)" clip-rule="nonzero">
<path style=" stroke:none;fill-rule:nonzero;fill:rgb(0%,67.45098%,82.745098%);fill-opacity:1;" d="M 7.769531 4.488281 L 9.011719 4.488281 L 9.011719 5.730469 L 7.769531 5.730469 Z M 7.769531 4.488281 "/>
</g>
</g>
<g clip-path="url(#clip61)" clip-rule="nonzero">
<g clip-path="url(#clip62)" clip-rule="nonzero">
<path style=" stroke:none;fill-rule:nonzero;fill:rgb(12.54902%,76.078431%,93.72549%);fill-opacity:1;" d="M 7.769531 5.921875 L 9.011719 5.921875 L 9.011719 7.167969 L 7.769531 7.167969 Z M 7.769531 5.921875 "/>
</g>
</g>
<g clip-path="url(#clip63)" clip-rule="nonzero">
<g clip-path="url(#clip64)" clip-rule="nonzero">
<path style="fill-rule:nonzero;fill:rgb(0%,0%,0%);fill-opacity:1;stroke-width:1.56;stroke-linecap:butt;stroke-linejoin:miter;stroke:rgb(22.352941%,30.196078%,32.941176%);stroke-opacity:1;stroke-miterlimit:4;" d="M 126.283686 21.98933 L 126.283686 5.487764 M 129.272649 21.98933 L 129.272649 5.487764 M 132.261612 21.98933 L 132.261612 5.487764 M 135.250575 21.98933 L 135.250575 5.487764 M 138.301808 21.98933 L 138.301808 5.487764 M 141.228501 21.98933 L 141.228501 5.487764 " transform="matrix(0.0627308,0,0,0.0627308,0.000000148828,4.249498)"/>
</g>
</g>
<g clip-path="url(#clip65)" clip-rule="nonzero">
<g clip-path="url(#clip66)" clip-rule="nonzero">
<path style=" stroke:none;fill-rule:nonzero;fill:rgb(0%,0%,0%);fill-opacity:1;" d="M 7.921875 7.0625 L 7.921875 6.027344 M 8.109375 7.0625 L 8.109375 6.027344 M 8.296875 7.0625 L 8.296875 6.027344 M 8.484375 7.0625 L 8.484375 6.027344 M 8.675781 7.0625 L 8.675781 6.027344 M 8.859375 7.0625 L 8.859375 6.027344 "/>
</g>
</g>
<g clip-path="url(#clip67)" clip-rule="nonzero">
<g clip-path="url(#clip68)" clip-rule="nonzero">
<path style="fill:none;stroke-width:1.56;stroke-linecap:butt;stroke-linejoin:miter;stroke:rgb(22.352941%,30.196078%,32.941176%);stroke-opacity:1;stroke-miterlimit:4;" d="M 126.283686 21.976444 L 126.283686 5.474877 M 129.272649 21.976444 L 129.272649 5.474877 M 132.261612 21.976444 L 132.261612 5.474877 M 135.250575 21.976444 L 135.250575 5.474877 M 138.301808 21.976444 L 138.301808 5.474877 M 141.228501 21.976444 L 141.228501 5.474877 " transform="matrix(0.0627308,0,0,0.0627308,0.000000148828,5.6839)"/>
</g>
</g>
<g clip-path="url(#clip69)" clip-rule="nonzero">
<g clip-path="url(#clip70)" clip-rule="nonzero">
<path style=" stroke:none;fill-rule:nonzero;fill:rgb(0%,67.45098%,82.745098%);fill-opacity:1;" d="M 9.203125 7.167969 L 10.449219 7.167969 L 10.449219 5.921875 L 9.203125 5.921875 Z M 9.203125 7.167969 "/>
</g>
</g>
<g clip-path="url(#clip71)" clip-rule="nonzero">
<g clip-path="url(#clip72)" clip-rule="nonzero">
<path style=" stroke:none;fill-rule:nonzero;fill:rgb(12.54902%,76.078431%,93.72549%);fill-opacity:1;" d="M 9.203125 5.730469 L 10.449219 5.730469 L 10.449219 4.488281 L 9.203125 4.488281 Z M 9.203125 5.730469 "/>
</g>
</g>
<g clip-path="url(#clip73)" clip-rule="nonzero">
<g clip-path="url(#clip74)" clip-rule="nonzero">
<path style=" stroke:none;fill-rule:nonzero;fill:rgb(0%,0%,0%);fill-opacity:1;" d="M 9.355469 6.027344 L 9.355469 7.0625 M 9.542969 6.027344 L 9.542969 7.0625 M 9.730469 6.027344 L 9.730469 7.0625 M 9.921875 6.027344 L 9.921875 7.0625 M 10.109375 6.027344 L 10.109375 7.0625 M 10.292969 6.027344 L 10.292969 7.0625 "/>
</g>
</g>
<g clip-path="url(#clip75)" clip-rule="nonzero">
<g clip-path="url(#clip76)" clip-rule="nonzero">
<path style="fill:none;stroke-width:1.56;stroke-linecap:butt;stroke-linejoin:miter;stroke:rgb(22.352941%,30.196078%,32.941176%);stroke-opacity:1;stroke-miterlimit:4;" d="M 126.270799 21.963774 L 126.270799 5.462207 M 129.259762 21.963774 L 129.259762 5.462207 M 132.248725 21.963774 L 132.248725 5.462207 M 135.299958 21.963774 L 135.299958 5.462207 M 138.288921 21.963774 L 138.288921 5.462207 M 141.215614 21.963774 L 141.215614 5.462207 " transform="matrix(0.0627308,0,0,-0.0627308,1.434402,7.405149)"/>
</g>
</g>
<g clip-path="url(#clip77)" clip-rule="nonzero">
<g clip-path="url(#clip78)" clip-rule="nonzero">
<path style="fill-rule:nonzero;fill:rgb(0%,0%,0%);fill-opacity:1;stroke-width:1.56;stroke-linecap:butt;stroke-linejoin:miter;stroke:rgb(22.352941%,30.196078%,32.941176%);stroke-opacity:1;stroke-miterlimit:4;" d="M 126.270799 21.950887 L 126.270799 5.449321 M 129.259762 21.950887 L 129.259762 5.449321 M 132.248725 21.950887 L 132.248725 5.449321 M 135.299958 21.950887 L 135.299958 5.449321 M 138.288921 21.950887 L 138.288921 5.449321 M 141.215614 21.950887 L 141.215614 5.449321 " transform="matrix(0.0627308,0,0,-0.0627308,1.434402,5.970746)"/>
</g>
</g>
<g clip-path="url(#clip79)" clip-rule="nonzero">
<g clip-path="url(#clip80)" clip-rule="nonzero">
<path style=" stroke:none;fill-rule:nonzero;fill:rgb(9.019608%,70.980392%,92.156863%);fill-opacity:1;" d="M 13.898438 6.226562 C 13.996094 5.480469 13.4375 4.890625 13.089844 4.613281 C 12.6875 5.074219 12.628906 6.285156 13.253906 6.796875 C 12.90625 7.109375 12.167969 7.390625 11.410156 7.390625 L 2.132812 7.390625 C 2.058594 8.175781 2.132812 11.972656 2.132812 11.972656 L 15.746094 11.972656 L 15.683594 6.238281 C 15.09375 5.898438 14.335938 6.007812 13.898438 6.226562 "/>
</g>
</g>
<g clip-path="url(#clip81)" clip-rule="nonzero">
<g clip-path="url(#clip82)" clip-rule="nonzero">
<path style=" stroke:none;fill-rule:nonzero;fill:rgb(0%,0%,0%);fill-opacity:0.168627;" d="M 2.132812 8.398438 L 2.132812 11.972656 L 15.746094 11.972656 L 15.746094 8.398438 "/>
</g>
</g>
<g clip-path="url(#clip83)" clip-rule="nonzero">
<g clip-path="url(#clip84)" clip-rule="nonzero">
<path style=" stroke:none;fill-rule:nonzero;fill:rgb(83.137255%,92.941176%,94.509804%);fill-opacity:1;" d="M 6.976562 11.652344 C 6.128906 11.25 5.664062 10.703125 5.402344 10.105469 L 2.824219 10.21875 L 4.140625 11.972656 L 6.976562 11.652344 "/>
</g>
</g>
<g clip-path="url(#clip85)" clip-rule="nonzero">
<g clip-path="url(#clip86)" clip-rule="nonzero">
<path style=" stroke:none;fill-rule:nonzero;fill:rgb(0%,0%,0%);fill-opacity:0.0862745;" d="M 13.957031 6.199219 C 12.648438 7.886719 10.773438 9.359375 8.757812 10.136719 C 6.960938 10.824219 5.390625 10.828125 4.3125 10.273438 C 4.195312 10.207031 4.082031 10.136719 3.964844 10.066406 C 3.171875 9.511719 2.726562 8.597656 2.765625 7.390625 L 2.132812 7.390625 L 2.132812 11.972656 L 15.746094 11.972656 L 15.746094 5.953125 L 14.175781 5.953125 Z M 13.957031 6.199219 "/>
</g>
</g>
<path style="fill:none;stroke-width:0.628;stroke-linecap:round;stroke-linejoin:miter;stroke:rgb(22.352941%,30.196078%,32.941176%);stroke-opacity:1;stroke-miterlimit:4;" d="M 11.499039 9.612102 C 14.10925 9.761585 16.903441 9.784583 19.341171 9.014168 " transform="matrix(0.339711,0,0,0.339711,-1.043074,6.890909)"/>
<path style=" stroke:none;fill-rule:nonzero;fill:rgb(83.137255%,92.941176%,94.509804%);fill-opacity:1;" d="M 6.410156 9.523438 C 6.410156 9.714844 6.253906 9.867188 6.066406 9.867188 C 5.878906 9.867188 5.722656 9.714844 5.722656 9.523438 C 5.722656 9.335938 5.875 9.179688 6.066406 9.179688 C 6.253906 9.183594 6.410156 9.335938 6.410156 9.523438 Z M 6.410156 9.523438 "/>
<path style=" stroke:none;fill-rule:nonzero;fill:rgb(22.352941%,30.196078%,32.941176%);fill-opacity:1;" d="M 6.160156 9.296875 C 6.128906 9.3125 6.109375 9.34375 6.109375 9.382812 C 6.109375 9.4375 6.152344 9.484375 6.207031 9.484375 C 6.246094 9.484375 6.277344 9.460938 6.296875 9.429688 C 6.308594 9.460938 6.316406 9.492188 6.316406 9.523438 C 6.316406 9.660156 6.207031 9.769531 6.070312 9.769531 C 5.933594 9.769531 5.824219 9.660156 5.824219 9.523438 C 5.824219 9.390625 5.933594 9.28125 6.070312 9.28125 C 6.101562 9.28125 6.128906 9.285156 6.160156 9.296875 Z M 0 8.46875 L 15.953125 8.46875 C 15.605469 8.382812 14.855469 8.265625 14.980469 7.808594 C 14.347656 8.539062 12.824219 8.316406 12.441406 7.960938 C 12.011719 8.582031 9.519531 8.34375 9.34375 7.859375 C 8.808594 8.488281 7.144531 8.488281 6.609375 7.859375 C 6.433594 8.34375 3.941406 8.578125 3.519531 7.960938 C 3.128906 8.316406 1.605469 8.539062 0.976562 7.808594 C 1.097656 8.261719 0.347656 8.386719 0 8.46875 "/>
</g>
</svg>
