<?xml version="1.0" encoding="UTF-8"?>
<svg xmlns="http://www.w3.org/2000/svg" xmlns:xlink="http://www.w3.org/1999/xlink" width="15px" height="15px" viewBox="0 0 15 15" version="1.1">
<g id="surface1">
<path style=" stroke:none;fill-rule:nonzero;fill:rgb(0%,51.764706%,100%);fill-opacity:1;" d="M 9.75 0.304688 L 2.804688 0.304688 C 2.152344 0.304688 1.621094 0.835938 1.621094 1.488281 L 1.621094 13.511719 C 1.621094 14.164062 2.152344 14.695312 2.804688 14.695312 L 12.195312 14.695312 C 12.847656 14.695312 13.378906 14.164062 13.378906 13.511719 L 13.378906 3.933594 Z M 9.75 0.304688 "/>
<path style=" stroke:none;fill-rule:nonzero;fill:rgb(6.27451%,72.941176%,98.823529%);fill-opacity:1;" d="M 10.933594 3.933594 L 13.378906 3.933594 L 9.75 0.304688 L 9.75 2.75 C 9.75 3.402344 10.277344 3.933594 10.933594 3.933594 Z M 10.933594 3.933594 "/>
<path style=" stroke:none;fill-rule:nonzero;fill:rgb(0%,0%,0%);fill-opacity:1;" d="M 13.59375 3.714844 L 9.964844 0.0898438 C 9.910156 0.03125 9.832031 0 9.75 0 L 2.804688 0 C 1.984375 0 1.316406 0.667969 1.316406 1.488281 L 1.316406 13.511719 C 1.316406 14.332031 1.984375 15 2.804688 15 L 12.195312 15 C 13.015625 15 13.683594 14.332031 13.683594 13.511719 L 13.683594 3.933594 C 13.683594 3.851562 13.652344 3.773438 13.59375 3.714844 Z M 10.054688 1.046875 L 12.636719 3.628906 L 10.933594 3.628906 C 10.699219 3.628906 10.476562 3.535156 10.3125 3.371094 C 10.148438 3.207031 10.054688 2.984375 10.054688 2.75 Z M 12.195312 14.386719 L 2.804688 14.386719 C 2.320312 14.386719 1.929688 13.996094 1.929688 13.511719 L 1.929688 1.488281 C 1.929688 1.003906 2.320312 0.613281 2.804688 0.613281 L 9.445312 0.613281 L 9.445312 2.75 C 9.445312 3.148438 9.597656 3.523438 9.878906 3.804688 C 10.160156 4.085938 10.535156 4.238281 10.933594 4.238281 L 13.070312 4.238281 L 13.070312 13.511719 C 13.070312 13.996094 12.679688 14.386719 12.195312 14.386719 Z M 12.195312 14.386719 "/>
<path style=" stroke:none;fill-rule:nonzero;fill:rgb(0%,0%,0%);fill-opacity:1;" d="M 8.058594 10.296875 L 7.921875 10.296875 C 7.753906 10.296875 7.617188 10.433594 7.617188 10.605469 C 7.617188 10.773438 7.753906 10.910156 7.921875 10.910156 L 8.058594 10.910156 C 8.226562 10.910156 8.367188 10.773438 8.367188 10.605469 C 8.367188 10.433594 8.226562 10.296875 8.058594 10.296875 Z M 8.058594 10.296875 "/>
<path style=" stroke:none;fill-rule:nonzero;fill:rgb(0%,0%,0%);fill-opacity:1;" d="M 6.933594 10.296875 L 3.957031 10.296875 C 3.789062 10.296875 3.652344 10.433594 3.652344 10.605469 C 3.652344 10.773438 3.789062 10.910156 3.957031 10.910156 L 6.933594 10.910156 C 7.101562 10.910156 7.238281 10.773438 7.238281 10.605469 C 7.238281 10.433594 7.101562 10.296875 6.933594 10.296875 Z M 6.933594 10.296875 "/>
<path style=" stroke:none;fill-rule:nonzero;fill:rgb(0%,0%,0%);fill-opacity:1;" d="M 11.042969 8.898438 L 3.957031 8.898438 C 3.789062 8.898438 3.652344 9.035156 3.652344 9.203125 C 3.652344 9.375 3.789062 9.511719 3.957031 9.511719 L 11.042969 9.511719 C 11.210938 9.511719 11.347656 9.375 11.347656 9.203125 C 11.347656 9.035156 11.210938 8.898438 11.042969 8.898438 Z M 11.042969 8.898438 "/>
<path style=" stroke:none;fill-rule:nonzero;fill:rgb(0%,0%,0%);fill-opacity:1;" d="M 11.042969 7.5 L 3.957031 7.5 C 3.789062 7.5 3.652344 7.636719 3.652344 7.804688 C 3.652344 7.976562 3.789062 8.113281 3.957031 8.113281 L 11.042969 8.113281 C 11.210938 8.113281 11.347656 7.976562 11.347656 7.804688 C 11.347656 7.636719 11.210938 7.5 11.042969 7.5 Z M 11.042969 7.5 "/>
<path style=" stroke:none;fill-rule:nonzero;fill:rgb(0%,0%,0%);fill-opacity:1;" d="M 11.042969 6.101562 L 3.957031 6.101562 C 3.789062 6.101562 3.652344 6.238281 3.652344 6.40625 C 3.652344 6.578125 3.789062 6.714844 3.957031 6.714844 L 11.042969 6.714844 C 11.210938 6.714844 11.347656 6.578125 11.347656 6.40625 C 11.347656 6.238281 11.210938 6.101562 11.042969 6.101562 Z M 11.042969 6.101562 "/>
</g>
</svg>
