<?xml version="1.0" encoding="UTF-8"?>
<svg xmlns="http://www.w3.org/2000/svg" xmlns:xlink="http://www.w3.org/1999/xlink" width="15px" height="15px" viewBox="0 0 15 15" version="1.1">
<g id="surface1">
<path style=" stroke:none;fill-rule:nonzero;fill:rgb(0%,67.45098%,84.313725%);fill-opacity:1;" d="M 1.125 6.398438 C 1.101562 6.398438 1.078125 6.375 1.101562 6.351562 L 1.265625 6.164062 C 1.289062 6.140625 1.3125 6.117188 1.335938 6.117188 L 3.9375 6.117188 C 3.960938 6.117188 3.984375 6.140625 3.960938 6.164062 L 3.84375 6.351562 C 3.820312 6.375 3.796875 6.398438 3.773438 6.398438 Z M 0.0234375 7.078125 C 0 7.078125 0 7.054688 0 7.03125 L 0.164062 6.84375 C 0.164062 6.820312 0.210938 6.796875 0.234375 6.796875 L 3.5625 6.796875 C 3.585938 6.796875 3.609375 6.820312 3.609375 6.84375 L 3.5625 7.007812 C 3.5625 7.03125 3.515625 7.054688 3.492188 7.054688 Z M 1.804688 7.734375 C 1.78125 7.734375 1.757812 7.710938 1.78125 7.6875 L 1.875 7.523438 C 1.898438 7.5 1.921875 7.476562 1.945312 7.476562 L 3.398438 7.476562 C 3.421875 7.476562 3.445312 7.5 3.445312 7.523438 L 3.421875 7.6875 C 3.421875 7.710938 3.398438 7.734375 3.375 7.734375 Z M 9.375 6.257812 L 8.15625 6.585938 C 8.039062 6.609375 8.039062 6.632812 7.945312 6.515625 C 7.828125 6.398438 7.757812 6.304688 7.59375 6.234375 C 7.125 6 6.679688 6.070312 6.28125 6.351562 C 5.789062 6.679688 5.53125 7.148438 5.53125 7.734375 C 5.53125 8.320312 5.929688 8.789062 6.515625 8.882812 C 7.007812 8.953125 7.429688 8.765625 7.757812 8.390625 C 7.828125 8.320312 7.875 8.226562 7.945312 8.109375 L 6.539062 8.109375 C 6.375 8.109375 6.351562 8.015625 6.398438 7.898438 C 6.492188 7.664062 6.679688 7.289062 6.773438 7.101562 C 6.796875 7.054688 6.84375 6.984375 6.960938 6.984375 L 9.609375 6.984375 C 9.585938 7.171875 9.585938 7.382812 9.5625 7.570312 C 9.492188 8.085938 9.28125 8.578125 8.953125 9 C 8.4375 9.703125 7.734375 10.125 6.867188 10.242188 C 6.140625 10.335938 5.484375 10.195312 4.898438 9.75 C 4.359375 9.351562 4.054688 8.789062 3.960938 8.132812 C 3.867188 7.335938 4.101562 6.632812 4.570312 6 C 5.085938 5.320312 5.765625 4.898438 6.609375 4.734375 C 7.289062 4.617188 7.945312 4.6875 8.554688 5.085938 C 8.953125 5.34375 9.210938 5.695312 9.398438 6.117188 C 9.492188 6.210938 9.46875 6.234375 9.375 6.257812 Z M 9.375 6.257812 "/>
<path style=" stroke:none;fill-rule:nonzero;fill:rgb(0%,67.45098%,84.313725%);fill-opacity:1;" d="M 11.789062 10.3125 C 11.132812 10.289062 10.523438 10.101562 10.007812 9.679688 C 9.585938 9.304688 9.304688 8.835938 9.210938 8.273438 C 9.070312 7.453125 9.304688 6.726562 9.796875 6.070312 C 10.335938 5.367188 10.96875 5.015625 11.835938 4.851562 C 12.585938 4.710938 13.289062 4.804688 13.921875 5.226562 C 14.507812 5.625 14.859375 6.164062 14.953125 6.84375 C 15.070312 7.828125 14.789062 8.625 14.109375 9.328125 C 13.617188 9.820312 13.03125 10.125 12.351562 10.265625 C 12.1875 10.265625 11.976562 10.289062 11.789062 10.3125 Z M 13.523438 7.359375 C 13.523438 7.265625 13.523438 7.195312 13.5 7.125 C 13.359375 6.398438 12.703125 6 12 6.164062 C 11.320312 6.328125 10.875 6.75 10.710938 7.429688 C 10.570312 7.992188 10.851562 8.578125 11.390625 8.8125 C 11.789062 8.976562 12.1875 8.976562 12.585938 8.765625 C 13.171875 8.4375 13.5 7.96875 13.523438 7.359375 Z M 13.523438 7.359375 "/>
</g>
</svg>
