<?xml version="1.0" encoding="UTF-8"?>
<svg xmlns="http://www.w3.org/2000/svg" xmlns:xlink="http://www.w3.org/1999/xlink" width="16px" height="16px" viewBox="0 0 16 16" version="1.1">
<defs>
<linearGradient id="linear0" gradientUnits="userSpaceOnUse" x1="29.249" y1="296.578" x2="17.254" y2="312.202" gradientTransform="matrix(0.225101,0,0,0.225101,-2.514429,-63.456564)">
<stop offset="0" style="stop-color:rgb(0%,0%,0%);stop-opacity:1;"/>
<stop offset="1" style="stop-color:rgb(39.215686%,39.215686%,39.215686%);stop-opacity:1;"/>
</linearGradient>
<radialGradient id="radial0" gradientUnits="userSpaceOnUse" cx="-90.961" cy="126.119" fx="-90.961" fy="126.119" r="134.257" gradientTransform="matrix(0.283018,-0.273104,0.266952,0.276643,0.263969,-48.030413)">
<stop offset="0" style="stop-color:rgb(0%,0%,0%);stop-opacity:1;"/>
<stop offset="1" style="stop-color:rgb(99.607843%,100%,100%);stop-opacity:1;"/>
</radialGradient>
<linearGradient id="linear1" gradientUnits="userSpaceOnUse" x1="67.599" y1="318.895" x2="69.793" y2="298.282" gradientTransform="matrix(0.225101,0,0,0.225101,-2.514429,-63.456564)">
<stop offset="0" style="stop-color:rgb(0%,0%,0%);stop-opacity:1;"/>
<stop offset="1" style="stop-color:rgb(0%,47.058824%,100%);stop-opacity:1;"/>
</linearGradient>
<linearGradient id="linear2" gradientUnits="userSpaceOnUse" x1="75.674" y1="294.137" x2="82.146" y2="303.404" gradientTransform="matrix(0.225101,0,0,0.225101,-2.514429,-63.456564)">
<stop offset="0" style="stop-color:rgb(0%,0%,0%);stop-opacity:1;"/>
<stop offset="1" style="stop-color:rgb(39.215686%,39.215686%,39.215686%);stop-opacity:1;"/>
</linearGradient>
<linearGradient id="linear3" gradientUnits="userSpaceOnUse" x1="26.455" y1="318.895" x2="24.261" y2="298.282" gradientTransform="matrix(0.225101,0,0,0.225101,-2.514429,-63.456564)">
<stop offset="0" style="stop-color:rgb(0%,0%,0%);stop-opacity:1;"/>
<stop offset="1" style="stop-color:rgb(0%,47.058824%,100%);stop-opacity:1;"/>
</linearGradient>
</defs>
<g id="surface1">
<path style=" stroke:none;fill-rule:nonzero;fill:url(#linear0);" d="M 2.855469 4.035156 C 1.742188 4.027344 0.445312 4.886719 0.0703125 5.773438 C 0.230469 5.730469 0.394531 5.695312 0.5625 5.65625 C 0.914062 5.441406 1.335938 5.371094 1.898438 5.433594 C 1.910156 5.429688 1.921875 5.429688 1.933594 5.425781 C 1.933594 5.425781 1.929688 5.421875 1.929688 5.417969 C 1.929688 5.363281 2.089844 5.125 2.28125 4.882812 L 2.628906 4.445312 L 3.292969 4.863281 C 3.953125 5.28125 4.320312 5.265625 4.472656 4.816406 C 4.542969 4.601562 3.378906 4.039062 2.855469 4.035156 Z M 2.855469 4.035156 "/>
<path style=" stroke:none;fill-rule:nonzero;fill:url(#radial0);" d="M 0.101562 7.105469 C 0.4375 7.347656 0.582031 7.976562 0.789062 8.652344 C 1.191406 9.96875 1.523438 10.394531 2.371094 10.679688 C 3.089844 10.921875 5.019531 10.894531 5.636719 10.636719 C 6.128906 10.433594 6.730469 10.007812 7.144531 8.90625 C 7.324219 8.269531 7.335938 7.5625 8.023438 7.394531 C 8.449219 7.496094 8.636719 7.585938 8.882812 8.503906 C 9.148438 9.511719 9.800781 10.371094 10.488281 10.621094 C 11.332031 10.804688 11.480469 10.882812 12.320312 10.851562 C 14.144531 10.707031 14.835938 10.378906 15.339844 8.429688 C 15.476562 7.894531 15.71875 7.292969 15.878906 7.089844 C 16.027344 6.683594 16.003906 6.132812 15.972656 5.621094 C 15.203125 5.425781 14.644531 5.382812 14.195312 5.503906 C 14.144531 5.570312 13.5 5.640625 12.71875 5.660156 C 11.90625 5.683594 10.539062 5.804688 9.679688 5.9375 C 8.261719 6.152344 7.949219 6.15625 6.347656 5.941406 C 5.375 5.8125 3.980469 5.664062 3.25 5.613281 C 2.558594 5.566406 1.984375 5.484375 1.929688 5.429688 L 1.894531 5.433594 C 1.332031 5.371094 0.910156 5.441406 0.558594 5.660156 C 0.394531 5.695312 0.230469 5.734375 0.0664062 5.773438 C -0.03125 6.273438 -0.03125 6.640625 0.0976562 7.109375 Z M 0.101562 7.105469 "/>
<path style=" stroke:none;fill-rule:nonzero;fill:url(#linear1);" d="M 9.488281 8.148438 C 9.835938 10.25 10.160156 10.183594 12.449219 10.339844 C 14.40625 10.375 14.769531 9.679688 14.980469 8.066406 C 14.910156 6.359375 14.492188 5.972656 12.554688 6.1875 C 10.121094 6.457031 9.113281 6.347656 9.492188 8.148438 Z M 9.488281 8.148438 "/>
<path style=" stroke:none;fill-rule:nonzero;fill:url(#linear2);" d="M 13.332031 4.058594 C 12.988281 4.0625 12.644531 4.125 12.3125 4.253906 C 11.609375 4.519531 11.46875 4.773438 11.847656 5.085938 C 12.019531 5.226562 12.191406 5.183594 12.679688 4.875 C 13.015625 4.664062 13.359375 4.488281 13.4375 4.488281 C 13.597656 4.488281 14.210938 5.289062 14.207031 5.496094 C 14.207031 5.5 14.207031 5.5 14.203125 5.503906 C 14.652344 5.382812 15.210938 5.425781 15.984375 5.621094 C 15.792969 5.238281 15.453125 4.863281 14.976562 4.550781 C 14.492188 4.226562 13.921875 4.054688 13.335938 4.058594 Z M 13.332031 4.058594 "/>
<path style=" stroke:none;fill-rule:nonzero;fill:url(#linear3);" d="M 6.652344 8.148438 C 6.308594 10.25 5.984375 10.183594 3.695312 10.339844 C 1.738281 10.375 1.375 9.679688 1.164062 8.066406 C 1.230469 6.359375 1.652344 5.972656 3.589844 6.1875 C 6.019531 6.457031 7.03125 6.347656 6.652344 8.148438 Z M 6.652344 8.148438 "/>
</g>
</svg>
