<?xml version="1.0" encoding="UTF-8"?>
<svg xmlns="http://www.w3.org/2000/svg" xmlns:xlink="http://www.w3.org/1999/xlink" width="15px" height="15px" viewBox="0 0 15 15" version="1.1">
<g id="surface1">
<path style=" stroke:none;fill-rule:nonzero;fill:rgb(26.666667%,42.352941%,66.27451%);fill-opacity:1;" d="M 2.140625 9.992188 L 0.0117188 9.992188 L 0.0117188 15 L 4.996094 15 L 4.996094 12.847656 L 2.140625 12.847656 Z M 12.859375 10.015625 L 12.859375 12.847656 L 10.003906 12.847656 L 10.003906 12.824219 L 10.003906 15 L 14.988281 15 L 14.988281 9.992188 L 12.835938 9.992188 Z M 0.0117188 5.007812 L 2.164062 5.007812 L 2.140625 4.984375 L 2.140625 2.152344 L 4.996094 2.152344 L 4.996094 0 L 0.0117188 0 Z M 10.003906 0 L 10.003906 2.152344 L 12.859375 2.152344 L 12.859375 5.007812 L 14.988281 5.007812 L 14.988281 0 Z M 10.003906 0 "/>
<path style=" stroke:none;fill-rule:nonzero;fill:rgb(46.27451%,76.862745%,83.529412%);fill-opacity:1;" d="M 9.722656 5.007812 L 6.867188 2.152344 L 10.003906 2.152344 L 10.003906 0 L 4.996094 0 L 4.996094 2.152344 L 7.851562 5.007812 Z M 7.148438 9.992188 L 5.277344 9.992188 L 7.640625 12.355469 L 8.109375 12.847656 L 4.996094 12.847656 L 4.996094 15 L 10.003906 15 L 10.003906 12.824219 L 8.578125 11.417969 Z M 12.859375 5.007812 L 12.859375 8.121094 L 10.003906 5.265625 L 10.003906 7.160156 L 11.40625 8.566406 L 12.835938 9.992188 L 14.988281 9.992188 L 14.988281 5.007812 Z M 4.996094 7.839844 L 2.164062 5.007812 L 0.0117188 5.007812 L 0.0117188 9.992188 L 2.140625 9.992188 L 2.140625 6.878906 L 4.996094 9.734375 Z M 4.996094 7.839844 "/>
</g>
</svg>
