<?xml version="1.0" encoding="UTF-8"?>
<svg xmlns="http://www.w3.org/2000/svg" xmlns:xlink="http://www.w3.org/1999/xlink" width="15px" height="15px" viewBox="0 0 15 15" version="1.1">
<g id="surface1">
<path style=" stroke:none;fill-rule:nonzero;fill:rgb(2.352941%,42.745098%,64.705882%);fill-opacity:1;" d="M 2.25 0 L 12.75 0 C 13.992188 0 15 1.007812 15 2.25 L 15 12.75 C 15 13.992188 13.992188 15 12.75 15 L 2.25 15 C 1.007812 15 0 13.992188 0 12.75 L 0 2.25 C 0 1.007812 1.007812 0 2.25 0 Z M 2.25 0 "/>
<defs>
<clipPath id="clip1">
  <path d="M 7 2 L 9 2 L 9 3 L 7 3 Z M 7 2 "/>
</clipPath>
<clipPath id="clip2">
  <path d="M 4.46875 2.757812 L 4.46875 5.460938 L 3.175781 5.460938 L 3.175781 6.816406 L 2.09375 6.816406 L 2.082031 6.933594 C 2.011719 7.667969 2.140625 8.347656 2.4375 8.929688 L 2.535156 9.109375 C 2.59375 9.214844 2.664062 9.316406 2.738281 9.414062 C 2.8125 9.511719 2.835938 9.566406 2.882812 9.628906 C 3.664062 10.507812 4.828125 10.929688 6.175781 10.929688 C 9.152344 10.929688 11.679688 9.613281 12.800781 6.648438 C 13.59375 6.730469 14.355469 6.523438 14.703125 5.847656 C 14.148438 5.527344 13.4375 5.632812 13.03125 5.835938 L 14.113281 2.757812 L 9.878906 5.460938 L 8.527344 5.460938 L 8.527344 2.757812 Z M 4.46875 2.757812 "/>
</clipPath>
<clipPath id="clip3">
  <path d="M 7 2 L 9 2 L 9 5 L 7 5 Z M 7 2 "/>
</clipPath>
<clipPath id="clip4">
  <path d="M 4.46875 2.757812 L 4.46875 5.460938 L 3.175781 5.460938 L 3.175781 6.816406 L 2.09375 6.816406 L 2.082031 6.933594 C 2.011719 7.667969 2.140625 8.347656 2.4375 8.929688 L 2.535156 9.109375 C 2.59375 9.214844 2.664062 9.316406 2.738281 9.414062 C 2.8125 9.511719 2.835938 9.566406 2.882812 9.628906 C 3.664062 10.507812 4.828125 10.929688 6.175781 10.929688 C 9.152344 10.929688 11.679688 9.613281 12.800781 6.648438 C 13.59375 6.730469 14.355469 6.523438 14.703125 5.847656 C 14.148438 5.527344 13.4375 5.632812 13.03125 5.835938 L 14.113281 2.757812 L 9.878906 5.460938 L 8.527344 5.460938 L 8.527344 2.757812 Z M 4.46875 2.757812 "/>
</clipPath>
<clipPath id="clip5">
  <path d="M 7 2 L 9 2 L 9 3 L 7 3 Z M 7 2 "/>
</clipPath>
<clipPath id="clip6">
  <path d="M 4.46875 2.757812 L 4.46875 5.460938 L 3.175781 5.460938 L 3.175781 6.816406 L 2.09375 6.816406 L 2.082031 6.933594 C 2.011719 7.667969 2.140625 8.347656 2.4375 8.929688 L 2.535156 9.109375 C 2.59375 9.214844 2.664062 9.316406 2.738281 9.414062 C 2.8125 9.511719 2.835938 9.566406 2.882812 9.628906 C 3.664062 10.507812 4.828125 10.929688 6.175781 10.929688 C 9.152344 10.929688 11.679688 9.613281 12.800781 6.648438 C 13.59375 6.730469 14.355469 6.523438 14.703125 5.847656 C 14.148438 5.527344 13.4375 5.632812 13.03125 5.835938 L 14.113281 2.757812 L 9.878906 5.460938 L 8.527344 5.460938 L 8.527344 2.757812 Z M 4.46875 2.757812 "/>
</clipPath>
<clipPath id="clip7">
  <path d="M 7 2 L 9 2 L 9 4 L 7 4 Z M 7 2 "/>
</clipPath>
<clipPath id="clip8">
  <path d="M 4.46875 2.757812 L 4.46875 5.460938 L 3.175781 5.460938 L 3.175781 6.816406 L 2.09375 6.816406 L 2.082031 6.933594 C 2.011719 7.667969 2.140625 8.347656 2.4375 8.929688 L 2.535156 9.109375 C 2.59375 9.214844 2.664062 9.316406 2.738281 9.414062 C 2.8125 9.511719 2.835938 9.566406 2.882812 9.628906 C 3.664062 10.507812 4.828125 10.929688 6.175781 10.929688 C 9.152344 10.929688 11.679688 9.613281 12.800781 6.648438 C 13.59375 6.730469 14.355469 6.523438 14.703125 5.847656 C 14.148438 5.527344 13.4375 5.632812 13.03125 5.835938 L 14.113281 2.757812 L 9.878906 5.460938 L 8.527344 5.460938 L 8.527344 2.757812 Z M 4.46875 2.757812 "/>
</clipPath>
<clipPath id="clip9">
  <path d="M 8 2 L 10 2 L 10 5 L 8 5 Z M 8 2 "/>
</clipPath>
<clipPath id="clip10">
  <path d="M 4.46875 2.757812 L 4.46875 5.460938 L 3.175781 5.460938 L 3.175781 6.816406 L 2.09375 6.816406 L 2.082031 6.933594 C 2.011719 7.667969 2.140625 8.347656 2.4375 8.929688 L 2.535156 9.109375 C 2.59375 9.214844 2.664062 9.316406 2.738281 9.414062 C 2.8125 9.511719 2.835938 9.566406 2.882812 9.628906 C 3.664062 10.507812 4.828125 10.929688 6.175781 10.929688 C 9.152344 10.929688 11.679688 9.613281 12.800781 6.648438 C 13.59375 6.730469 14.355469 6.523438 14.703125 5.847656 C 14.148438 5.527344 13.4375 5.632812 13.03125 5.835938 L 14.113281 2.757812 L 9.878906 5.460938 L 8.527344 5.460938 L 8.527344 2.757812 Z M 4.46875 2.757812 "/>
</clipPath>
<clipPath id="clip11">
  <path d="M 8 2 L 10 2 L 10 3 L 8 3 Z M 8 2 "/>
</clipPath>
<clipPath id="clip12">
  <path d="M 4.46875 2.757812 L 4.46875 5.460938 L 3.175781 5.460938 L 3.175781 6.816406 L 2.09375 6.816406 L 2.082031 6.933594 C 2.011719 7.667969 2.140625 8.347656 2.4375 8.929688 L 2.535156 9.109375 C 2.59375 9.214844 2.664062 9.316406 2.738281 9.414062 C 2.8125 9.511719 2.835938 9.566406 2.882812 9.628906 C 3.664062 10.507812 4.828125 10.929688 6.175781 10.929688 C 9.152344 10.929688 11.679688 9.613281 12.800781 6.648438 C 13.59375 6.730469 14.355469 6.523438 14.703125 5.847656 C 14.148438 5.527344 13.4375 5.632812 13.03125 5.835938 L 14.113281 2.757812 L 9.878906 5.460938 L 8.527344 5.460938 L 8.527344 2.757812 Z M 4.46875 2.757812 "/>
</clipPath>
<clipPath id="clip13">
  <path d="M 8 2 L 10 2 L 10 4 L 8 4 Z M 8 2 "/>
</clipPath>
<clipPath id="clip14">
  <path d="M 4.46875 2.757812 L 4.46875 5.460938 L 3.175781 5.460938 L 3.175781 6.816406 L 2.09375 6.816406 L 2.082031 6.933594 C 2.011719 7.667969 2.140625 8.347656 2.4375 8.929688 L 2.535156 9.109375 C 2.59375 9.214844 2.664062 9.316406 2.738281 9.414062 C 2.8125 9.511719 2.835938 9.566406 2.882812 9.628906 C 3.664062 10.507812 4.828125 10.929688 6.175781 10.929688 C 9.152344 10.929688 11.679688 9.613281 12.800781 6.648438 C 13.59375 6.730469 14.355469 6.523438 14.703125 5.847656 C 14.148438 5.527344 13.4375 5.632812 13.03125 5.835938 L 14.113281 2.757812 L 9.878906 5.460938 L 8.527344 5.460938 L 8.527344 2.757812 Z M 4.46875 2.757812 "/>
</clipPath>
<clipPath id="clip15">
  <path d="M 8 2 L 10 2 L 10 3 L 8 3 Z M 8 2 "/>
</clipPath>
<clipPath id="clip16">
  <path d="M 4.46875 2.757812 L 4.46875 5.460938 L 3.175781 5.460938 L 3.175781 6.816406 L 2.09375 6.816406 L 2.082031 6.933594 C 2.011719 7.667969 2.140625 8.347656 2.4375 8.929688 L 2.535156 9.109375 C 2.59375 9.214844 2.664062 9.316406 2.738281 9.414062 C 2.8125 9.511719 2.835938 9.566406 2.882812 9.628906 C 3.664062 10.507812 4.828125 10.929688 6.175781 10.929688 C 9.152344 10.929688 11.679688 9.613281 12.800781 6.648438 C 13.59375 6.730469 14.355469 6.523438 14.703125 5.847656 C 14.148438 5.527344 13.4375 5.632812 13.03125 5.835938 L 14.113281 2.757812 L 9.878906 5.460938 L 8.527344 5.460938 L 8.527344 2.757812 Z M 4.46875 2.757812 "/>
</clipPath>
<clipPath id="clip17">
  <path d="M 2 4 L 4 4 L 4 6 L 2 6 Z M 2 4 "/>
</clipPath>
<clipPath id="clip18">
  <path d="M 4.46875 2.757812 L 4.46875 5.460938 L 3.175781 5.460938 L 3.175781 6.816406 L 2.09375 6.816406 L 2.082031 6.933594 C 2.011719 7.667969 2.140625 8.347656 2.4375 8.929688 L 2.535156 9.109375 C 2.59375 9.214844 2.664062 9.316406 2.738281 9.414062 C 2.8125 9.511719 2.835938 9.566406 2.882812 9.628906 C 3.664062 10.507812 4.828125 10.929688 6.175781 10.929688 C 9.152344 10.929688 11.679688 9.613281 12.800781 6.648438 C 13.59375 6.730469 14.355469 6.523438 14.703125 5.847656 C 14.148438 5.527344 13.4375 5.632812 13.03125 5.835938 L 14.113281 2.757812 L 9.878906 5.460938 L 8.527344 5.460938 L 8.527344 2.757812 Z M 4.46875 2.757812 "/>
</clipPath>
<clipPath id="clip19">
  <path d="M 2 5 L 4 5 L 4 7 L 2 7 Z M 2 5 "/>
</clipPath>
<clipPath id="clip20">
  <path d="M 4.46875 2.757812 L 4.46875 5.460938 L 3.175781 5.460938 L 3.175781 6.816406 L 2.09375 6.816406 L 2.082031 6.933594 C 2.011719 7.667969 2.140625 8.347656 2.4375 8.929688 L 2.535156 9.109375 C 2.59375 9.214844 2.664062 9.316406 2.738281 9.414062 C 2.8125 9.511719 2.835938 9.566406 2.882812 9.628906 C 3.664062 10.507812 4.828125 10.929688 6.175781 10.929688 C 9.152344 10.929688 11.679688 9.613281 12.800781 6.648438 C 13.59375 6.730469 14.355469 6.523438 14.703125 5.847656 C 14.148438 5.527344 13.4375 5.632812 13.03125 5.835938 L 14.113281 2.757812 L 9.878906 5.460938 L 8.527344 5.460938 L 8.527344 2.757812 Z M 4.46875 2.757812 "/>
</clipPath>
<clipPath id="clip21">
  <path d="M 2 4 L 3 4 L 3 6 L 2 6 Z M 2 4 "/>
</clipPath>
<clipPath id="clip22">
  <path d="M 4.46875 2.757812 L 4.46875 5.460938 L 3.175781 5.460938 L 3.175781 6.816406 L 2.09375 6.816406 L 2.082031 6.933594 C 2.011719 7.667969 2.140625 8.347656 2.4375 8.929688 L 2.535156 9.109375 C 2.59375 9.214844 2.664062 9.316406 2.738281 9.414062 C 2.8125 9.511719 2.835938 9.566406 2.882812 9.628906 C 3.664062 10.507812 4.828125 10.929688 6.175781 10.929688 C 9.152344 10.929688 11.679688 9.613281 12.800781 6.648438 C 13.59375 6.730469 14.355469 6.523438 14.703125 5.847656 C 14.148438 5.527344 13.4375 5.632812 13.03125 5.835938 L 14.113281 2.757812 L 9.878906 5.460938 L 8.527344 5.460938 L 8.527344 2.757812 Z M 4.46875 2.757812 "/>
</clipPath>
<clipPath id="clip23">
  <path d="M 2 5 L 3 5 L 3 7 L 2 7 Z M 2 5 "/>
</clipPath>
<clipPath id="clip24">
  <path d="M 4.46875 2.757812 L 4.46875 5.460938 L 3.175781 5.460938 L 3.175781 6.816406 L 2.09375 6.816406 L 2.082031 6.933594 C 2.011719 7.667969 2.140625 8.347656 2.4375 8.929688 L 2.535156 9.109375 C 2.59375 9.214844 2.664062 9.316406 2.738281 9.414062 C 2.8125 9.511719 2.835938 9.566406 2.882812 9.628906 C 3.664062 10.507812 4.828125 10.929688 6.175781 10.929688 C 9.152344 10.929688 11.679688 9.613281 12.800781 6.648438 C 13.59375 6.730469 14.355469 6.523438 14.703125 5.847656 C 14.148438 5.527344 13.4375 5.632812 13.03125 5.835938 L 14.113281 2.757812 L 9.878906 5.460938 L 8.527344 5.460938 L 8.527344 2.757812 Z M 4.46875 2.757812 "/>
</clipPath>
<clipPath id="clip25">
  <path d="M 3 5 L 5 5 L 5 7 L 3 7 Z M 3 5 "/>
</clipPath>
<clipPath id="clip26">
  <path d="M 4.46875 2.757812 L 4.46875 5.460938 L 3.175781 5.460938 L 3.175781 6.816406 L 2.09375 6.816406 L 2.082031 6.933594 C 2.011719 7.667969 2.140625 8.347656 2.4375 8.929688 L 2.535156 9.109375 C 2.59375 9.214844 2.664062 9.316406 2.738281 9.414062 C 2.8125 9.511719 2.835938 9.566406 2.882812 9.628906 C 3.664062 10.507812 4.828125 10.929688 6.175781 10.929688 C 9.152344 10.929688 11.679688 9.613281 12.800781 6.648438 C 13.59375 6.730469 14.355469 6.523438 14.703125 5.847656 C 14.148438 5.527344 13.4375 5.632812 13.03125 5.835938 L 14.113281 2.757812 L 9.878906 5.460938 L 8.527344 5.460938 L 8.527344 2.757812 Z M 4.46875 2.757812 "/>
</clipPath>
<clipPath id="clip27">
  <path d="M 3 4 L 5 4 L 5 6 L 3 6 Z M 3 4 "/>
</clipPath>
<clipPath id="clip28">
  <path d="M 4.46875 2.757812 L 4.46875 5.460938 L 3.175781 5.460938 L 3.175781 6.816406 L 2.09375 6.816406 L 2.082031 6.933594 C 2.011719 7.667969 2.140625 8.347656 2.4375 8.929688 L 2.535156 9.109375 C 2.59375 9.214844 2.664062 9.316406 2.738281 9.414062 C 2.8125 9.511719 2.835938 9.566406 2.882812 9.628906 C 3.664062 10.507812 4.828125 10.929688 6.175781 10.929688 C 9.152344 10.929688 11.679688 9.613281 12.800781 6.648438 C 13.59375 6.730469 14.355469 6.523438 14.703125 5.847656 C 14.148438 5.527344 13.4375 5.632812 13.03125 5.835938 L 14.113281 2.757812 L 9.878906 5.460938 L 8.527344 5.460938 L 8.527344 2.757812 Z M 4.46875 2.757812 "/>
</clipPath>
<clipPath id="clip29">
  <path d="M 3 5 L 5 5 L 5 7 L 3 7 Z M 3 5 "/>
</clipPath>
<clipPath id="clip30">
  <path d="M 4.46875 2.757812 L 4.46875 5.460938 L 3.175781 5.460938 L 3.175781 6.816406 L 2.09375 6.816406 L 2.082031 6.933594 C 2.011719 7.667969 2.140625 8.347656 2.4375 8.929688 L 2.535156 9.109375 C 2.59375 9.214844 2.664062 9.316406 2.738281 9.414062 C 2.8125 9.511719 2.835938 9.566406 2.882812 9.628906 C 3.664062 10.507812 4.828125 10.929688 6.175781 10.929688 C 9.152344 10.929688 11.679688 9.613281 12.800781 6.648438 C 13.59375 6.730469 14.355469 6.523438 14.703125 5.847656 C 14.148438 5.527344 13.4375 5.632812 13.03125 5.835938 L 14.113281 2.757812 L 9.878906 5.460938 L 8.527344 5.460938 L 8.527344 2.757812 Z M 4.46875 2.757812 "/>
</clipPath>
<clipPath id="clip31">
  <path d="M 3 4 L 5 4 L 5 6 L 3 6 Z M 3 4 "/>
</clipPath>
<clipPath id="clip32">
  <path d="M 4.46875 2.757812 L 4.46875 5.460938 L 3.175781 5.460938 L 3.175781 6.816406 L 2.09375 6.816406 L 2.082031 6.933594 C 2.011719 7.667969 2.140625 8.347656 2.4375 8.929688 L 2.535156 9.109375 C 2.59375 9.214844 2.664062 9.316406 2.738281 9.414062 C 2.8125 9.511719 2.835938 9.566406 2.882812 9.628906 C 3.664062 10.507812 4.828125 10.929688 6.175781 10.929688 C 9.152344 10.929688 11.679688 9.613281 12.800781 6.648438 C 13.59375 6.730469 14.355469 6.523438 14.703125 5.847656 C 14.148438 5.527344 13.4375 5.632812 13.03125 5.835938 L 14.113281 2.757812 L 9.878906 5.460938 L 8.527344 5.460938 L 8.527344 2.757812 Z M 4.46875 2.757812 "/>
</clipPath>
<clipPath id="clip33">
  <path d="M 4 4 L 6 4 L 6 6 L 4 6 Z M 4 4 "/>
</clipPath>
<clipPath id="clip34">
  <path d="M 4.46875 2.757812 L 4.46875 5.460938 L 3.175781 5.460938 L 3.175781 6.816406 L 2.09375 6.816406 L 2.082031 6.933594 C 2.011719 7.667969 2.140625 8.347656 2.4375 8.929688 L 2.535156 9.109375 C 2.59375 9.214844 2.664062 9.316406 2.738281 9.414062 C 2.8125 9.511719 2.835938 9.566406 2.882812 9.628906 C 3.664062 10.507812 4.828125 10.929688 6.175781 10.929688 C 9.152344 10.929688 11.679688 9.613281 12.800781 6.648438 C 13.59375 6.730469 14.355469 6.523438 14.703125 5.847656 C 14.148438 5.527344 13.4375 5.632812 13.03125 5.835938 L 14.113281 2.757812 L 9.878906 5.460938 L 8.527344 5.460938 L 8.527344 2.757812 Z M 4.46875 2.757812 "/>
</clipPath>
<clipPath id="clip35">
  <path d="M 4 5 L 6 5 L 6 7 L 4 7 Z M 4 5 "/>
</clipPath>
<clipPath id="clip36">
  <path d="M 4.46875 2.757812 L 4.46875 5.460938 L 3.175781 5.460938 L 3.175781 6.816406 L 2.09375 6.816406 L 2.082031 6.933594 C 2.011719 7.667969 2.140625 8.347656 2.4375 8.929688 L 2.535156 9.109375 C 2.59375 9.214844 2.664062 9.316406 2.738281 9.414062 C 2.8125 9.511719 2.835938 9.566406 2.882812 9.628906 C 3.664062 10.507812 4.828125 10.929688 6.175781 10.929688 C 9.152344 10.929688 11.679688 9.613281 12.800781 6.648438 C 13.59375 6.730469 14.355469 6.523438 14.703125 5.847656 C 14.148438 5.527344 13.4375 5.632812 13.03125 5.835938 L 14.113281 2.757812 L 9.878906 5.460938 L 8.527344 5.460938 L 8.527344 2.757812 Z M 4.46875 2.757812 "/>
</clipPath>
<clipPath id="clip37">
  <path d="M 4 4 L 6 4 L 6 6 L 4 6 Z M 4 4 "/>
</clipPath>
<clipPath id="clip38">
  <path d="M 4.46875 2.757812 L 4.46875 5.460938 L 3.175781 5.460938 L 3.175781 6.816406 L 2.09375 6.816406 L 2.082031 6.933594 C 2.011719 7.667969 2.140625 8.347656 2.4375 8.929688 L 2.535156 9.109375 C 2.59375 9.214844 2.664062 9.316406 2.738281 9.414062 C 2.8125 9.511719 2.835938 9.566406 2.882812 9.628906 C 3.664062 10.507812 4.828125 10.929688 6.175781 10.929688 C 9.152344 10.929688 11.679688 9.613281 12.800781 6.648438 C 13.59375 6.730469 14.355469 6.523438 14.703125 5.847656 C 14.148438 5.527344 13.4375 5.632812 13.03125 5.835938 L 14.113281 2.757812 L 9.878906 5.460938 L 8.527344 5.460938 L 8.527344 2.757812 Z M 4.46875 2.757812 "/>
</clipPath>
<clipPath id="clip39">
  <path d="M 4 5 L 6 5 L 6 7 L 4 7 Z M 4 5 "/>
</clipPath>
<clipPath id="clip40">
  <path d="M 4.46875 2.757812 L 4.46875 5.460938 L 3.175781 5.460938 L 3.175781 6.816406 L 2.09375 6.816406 L 2.082031 6.933594 C 2.011719 7.667969 2.140625 8.347656 2.4375 8.929688 L 2.535156 9.109375 C 2.59375 9.214844 2.664062 9.316406 2.738281 9.414062 C 2.8125 9.511719 2.835938 9.566406 2.882812 9.628906 C 3.664062 10.507812 4.828125 10.929688 6.175781 10.929688 C 9.152344 10.929688 11.679688 9.613281 12.800781 6.648438 C 13.59375 6.730469 14.355469 6.523438 14.703125 5.847656 C 14.148438 5.527344 13.4375 5.632812 13.03125 5.835938 L 14.113281 2.757812 L 9.878906 5.460938 L 8.527344 5.460938 L 8.527344 2.757812 Z M 4.46875 2.757812 "/>
</clipPath>
<clipPath id="clip41">
  <path d="M 5 5 L 8 5 L 8 7 L 5 7 Z M 5 5 "/>
</clipPath>
<clipPath id="clip42">
  <path d="M 4.46875 2.757812 L 4.46875 5.460938 L 3.175781 5.460938 L 3.175781 6.816406 L 2.09375 6.816406 L 2.082031 6.933594 C 2.011719 7.667969 2.140625 8.347656 2.4375 8.929688 L 2.535156 9.109375 C 2.59375 9.214844 2.664062 9.316406 2.738281 9.414062 C 2.8125 9.511719 2.835938 9.566406 2.882812 9.628906 C 3.664062 10.507812 4.828125 10.929688 6.175781 10.929688 C 9.152344 10.929688 11.679688 9.613281 12.800781 6.648438 C 13.59375 6.730469 14.355469 6.523438 14.703125 5.847656 C 14.148438 5.527344 13.4375 5.632812 13.03125 5.835938 L 14.113281 2.757812 L 9.878906 5.460938 L 8.527344 5.460938 L 8.527344 2.757812 Z M 4.46875 2.757812 "/>
</clipPath>
<clipPath id="clip43">
  <path d="M 5 4 L 8 4 L 8 6 L 5 6 Z M 5 4 "/>
</clipPath>
<clipPath id="clip44">
  <path d="M 4.46875 2.757812 L 4.46875 5.460938 L 3.175781 5.460938 L 3.175781 6.816406 L 2.09375 6.816406 L 2.082031 6.933594 C 2.011719 7.667969 2.140625 8.347656 2.4375 8.929688 L 2.535156 9.109375 C 2.59375 9.214844 2.664062 9.316406 2.738281 9.414062 C 2.8125 9.511719 2.835938 9.566406 2.882812 9.628906 C 3.664062 10.507812 4.828125 10.929688 6.175781 10.929688 C 9.152344 10.929688 11.679688 9.613281 12.800781 6.648438 C 13.59375 6.730469 14.355469 6.523438 14.703125 5.847656 C 14.148438 5.527344 13.4375 5.632812 13.03125 5.835938 L 14.113281 2.757812 L 9.878906 5.460938 L 8.527344 5.460938 L 8.527344 2.757812 Z M 4.46875 2.757812 "/>
</clipPath>
<clipPath id="clip45">
  <path d="M 6 5 L 7 5 L 7 7 L 6 7 Z M 6 5 "/>
</clipPath>
<clipPath id="clip46">
  <path d="M 4.46875 2.757812 L 4.46875 5.460938 L 3.175781 5.460938 L 3.175781 6.816406 L 2.09375 6.816406 L 2.082031 6.933594 C 2.011719 7.667969 2.140625 8.347656 2.4375 8.929688 L 2.535156 9.109375 C 2.59375 9.214844 2.664062 9.316406 2.738281 9.414062 C 2.8125 9.511719 2.835938 9.566406 2.882812 9.628906 C 3.664062 10.507812 4.828125 10.929688 6.175781 10.929688 C 9.152344 10.929688 11.679688 9.613281 12.800781 6.648438 C 13.59375 6.730469 14.355469 6.523438 14.703125 5.847656 C 14.148438 5.527344 13.4375 5.632812 13.03125 5.835938 L 14.113281 2.757812 L 9.878906 5.460938 L 8.527344 5.460938 L 8.527344 2.757812 Z M 4.46875 2.757812 "/>
</clipPath>
<clipPath id="clip47">
  <path d="M 6 5 L 8 5 L 8 7 L 6 7 Z M 6 5 "/>
</clipPath>
<clipPath id="clip48">
  <path d="M 4.46875 2.757812 L 4.46875 5.460938 L 3.175781 5.460938 L 3.175781 6.816406 L 2.09375 6.816406 L 2.082031 6.933594 C 2.011719 7.667969 2.140625 8.347656 2.4375 8.929688 L 2.535156 9.109375 C 2.59375 9.214844 2.664062 9.316406 2.738281 9.414062 C 2.8125 9.511719 2.835938 9.566406 2.882812 9.628906 C 3.664062 10.507812 4.828125 10.929688 6.175781 10.929688 C 9.152344 10.929688 11.679688 9.613281 12.800781 6.648438 C 13.59375 6.730469 14.355469 6.523438 14.703125 5.847656 C 14.148438 5.527344 13.4375 5.632812 13.03125 5.835938 L 14.113281 2.757812 L 9.878906 5.460938 L 8.527344 5.460938 L 8.527344 2.757812 Z M 4.46875 2.757812 "/>
</clipPath>
<clipPath id="clip49">
  <path d="M 6 4 L 7 4 L 7 6 L 6 6 Z M 6 4 "/>
</clipPath>
<clipPath id="clip50">
  <path d="M 4.46875 2.757812 L 4.46875 5.460938 L 3.175781 5.460938 L 3.175781 6.816406 L 2.09375 6.816406 L 2.082031 6.933594 C 2.011719 7.667969 2.140625 8.347656 2.4375 8.929688 L 2.535156 9.109375 C 2.59375 9.214844 2.664062 9.316406 2.738281 9.414062 C 2.8125 9.511719 2.835938 9.566406 2.882812 9.628906 C 3.664062 10.507812 4.828125 10.929688 6.175781 10.929688 C 9.152344 10.929688 11.679688 9.613281 12.800781 6.648438 C 13.59375 6.730469 14.355469 6.523438 14.703125 5.847656 C 14.148438 5.527344 13.4375 5.632812 13.03125 5.835938 L 14.113281 2.757812 L 9.878906 5.460938 L 8.527344 5.460938 L 8.527344 2.757812 Z M 4.46875 2.757812 "/>
</clipPath>
<clipPath id="clip51">
  <path d="M 6 4 L 8 4 L 8 6 L 6 6 Z M 6 4 "/>
</clipPath>
<clipPath id="clip52">
  <path d="M 4.46875 2.757812 L 4.46875 5.460938 L 3.175781 5.460938 L 3.175781 6.816406 L 2.09375 6.816406 L 2.082031 6.933594 C 2.011719 7.667969 2.140625 8.347656 2.4375 8.929688 L 2.535156 9.109375 C 2.59375 9.214844 2.664062 9.316406 2.738281 9.414062 C 2.8125 9.511719 2.835938 9.566406 2.882812 9.628906 C 3.664062 10.507812 4.828125 10.929688 6.175781 10.929688 C 9.152344 10.929688 11.679688 9.613281 12.800781 6.648438 C 13.59375 6.730469 14.355469 6.523438 14.703125 5.847656 C 14.148438 5.527344 13.4375 5.632812 13.03125 5.835938 L 14.113281 2.757812 L 9.878906 5.460938 L 8.527344 5.460938 L 8.527344 2.757812 Z M 4.46875 2.757812 "/>
</clipPath>
<clipPath id="clip53">
  <path d="M 7 4 L 9 4 L 9 6 L 7 6 Z M 7 4 "/>
</clipPath>
<clipPath id="clip54">
  <path d="M 4.46875 2.757812 L 4.46875 5.460938 L 3.175781 5.460938 L 3.175781 6.816406 L 2.09375 6.816406 L 2.082031 6.933594 C 2.011719 7.667969 2.140625 8.347656 2.4375 8.929688 L 2.535156 9.109375 C 2.59375 9.214844 2.664062 9.316406 2.738281 9.414062 C 2.8125 9.511719 2.835938 9.566406 2.882812 9.628906 C 3.664062 10.507812 4.828125 10.929688 6.175781 10.929688 C 9.152344 10.929688 11.679688 9.613281 12.800781 6.648438 C 13.59375 6.730469 14.355469 6.523438 14.703125 5.847656 C 14.148438 5.527344 13.4375 5.632812 13.03125 5.835938 L 14.113281 2.757812 L 9.878906 5.460938 L 8.527344 5.460938 L 8.527344 2.757812 Z M 4.46875 2.757812 "/>
</clipPath>
<clipPath id="clip55">
  <path d="M 7 5 L 9 5 L 9 7 L 7 7 Z M 7 5 "/>
</clipPath>
<clipPath id="clip56">
  <path d="M 4.46875 2.757812 L 4.46875 5.460938 L 3.175781 5.460938 L 3.175781 6.816406 L 2.09375 6.816406 L 2.082031 6.933594 C 2.011719 7.667969 2.140625 8.347656 2.4375 8.929688 L 2.535156 9.109375 C 2.59375 9.214844 2.664062 9.316406 2.738281 9.414062 C 2.8125 9.511719 2.835938 9.566406 2.882812 9.628906 C 3.664062 10.507812 4.828125 10.929688 6.175781 10.929688 C 9.152344 10.929688 11.679688 9.613281 12.800781 6.648438 C 13.59375 6.730469 14.355469 6.523438 14.703125 5.847656 C 14.148438 5.527344 13.4375 5.632812 13.03125 5.835938 L 14.113281 2.757812 L 9.878906 5.460938 L 8.527344 5.460938 L 8.527344 2.757812 Z M 4.46875 2.757812 "/>
</clipPath>
<clipPath id="clip57">
  <path d="M 7 4 L 9 4 L 9 6 L 7 6 Z M 7 4 "/>
</clipPath>
<clipPath id="clip58">
  <path d="M 4.46875 2.757812 L 4.46875 5.460938 L 3.175781 5.460938 L 3.175781 6.816406 L 2.09375 6.816406 L 2.082031 6.933594 C 2.011719 7.667969 2.140625 8.347656 2.4375 8.929688 L 2.535156 9.109375 C 2.59375 9.214844 2.664062 9.316406 2.738281 9.414062 C 2.8125 9.511719 2.835938 9.566406 2.882812 9.628906 C 3.664062 10.507812 4.828125 10.929688 6.175781 10.929688 C 9.152344 10.929688 11.679688 9.613281 12.800781 6.648438 C 13.59375 6.730469 14.355469 6.523438 14.703125 5.847656 C 14.148438 5.527344 13.4375 5.632812 13.03125 5.835938 L 14.113281 2.757812 L 9.878906 5.460938 L 8.527344 5.460938 L 8.527344 2.757812 Z M 4.46875 2.757812 "/>
</clipPath>
<clipPath id="clip59">
  <path d="M 7 5 L 9 5 L 9 7 L 7 7 Z M 7 5 "/>
</clipPath>
<clipPath id="clip60">
  <path d="M 4.46875 2.757812 L 4.46875 5.460938 L 3.175781 5.460938 L 3.175781 6.816406 L 2.09375 6.816406 L 2.082031 6.933594 C 2.011719 7.667969 2.140625 8.347656 2.4375 8.929688 L 2.535156 9.109375 C 2.59375 9.214844 2.664062 9.316406 2.738281 9.414062 C 2.8125 9.511719 2.835938 9.566406 2.882812 9.628906 C 3.664062 10.507812 4.828125 10.929688 6.175781 10.929688 C 9.152344 10.929688 11.679688 9.613281 12.800781 6.648438 C 13.59375 6.730469 14.355469 6.523438 14.703125 5.847656 C 14.148438 5.527344 13.4375 5.632812 13.03125 5.835938 L 14.113281 2.757812 L 9.878906 5.460938 L 8.527344 5.460938 L 8.527344 2.757812 Z M 4.46875 2.757812 "/>
</clipPath>
<clipPath id="clip61">
  <path d="M 8 5 L 10 5 L 10 7 L 8 7 Z M 8 5 "/>
</clipPath>
<clipPath id="clip62">
  <path d="M 4.46875 2.757812 L 4.46875 5.460938 L 3.175781 5.460938 L 3.175781 6.816406 L 2.09375 6.816406 L 2.082031 6.933594 C 2.011719 7.667969 2.140625 8.347656 2.4375 8.929688 L 2.535156 9.109375 C 2.59375 9.214844 2.664062 9.316406 2.738281 9.414062 C 2.8125 9.511719 2.835938 9.566406 2.882812 9.628906 C 3.664062 10.507812 4.828125 10.929688 6.175781 10.929688 C 9.152344 10.929688 11.679688 9.613281 12.800781 6.648438 C 13.59375 6.730469 14.355469 6.523438 14.703125 5.847656 C 14.148438 5.527344 13.4375 5.632812 13.03125 5.835938 L 14.113281 2.757812 L 9.878906 5.460938 L 8.527344 5.460938 L 8.527344 2.757812 Z M 4.46875 2.757812 "/>
</clipPath>
<clipPath id="clip63">
  <path d="M 8 4 L 10 4 L 10 6 L 8 6 Z M 8 4 "/>
</clipPath>
<clipPath id="clip64">
  <path d="M 4.46875 2.757812 L 4.46875 5.460938 L 3.175781 5.460938 L 3.175781 6.816406 L 2.09375 6.816406 L 2.082031 6.933594 C 2.011719 7.667969 2.140625 8.347656 2.4375 8.929688 L 2.535156 9.109375 C 2.59375 9.214844 2.664062 9.316406 2.738281 9.414062 C 2.8125 9.511719 2.835938 9.566406 2.882812 9.628906 C 3.664062 10.507812 4.828125 10.929688 6.175781 10.929688 C 9.152344 10.929688 11.679688 9.613281 12.800781 6.648438 C 13.59375 6.730469 14.355469 6.523438 14.703125 5.847656 C 14.148438 5.527344 13.4375 5.632812 13.03125 5.835938 L 14.113281 2.757812 L 9.878906 5.460938 L 8.527344 5.460938 L 8.527344 2.757812 Z M 4.46875 2.757812 "/>
</clipPath>
<clipPath id="clip65">
  <path d="M 8 5 L 10 5 L 10 7 L 8 7 Z M 8 5 "/>
</clipPath>
<clipPath id="clip66">
  <path d="M 4.46875 2.757812 L 4.46875 5.460938 L 3.175781 5.460938 L 3.175781 6.816406 L 2.09375 6.816406 L 2.082031 6.933594 C 2.011719 7.667969 2.140625 8.347656 2.4375 8.929688 L 2.535156 9.109375 C 2.59375 9.214844 2.664062 9.316406 2.738281 9.414062 C 2.8125 9.511719 2.835938 9.566406 2.882812 9.628906 C 3.664062 10.507812 4.828125 10.929688 6.175781 10.929688 C 9.152344 10.929688 11.679688 9.613281 12.800781 6.648438 C 13.59375 6.730469 14.355469 6.523438 14.703125 5.847656 C 14.148438 5.527344 13.4375 5.632812 13.03125 5.835938 L 14.113281 2.757812 L 9.878906 5.460938 L 8.527344 5.460938 L 8.527344 2.757812 Z M 4.46875 2.757812 "/>
</clipPath>
<clipPath id="clip67">
  <path d="M 8 4 L 10 4 L 10 6 L 8 6 Z M 8 4 "/>
</clipPath>
<clipPath id="clip68">
  <path d="M 4.46875 2.757812 L 4.46875 5.460938 L 3.175781 5.460938 L 3.175781 6.816406 L 2.09375 6.816406 L 2.082031 6.933594 C 2.011719 7.667969 2.140625 8.347656 2.4375 8.929688 L 2.535156 9.109375 C 2.59375 9.214844 2.664062 9.316406 2.738281 9.414062 C 2.8125 9.511719 2.835938 9.566406 2.882812 9.628906 C 3.664062 10.507812 4.828125 10.929688 6.175781 10.929688 C 9.152344 10.929688 11.679688 9.613281 12.800781 6.648438 C 13.59375 6.730469 14.355469 6.523438 14.703125 5.847656 C 14.148438 5.527344 13.4375 5.632812 13.03125 5.835938 L 14.113281 2.757812 L 9.878906 5.460938 L 8.527344 5.460938 L 8.527344 2.757812 Z M 4.46875 2.757812 "/>
</clipPath>
<clipPath id="clip69">
  <path d="M 2 4 L 15 4 L 15 11 L 2 11 Z M 2 4 "/>
</clipPath>
<clipPath id="clip70">
  <path d="M 4.46875 2.757812 L 4.46875 5.460938 L 3.175781 5.460938 L 3.175781 6.816406 L 2.09375 6.816406 L 2.082031 6.933594 C 2.011719 7.667969 2.140625 8.347656 2.4375 8.929688 L 2.535156 9.109375 C 2.59375 9.214844 2.664062 9.316406 2.738281 9.414062 C 2.8125 9.511719 2.835938 9.566406 2.882812 9.628906 C 3.664062 10.507812 4.828125 10.929688 6.175781 10.929688 C 9.152344 10.929688 11.679688 9.613281 12.800781 6.648438 C 13.59375 6.730469 14.355469 6.523438 14.703125 5.847656 C 14.148438 5.527344 13.4375 5.632812 13.03125 5.835938 L 14.113281 2.757812 L 9.878906 5.460938 L 8.527344 5.460938 L 8.527344 2.757812 Z M 4.46875 2.757812 "/>
</clipPath>
<clipPath id="clip71">
  <path d="M 2 7 L 15 7 L 15 11 L 2 11 Z M 2 7 "/>
</clipPath>
<clipPath id="clip72">
  <path d="M 4.46875 2.757812 L 4.46875 5.460938 L 3.175781 5.460938 L 3.175781 6.816406 L 2.09375 6.816406 L 2.082031 6.933594 C 2.011719 7.667969 2.140625 8.347656 2.4375 8.929688 L 2.535156 9.109375 C 2.59375 9.214844 2.664062 9.316406 2.738281 9.414062 C 2.8125 9.511719 2.835938 9.566406 2.882812 9.628906 C 3.664062 10.507812 4.828125 10.929688 6.175781 10.929688 C 9.152344 10.929688 11.679688 9.613281 12.800781 6.648438 C 13.59375 6.730469 14.355469 6.523438 14.703125 5.847656 C 14.148438 5.527344 13.4375 5.632812 13.03125 5.835938 L 14.113281 2.757812 L 9.878906 5.460938 L 8.527344 5.460938 L 8.527344 2.757812 Z M 4.46875 2.757812 "/>
</clipPath>
<clipPath id="clip73">
  <path d="M 2 9 L 7 9 L 7 11 L 2 11 Z M 2 9 "/>
</clipPath>
<clipPath id="clip74">
  <path d="M 4.46875 2.757812 L 4.46875 5.460938 L 3.175781 5.460938 L 3.175781 6.816406 L 2.09375 6.816406 L 2.082031 6.933594 C 2.011719 7.667969 2.140625 8.347656 2.4375 8.929688 L 2.535156 9.109375 C 2.59375 9.214844 2.664062 9.316406 2.738281 9.414062 C 2.8125 9.511719 2.835938 9.566406 2.882812 9.628906 C 3.664062 10.507812 4.828125 10.929688 6.175781 10.929688 C 9.152344 10.929688 11.679688 9.613281 12.800781 6.648438 C 13.59375 6.730469 14.355469 6.523438 14.703125 5.847656 C 14.148438 5.527344 13.4375 5.632812 13.03125 5.835938 L 14.113281 2.757812 L 9.878906 5.460938 L 8.527344 5.460938 L 8.527344 2.757812 Z M 4.46875 2.757812 "/>
</clipPath>
<clipPath id="clip75">
  <path d="M 2 5 L 15 5 L 15 11 L 2 11 Z M 2 5 "/>
</clipPath>
<clipPath id="clip76">
  <path d="M 4.46875 2.757812 L 4.46875 5.460938 L 3.175781 5.460938 L 3.175781 6.816406 L 2.09375 6.816406 L 2.082031 6.933594 C 2.011719 7.667969 2.140625 8.347656 2.4375 8.929688 L 2.535156 9.109375 C 2.59375 9.214844 2.664062 9.316406 2.738281 9.414062 C 2.8125 9.511719 2.835938 9.566406 2.882812 9.628906 C 3.664062 10.507812 4.828125 10.929688 6.175781 10.929688 C 9.152344 10.929688 11.679688 9.613281 12.800781 6.648438 C 13.59375 6.730469 14.355469 6.523438 14.703125 5.847656 C 14.148438 5.527344 13.4375 5.632812 13.03125 5.835938 L 14.113281 2.757812 L 9.878906 5.460938 L 8.527344 5.460938 L 8.527344 2.757812 Z M 4.46875 2.757812 "/>
</clipPath>
</defs>
<g id="surface1">
<path style=" stroke:none;fill-rule:nonzero;fill:rgb(22.352941%,30.196078%,32.941176%);fill-opacity:1;" d="M 8.671875 5.328125 L 10.019531 5.328125 L 10.019531 6.703125 L 10.699219 6.703125 C 11.015625 6.703125 11.332031 6.648438 11.632812 6.546875 C 11.777344 6.496094 11.941406 6.429688 12.085938 6.339844 C 11.898438 6.09375 11.800781 5.78125 11.769531 5.472656 C 11.730469 5.050781 11.8125 4.507812 12.097656 4.179688 L 12.238281 4.015625 L 12.410156 4.148438 C 12.832031 4.492188 13.1875 4.96875 13.253906 5.511719 C 13.761719 5.359375 14.363281 5.394531 14.8125 5.65625 L 14.996094 5.761719 L 14.902344 5.953125 C 14.523438 6.695312 13.726562 6.925781 12.949219 6.882812 C 11.785156 9.78125 9.25 11.15625 6.175781 11.15625 C 4.585938 11.15625 3.132812 10.5625 2.300781 9.152344 C 2.253906 9.066406 2.210938 8.976562 2.167969 8.886719 C 1.886719 8.265625 1.792969 7.585938 1.855469 6.910156 L 1.875 6.707031 L 3.023438 6.707031 L 3.023438 5.328125 L 4.367188 5.328125 L 4.367188 3.984375 L 7.058594 3.984375 L 7.058594 2.640625 L 8.671875 2.640625 L 8.671875 5.328125 "/>
<g clip-path="url(#clip1)" clip-rule="nonzero">
<g clip-path="url(#clip2)" clip-rule="nonzero">
<path style=" stroke:none;fill-rule:nonzero;fill:rgb(0%,67.45098%,82.745098%);fill-opacity:1;" d="M 7.285156 1.519531 L 8.449219 1.519531 L 8.449219 2.683594 L 7.285156 2.683594 Z M 7.285156 1.519531 "/>
</g>
</g>
<g clip-path="url(#clip3)" clip-rule="nonzero">
<g clip-path="url(#clip4)" clip-rule="nonzero">
<path style=" stroke:none;fill-rule:nonzero;fill:rgb(12.54902%,76.078431%,93.72549%);fill-opacity:1;" d="M 7.285156 2.863281 L 8.449219 2.863281 L 8.449219 4.027344 L 7.285156 4.027344 Z M 7.285156 2.863281 "/>
</g>
</g>
<g clip-path="url(#clip5)" clip-rule="nonzero">
<g clip-path="url(#clip6)" clip-rule="nonzero">
<path style="fill-rule:nonzero;fill:rgb(0%,0%,0%);fill-opacity:1;stroke-width:1.56;stroke-linecap:butt;stroke-linejoin:miter;stroke:rgb(22.352941%,30.196078%,32.941176%);stroke-opacity:1;stroke-miterlimit:4;" d="M 126.26708 21.961137 L 126.26708 5.488629 M 129.256043 21.961137 L 129.256043 5.488629 M 132.245006 21.961137 L 132.245006 5.488629 M 135.300391 21.961137 L 135.300391 5.488629 M 138.289354 21.961137 L 138.289354 5.488629 M 141.211896 21.961137 L 141.211896 5.488629 " transform="matrix(0.0588101,0,0,0.0588101,0.000000139526,1.294401)"/>
</g>
</g>
<g clip-path="url(#clip7)" clip-rule="nonzero">
<g clip-path="url(#clip8)" clip-rule="nonzero">
<path style="fill-rule:nonzero;fill:rgb(0%,0%,0%);fill-opacity:1;stroke-width:1.56;stroke-linecap:butt;stroke-linejoin:miter;stroke:rgb(22.352941%,30.196078%,32.941176%);stroke-opacity:1;stroke-miterlimit:4;" d="M 126.26708 21.944098 L 126.26708 5.471591 M 129.256043 21.944098 L 129.256043 5.471591 M 132.245006 21.944098 L 132.245006 5.471591 M 135.300391 21.944098 L 135.300391 5.471591 M 138.289354 21.944098 L 138.289354 5.471591 M 141.211896 21.944098 L 141.211896 5.471591 " transform="matrix(0.0588101,0,0,0.0588101,0.000000139526,2.639153)"/>
</g>
</g>
<g clip-path="url(#clip9)" clip-rule="nonzero">
<g clip-path="url(#clip10)" clip-rule="nonzero">
<path style=" stroke:none;fill-rule:nonzero;fill:rgb(0%,67.45098%,82.745098%);fill-opacity:1;" d="M 8.628906 4.03125 L 9.792969 4.03125 L 9.792969 2.863281 L 8.628906 2.863281 Z M 8.628906 4.03125 "/>
</g>
</g>
<g clip-path="url(#clip11)" clip-rule="nonzero">
<g clip-path="url(#clip12)" clip-rule="nonzero">
<path style=" stroke:none;fill-rule:nonzero;fill:rgb(12.54902%,76.078431%,93.72549%);fill-opacity:1;" d="M 8.628906 2.683594 L 9.792969 2.683594 L 9.792969 1.519531 L 8.628906 1.519531 Z M 8.628906 2.683594 "/>
</g>
</g>
<g clip-path="url(#clip13)" clip-rule="nonzero">
<g clip-path="url(#clip14)" clip-rule="nonzero">
<path style="fill-rule:nonzero;fill:rgb(0%,0%,0%);fill-opacity:1;stroke-width:1.56;stroke-linecap:butt;stroke-linejoin:miter;stroke:rgb(22.352941%,30.196078%,32.941176%);stroke-opacity:1;stroke-miterlimit:4;" d="M 126.316464 21.96706 L 126.316464 5.428131 M 129.239005 21.96706 L 129.239005 5.428131 M 132.29439 21.96706 L 132.29439 5.428131 M 135.283353 21.96706 L 135.283353 5.428131 M 138.272316 21.96706 L 138.272316 5.428131 M 141.261279 21.96706 L 141.261279 5.428131 " transform="matrix(0.0588101,0,0,-0.0588101,1.344752,4.252823)"/>
</g>
</g>
<g clip-path="url(#clip15)" clip-rule="nonzero">
<g clip-path="url(#clip16)" clip-rule="nonzero">
<path style="fill-rule:nonzero;fill:rgb(0%,0%,0%);fill-opacity:1;stroke-width:1.56;stroke-linecap:butt;stroke-linejoin:miter;stroke:rgb(22.352941%,30.196078%,32.941176%);stroke-opacity:1;stroke-miterlimit:4;" d="M 126.316464 21.950022 L 126.316464 5.477514 M 129.239005 21.950022 L 129.239005 5.477514 M 132.29439 21.950022 L 132.29439 5.477514 M 135.283353 21.950022 L 135.283353 5.477514 M 138.272316 21.950022 L 138.272316 5.477514 M 141.261279 21.950022 L 141.261279 5.477514 " transform="matrix(0.0588101,0,0,-0.0588101,1.344752,2.908071)"/>
</g>
</g>
<g clip-path="url(#clip17)" clip-rule="nonzero">
<g clip-path="url(#clip18)" clip-rule="nonzero">
<path style=" stroke:none;fill-rule:nonzero;fill:rgb(0%,67.45098%,82.745098%);fill-opacity:1;" d="M 1.90625 4.207031 L 3.070312 4.207031 L 3.070312 5.371094 L 1.90625 5.371094 Z M 1.90625 4.207031 "/>
</g>
</g>
<g clip-path="url(#clip19)" clip-rule="nonzero">
<g clip-path="url(#clip20)" clip-rule="nonzero">
<path style=" stroke:none;fill-rule:nonzero;fill:rgb(12.54902%,76.078431%,93.72549%);fill-opacity:1;" d="M 1.90625 5.550781 L 3.070312 5.550781 L 3.070312 6.71875 L 1.90625 6.71875 Z M 1.90625 5.550781 "/>
</g>
</g>
<g clip-path="url(#clip21)" clip-rule="nonzero">
<g clip-path="url(#clip22)" clip-rule="nonzero">
<path style="fill-rule:nonzero;fill:rgb(0%,0%,0%);fill-opacity:1;stroke-width:1.56;stroke-linecap:butt;stroke-linejoin:miter;stroke:rgb(22.352941%,30.196078%,32.941176%);stroke-opacity:1;stroke-miterlimit:4;" d="M 126.268812 21.993482 L 126.268812 5.454553 M 129.257775 21.993482 L 129.257775 5.454553 M 132.246738 21.993482 L 132.246738 5.454553 M 135.302122 21.993482 L 135.302122 5.454553 M 138.291085 21.993482 L 138.291085 5.454553 M 141.213627 21.993482 L 141.213627 5.454553 " transform="matrix(0.0588101,0,0,0.0588101,-5.379008,3.983905)"/>
</g>
</g>
<g clip-path="url(#clip23)" clip-rule="nonzero">
<g clip-path="url(#clip24)" clip-rule="nonzero">
<path style="fill-rule:nonzero;fill:rgb(0%,0%,0%);fill-opacity:1;stroke-width:1.56;stroke-linecap:butt;stroke-linejoin:miter;stroke:rgb(22.352941%,30.196078%,32.941176%);stroke-opacity:1;stroke-miterlimit:4;" d="M 126.268812 21.976444 L 126.268812 5.437515 M 129.257775 21.976444 L 129.257775 5.437515 M 132.246738 21.976444 L 132.246738 5.437515 M 135.302122 21.976444 L 135.302122 5.437515 M 138.291085 21.976444 L 138.291085 5.437515 M 141.213627 21.976444 L 141.213627 5.437515 " transform="matrix(0.0588101,0,0,0.0588101,-5.379008,5.328657)"/>
</g>
</g>
<g clip-path="url(#clip25)" clip-rule="nonzero">
<g clip-path="url(#clip26)" clip-rule="nonzero">
<path style=" stroke:none;fill-rule:nonzero;fill:rgb(0%,67.45098%,82.745098%);fill-opacity:1;" d="M 3.25 6.71875 L 4.414062 6.71875 L 4.414062 5.554688 L 3.25 5.554688 Z M 3.25 6.71875 "/>
</g>
</g>
<g clip-path="url(#clip27)" clip-rule="nonzero">
<g clip-path="url(#clip28)" clip-rule="nonzero">
<path style=" stroke:none;fill-rule:nonzero;fill:rgb(12.54902%,76.078431%,93.72549%);fill-opacity:1;" d="M 3.25 5.375 L 4.414062 5.375 L 4.414062 4.207031 L 3.25 4.207031 Z M 3.25 5.375 "/>
</g>
</g>
<g clip-path="url(#clip29)" clip-rule="nonzero">
<g clip-path="url(#clip30)" clip-rule="nonzero">
<path style="fill-rule:nonzero;fill:rgb(0%,0%,0%);fill-opacity:1;stroke-width:1.56;stroke-linecap:butt;stroke-linejoin:miter;stroke:rgb(22.352941%,30.196078%,32.941176%);stroke-opacity:1;stroke-miterlimit:4;" d="M 126.318195 22.001136 L 126.318195 5.462207 M 129.240736 22.001136 L 129.240736 5.462207 M 132.296121 22.001136 L 132.296121 5.462207 M 135.285084 22.001136 L 135.285084 5.462207 M 138.274047 22.001136 L 138.274047 5.462207 M 141.26301 22.001136 L 141.26301 5.462207 " transform="matrix(0.0588101,0,0,-0.0588101,-4.034256,6.942327)"/>
</g>
</g>
<g clip-path="url(#clip31)" clip-rule="nonzero">
<g clip-path="url(#clip32)" clip-rule="nonzero">
<path style="fill-rule:nonzero;fill:rgb(0%,0%,0%);fill-opacity:1;stroke-width:1.56;stroke-linecap:butt;stroke-linejoin:miter;stroke:rgb(22.352941%,30.196078%,32.941176%);stroke-opacity:1;stroke-miterlimit:4;" d="M 126.318195 21.984098 L 126.318195 5.445169 M 129.240736 21.984098 L 129.240736 5.445169 M 132.296121 21.984098 L 132.296121 5.445169 M 135.285084 21.984098 L 135.285084 5.445169 M 138.274047 21.984098 L 138.274047 5.445169 M 141.26301 21.984098 L 141.26301 5.445169 " transform="matrix(0.0588101,0,0,-0.0588101,-4.034256,5.597575)"/>
</g>
</g>
<g clip-path="url(#clip33)" clip-rule="nonzero">
<g clip-path="url(#clip34)" clip-rule="nonzero">
<path style=" stroke:none;fill-rule:nonzero;fill:rgb(0%,67.45098%,82.745098%);fill-opacity:1;" d="M 4.59375 4.207031 L 5.761719 4.207031 L 5.761719 5.371094 L 4.59375 5.371094 Z M 4.59375 4.207031 "/>
</g>
</g>
<g clip-path="url(#clip35)" clip-rule="nonzero">
<g clip-path="url(#clip36)" clip-rule="nonzero">
<path style=" stroke:none;fill-rule:nonzero;fill:rgb(12.54902%,76.078431%,93.72549%);fill-opacity:1;" d="M 4.59375 5.550781 L 5.761719 5.550781 L 5.761719 6.71875 L 4.59375 6.71875 Z M 4.59375 5.550781 "/>
</g>
</g>
<g clip-path="url(#clip37)" clip-rule="nonzero">
<g clip-path="url(#clip38)" clip-rule="nonzero">
<path style="fill-rule:nonzero;fill:rgb(0%,0%,0%);fill-opacity:1;stroke-width:1.56;stroke-linecap:butt;stroke-linejoin:miter;stroke:rgb(22.352941%,30.196078%,32.941176%);stroke-opacity:1;stroke-miterlimit:4;" d="M 126.301157 21.993482 L 126.301157 5.454553 M 129.29012 21.993482 L 129.29012 5.454553 M 132.279083 21.993482 L 132.279083 5.454553 M 135.268046 21.993482 L 135.268046 5.454553 M 138.257009 21.993482 L 138.257009 5.454553 M 141.245972 21.993482 L 141.245972 5.454553 " transform="matrix(0.0588101,0,0,0.0588101,-2.689504,3.983905)"/>
</g>
</g>
<g clip-path="url(#clip39)" clip-rule="nonzero">
<g clip-path="url(#clip40)" clip-rule="nonzero">
<path style="fill-rule:nonzero;fill:rgb(0%,0%,0%);fill-opacity:1;stroke-width:1.56;stroke-linecap:butt;stroke-linejoin:miter;stroke:rgb(22.352941%,30.196078%,32.941176%);stroke-opacity:1;stroke-miterlimit:4;" d="M 126.301157 21.976444 L 126.301157 5.437515 M 129.29012 21.976444 L 129.29012 5.437515 M 132.279083 21.976444 L 132.279083 5.437515 M 135.268046 21.976444 L 135.268046 5.437515 M 138.257009 21.976444 L 138.257009 5.437515 M 141.245972 21.976444 L 141.245972 5.437515 " transform="matrix(0.0588101,0,0,0.0588101,-2.689504,5.328657)"/>
</g>
</g>
<g clip-path="url(#clip41)" clip-rule="nonzero">
<g clip-path="url(#clip42)" clip-rule="nonzero">
<path style=" stroke:none;fill-rule:nonzero;fill:rgb(0%,67.45098%,82.745098%);fill-opacity:1;" d="M 5.941406 6.71875 L 7.105469 6.71875 L 7.105469 5.554688 L 5.941406 5.554688 Z M 5.941406 6.71875 "/>
</g>
</g>
<g clip-path="url(#clip43)" clip-rule="nonzero">
<g clip-path="url(#clip44)" clip-rule="nonzero">
<path style=" stroke:none;fill-rule:nonzero;fill:rgb(12.54902%,76.078431%,93.72549%);fill-opacity:1;" d="M 5.941406 5.375 L 7.105469 5.375 L 7.105469 4.207031 L 5.941406 4.207031 Z M 5.941406 5.375 "/>
</g>
</g>
<g clip-path="url(#clip45)" clip-rule="nonzero">
<g clip-path="url(#clip46)" clip-rule="nonzero">
<path style=" stroke:none;fill-rule:nonzero;fill:rgb(0%,0%,0%);fill-opacity:1;" d="M 6.082031 5.648438 L 6.082031 6.621094 M 6.257812 5.648438 L 6.257812 6.621094 M 6.433594 5.648438 L 6.433594 6.621094 M 6.609375 5.648438 L 6.609375 6.621094 M 6.785156 5.648438 L 6.785156 6.621094 M 6.960938 5.648438 L 6.960938 6.621094 "/>
</g>
</g>
<g clip-path="url(#clip47)" clip-rule="nonzero">
<g clip-path="url(#clip48)" clip-rule="nonzero">
<path style="fill:none;stroke-width:1.56;stroke-linecap:butt;stroke-linejoin:miter;stroke:rgb(22.352941%,30.196078%,32.941176%);stroke-opacity:1;stroke-miterlimit:4;" d="M 126.284119 22.001136 L 126.284119 5.462207 M 129.273082 22.001136 L 129.273082 5.462207 M 132.262045 22.001136 L 132.262045 5.462207 M 135.251008 22.001136 L 135.251008 5.462207 M 138.239971 22.001136 L 138.239971 5.462207 M 141.228934 22.001136 L 141.228934 5.462207 " transform="matrix(0.0588101,0,0,-0.0588101,-1.344752,6.942327)"/>
</g>
</g>
<g clip-path="url(#clip49)" clip-rule="nonzero">
<g clip-path="url(#clip50)" clip-rule="nonzero">
<path style=" stroke:none;fill-rule:nonzero;fill:rgb(0%,0%,0%);fill-opacity:1;" d="M 6.082031 4.304688 L 6.082031 5.277344 M 6.257812 4.304688 L 6.257812 5.277344 M 6.433594 4.304688 L 6.433594 5.277344 M 6.609375 4.304688 L 6.609375 5.277344 M 6.785156 4.304688 L 6.785156 5.277344 M 6.960938 4.304688 L 6.960938 5.277344 "/>
</g>
</g>
<g clip-path="url(#clip51)" clip-rule="nonzero">
<g clip-path="url(#clip52)" clip-rule="nonzero">
<path style="fill:none;stroke-width:1.56;stroke-linecap:butt;stroke-linejoin:miter;stroke:rgb(22.352941%,30.196078%,32.941176%);stroke-opacity:1;stroke-miterlimit:4;" d="M 126.284119 21.984098 L 126.284119 5.445169 M 129.273082 21.984098 L 129.273082 5.445169 M 132.262045 21.984098 L 132.262045 5.445169 M 135.251008 21.984098 L 135.251008 5.445169 M 138.239971 21.984098 L 138.239971 5.445169 M 141.228934 21.984098 L 141.228934 5.445169 " transform="matrix(0.0588101,0,0,-0.0588101,-1.344752,5.597575)"/>
</g>
</g>
<g clip-path="url(#clip53)" clip-rule="nonzero">
<g clip-path="url(#clip54)" clip-rule="nonzero">
<path style=" stroke:none;fill-rule:nonzero;fill:rgb(0%,67.45098%,82.745098%);fill-opacity:1;" d="M 7.285156 4.207031 L 8.449219 4.207031 L 8.449219 5.371094 L 7.285156 5.371094 Z M 7.285156 4.207031 "/>
</g>
</g>
<g clip-path="url(#clip55)" clip-rule="nonzero">
<g clip-path="url(#clip56)" clip-rule="nonzero">
<path style=" stroke:none;fill-rule:nonzero;fill:rgb(12.54902%,76.078431%,93.72549%);fill-opacity:1;" d="M 7.285156 5.550781 L 8.449219 5.550781 L 8.449219 6.71875 L 7.285156 6.71875 Z M 7.285156 5.550781 "/>
</g>
</g>
<g clip-path="url(#clip57)" clip-rule="nonzero">
<g clip-path="url(#clip58)" clip-rule="nonzero">
<path style="fill-rule:nonzero;fill:rgb(0%,0%,0%);fill-opacity:1;stroke-width:1.56;stroke-linecap:butt;stroke-linejoin:miter;stroke:rgb(22.352941%,30.196078%,32.941176%);stroke-opacity:1;stroke-miterlimit:4;" d="M 126.26708 21.993482 L 126.26708 5.454553 M 129.256043 21.993482 L 129.256043 5.454553 M 132.245006 21.993482 L 132.245006 5.454553 M 135.300391 21.993482 L 135.300391 5.454553 M 138.289354 21.993482 L 138.289354 5.454553 M 141.211896 21.993482 L 141.211896 5.454553 " transform="matrix(0.0588101,0,0,0.0588101,0.000000139526,3.983905)"/>
</g>
</g>
<g clip-path="url(#clip59)" clip-rule="nonzero">
<g clip-path="url(#clip60)" clip-rule="nonzero">
<path style="fill-rule:nonzero;fill:rgb(0%,0%,0%);fill-opacity:1;stroke-width:1.56;stroke-linecap:butt;stroke-linejoin:miter;stroke:rgb(22.352941%,30.196078%,32.941176%);stroke-opacity:1;stroke-miterlimit:4;" d="M 126.26708 21.976444 L 126.26708 5.437515 M 129.256043 21.976444 L 129.256043 5.437515 M 132.245006 21.976444 L 132.245006 5.437515 M 135.300391 21.976444 L 135.300391 5.437515 M 138.289354 21.976444 L 138.289354 5.437515 M 141.211896 21.976444 L 141.211896 5.437515 " transform="matrix(0.0588101,0,0,0.0588101,0.000000139526,5.328657)"/>
</g>
</g>
<g clip-path="url(#clip61)" clip-rule="nonzero">
<g clip-path="url(#clip62)" clip-rule="nonzero">
<path style=" stroke:none;fill-rule:nonzero;fill:rgb(0%,67.45098%,82.745098%);fill-opacity:1;" d="M 8.628906 6.71875 L 9.792969 6.71875 L 9.792969 5.554688 L 8.628906 5.554688 Z M 8.628906 6.71875 "/>
</g>
</g>
<g clip-path="url(#clip63)" clip-rule="nonzero">
<g clip-path="url(#clip64)" clip-rule="nonzero">
<path style=" stroke:none;fill-rule:nonzero;fill:rgb(12.54902%,76.078431%,93.72549%);fill-opacity:1;" d="M 8.628906 5.375 L 9.792969 5.375 L 9.792969 4.207031 L 8.628906 4.207031 Z M 8.628906 5.375 "/>
</g>
</g>
<g clip-path="url(#clip65)" clip-rule="nonzero">
<g clip-path="url(#clip66)" clip-rule="nonzero">
<path style="fill-rule:nonzero;fill:rgb(0%,0%,0%);fill-opacity:1;stroke-width:1.56;stroke-linecap:butt;stroke-linejoin:miter;stroke:rgb(22.352941%,30.196078%,32.941176%);stroke-opacity:1;stroke-miterlimit:4;" d="M 126.316464 22.001136 L 126.316464 5.462207 M 129.239005 22.001136 L 129.239005 5.462207 M 132.29439 22.001136 L 132.29439 5.462207 M 135.283353 22.001136 L 135.283353 5.462207 M 138.272316 22.001136 L 138.272316 5.462207 M 141.261279 22.001136 L 141.261279 5.462207 " transform="matrix(0.0588101,0,0,-0.0588101,1.344752,6.942327)"/>
</g>
</g>
<g clip-path="url(#clip67)" clip-rule="nonzero">
<g clip-path="url(#clip68)" clip-rule="nonzero">
<path style="fill-rule:nonzero;fill:rgb(0%,0%,0%);fill-opacity:1;stroke-width:1.56;stroke-linecap:butt;stroke-linejoin:miter;stroke:rgb(22.352941%,30.196078%,32.941176%);stroke-opacity:1;stroke-miterlimit:4;" d="M 126.316464 21.984098 L 126.316464 5.445169 M 129.239005 21.984098 L 129.239005 5.445169 M 132.29439 21.984098 L 132.29439 5.445169 M 135.283353 21.984098 L 135.283353 5.445169 M 138.272316 21.984098 L 138.272316 5.445169 M 141.261279 21.984098 L 141.261279 5.445169 " transform="matrix(0.0588101,0,0,-0.0588101,1.344752,5.597575)"/>
</g>
</g>
<g clip-path="url(#clip69)" clip-rule="nonzero">
<g clip-path="url(#clip70)" clip-rule="nonzero">
<path style=" stroke:none;fill-rule:nonzero;fill:rgb(9.019608%,70.980392%,92.156863%);fill-opacity:1;" d="M 13.03125 5.835938 C 13.121094 5.136719 12.597656 4.585938 12.269531 4.324219 C 11.894531 4.757812 11.839844 5.894531 12.425781 6.371094 C 12.097656 6.664062 11.40625 6.925781 10.699219 6.925781 L 2 6.925781 C 1.929688 7.667969 2 11.226562 2 11.226562 L 14.761719 11.226562 L 14.703125 5.847656 C 14.152344 5.53125 13.441406 5.632812 13.03125 5.835938 "/>
</g>
</g>
<g clip-path="url(#clip71)" clip-rule="nonzero">
<g clip-path="url(#clip72)" clip-rule="nonzero">
<path style=" stroke:none;fill-rule:nonzero;fill:rgb(0%,0%,0%);fill-opacity:0.168627;" d="M 2 7.875 L 2 11.226562 L 14.761719 11.226562 L 14.761719 7.875 "/>
</g>
</g>
<g clip-path="url(#clip73)" clip-rule="nonzero">
<g clip-path="url(#clip74)" clip-rule="nonzero">
<path style=" stroke:none;fill-rule:nonzero;fill:rgb(83.137255%,92.941176%,94.509804%);fill-opacity:1;" d="M 6.542969 10.925781 C 5.746094 10.546875 5.308594 10.035156 5.066406 9.472656 L 2.644531 9.578125 L 3.882812 11.226562 L 6.542969 10.925781 "/>
</g>
</g>
<g clip-path="url(#clip75)" clip-rule="nonzero">
<g clip-path="url(#clip76)" clip-rule="nonzero">
<path style=" stroke:none;fill-rule:nonzero;fill:rgb(0%,0%,0%);fill-opacity:0.0862745;" d="M 13.085938 5.8125 C 11.859375 7.394531 10.097656 8.777344 8.210938 9.5 C 6.523438 10.148438 5.054688 10.152344 4.042969 9.632812 C 3.933594 9.570312 3.824219 9.503906 3.71875 9.4375 C 2.976562 8.917969 2.554688 8.058594 2.589844 6.925781 L 2 6.925781 L 2 11.226562 L 14.761719 11.226562 L 14.761719 5.578125 L 13.292969 5.578125 Z M 13.085938 5.8125 "/>
</g>
</g>
<path style="fill:none;stroke-width:0.628;stroke-linecap:round;stroke-linejoin:miter;stroke:rgb(22.352941%,30.196078%,32.941176%);stroke-opacity:1;stroke-miterlimit:4;" d="M 11.496739 9.618234 C 14.10925 9.753153 16.905741 9.777683 19.334272 9.017234 " transform="matrix(0.31848,0,0,0.31848,-0.977882,6.460227)"/>
<path style=" stroke:none;fill-rule:nonzero;fill:rgb(83.137255%,92.941176%,94.509804%);fill-opacity:1;" d="M 6.007812 8.929688 C 6.007812 9.105469 5.863281 9.25 5.6875 9.25 C 5.507812 9.25 5.367188 9.105469 5.367188 8.929688 C 5.367188 8.75 5.507812 8.609375 5.6875 8.609375 C 5.863281 8.609375 6.007812 8.75 6.007812 8.929688 Z M 6.007812 8.929688 "/>
<path style=" stroke:none;fill-rule:nonzero;fill:rgb(22.352941%,30.196078%,32.941176%);fill-opacity:1;" d="M 5.773438 8.714844 C 5.746094 8.730469 5.726562 8.761719 5.726562 8.796875 C 5.726562 8.847656 5.769531 8.890625 5.820312 8.890625 C 5.855469 8.890625 5.882812 8.871094 5.902344 8.839844 C 5.914062 8.871094 5.921875 8.898438 5.921875 8.929688 C 5.921875 9.058594 5.816406 9.160156 5.691406 9.160156 C 5.5625 9.160156 5.460938 9.058594 5.460938 8.929688 C 5.460938 8.800781 5.5625 8.699219 5.691406 8.699219 C 5.71875 8.699219 5.746094 8.703125 5.773438 8.714844 Z M 0 7.941406 L 14.957031 7.941406 C 14.632812 7.859375 13.925781 7.75 14.042969 7.320312 C 13.449219 8.003906 12.023438 7.796875 11.664062 7.460938 C 11.261719 8.046875 8.925781 7.824219 8.761719 7.367188 C 8.257812 7.957031 6.699219 7.957031 6.195312 7.367188 C 6.03125 7.820312 3.695312 8.042969 3.296875 7.460938 C 2.933594 7.796875 1.507812 8.003906 0.914062 7.320312 C 1.03125 7.746094 0.324219 7.863281 0 7.941406 "/>
</g>
</svg>
