<?xml version="1.0" encoding="UTF-8"?>
<svg xmlns="http://www.w3.org/2000/svg" xmlns:xlink="http://www.w3.org/1999/xlink" width="15px" height="15px" viewBox="0 0 15 15" version="1.1">
<g id="surface1">
<path style=" stroke:none;fill-rule:nonzero;fill:rgb(2.352941%,42.745098%,64.705882%);fill-opacity:1;" d="M 2.25 0 L 12.75 0 C 13.992188 0 15 1.007812 15 2.25 L 15 12.75 C 15 13.992188 13.992188 15 12.75 15 L 2.25 15 C 1.007812 15 0 13.992188 0 12.75 L 0 2.25 C 0 1.007812 1.007812 0 2.25 0 Z M 2.25 0 "/>
<path style=" stroke:none;fill-rule:nonzero;fill:rgb(100%,100%,100%);fill-opacity:1;" d="M 8.671875 7.179688 L 9.902344 7.179688 L 9.902344 6.0625 L 8.671875 6.0625 Z M 7.207031 7.179688 L 8.4375 7.179688 L 8.4375 6.0625 L 7.207031 6.0625 Z M 5.773438 7.179688 L 7 7.179688 L 7 6.0625 L 5.773438 6.0625 Z M 4.335938 7.179688 L 5.539062 7.179688 L 5.539062 6.0625 L 4.335938 6.0625 Z M 2.871094 7.179688 L 4.101562 7.179688 L 4.101562 6.0625 L 2.871094 6.0625 Z M 4.335938 5.828125 L 5.539062 5.828125 L 5.539062 4.71875 L 4.335938 4.71875 Z M 5.773438 5.828125 L 7 5.828125 L 7 4.71875 L 5.773438 4.71875 Z M 7.207031 5.828125 L 8.4375 5.828125 L 8.4375 4.71875 L 7.207031 4.71875 Z M 7.207031 4.484375 L 8.4375 4.484375 L 8.4375 3.367188 L 7.207031 3.367188 Z M 13.828125 6.679688 C 13.828125 6.679688 13.300781 6.179688 12.21875 6.359375 C 12.101562 5.507812 11.191406 5.007812 11.191406 5.007812 C 11.191406 5.007812 10.34375 6.035156 10.957031 7.179688 C 10.78125 7.265625 10.488281 7.382812 10.046875 7.382812 L 1.992188 7.382812 C 1.84375 7.9375 1.84375 11.632812 5.890625 11.632812 C 8.789062 11.632812 10.957031 10.28125 11.984375 7.820312 C 13.507812 7.9375 13.828125 6.679688 13.828125 6.679688 Z M 13.828125 6.679688 "/>
</g>
</svg>
