<?xml version="1.0" encoding="UTF-8"?>
<svg xmlns="http://www.w3.org/2000/svg" xmlns:xlink="http://www.w3.org/1999/xlink" width="16px" height="16px" viewBox="0 0 16 16" version="1.1">
<defs>
<clipPath id="clip1">
  <path d="M 5 12 L 11 12 L 11 15 L 5 15 Z M 5 12 "/>
</clipPath>
<clipPath id="clip2">
  <path d="M 9.269531 13.375 C 9.300781 13.273438 9.304688 13.121094 8.996094 13.191406 C 8.996094 13.191406 8.160156 13.308594 8.121094 14.285156 L 8.101562 16.152344 L 7.898438 16.152344 L 7.878906 14.285156 C 7.839844 13.3125 7.003906 13.191406 7.003906 13.191406 C 6.695312 13.121094 6.699219 13.273438 6.730469 13.375 C 6.429688 12.863281 5.625 12.929688 5.625 12.929688 C 5.347656 13.027344 5.605469 13.207031 5.605469 13.207031 C 6.042969 13.367188 6.085938 13.84375 6.085938 13.84375 L 6.085938 15.195312 L 6.128906 16.238281 C 6.230469 16.703125 6.476562 16.976562 6.71875 17.136719 L 9.289062 17.136719 C 9.597656 16.925781 9.914062 16.527344 9.914062 15.773438 L 9.914062 13.84375 C 9.914062 13.84375 9.957031 13.367188 10.394531 13.207031 C 10.394531 13.207031 10.652344 13.027344 10.375 12.929688 C 10.375 12.929688 10.339844 12.925781 10.285156 12.925781 C 10.066406 12.925781 9.507812 12.96875 9.269531 13.375 M 6.84375 15.296875 L 6.84375 13.824219 C 6.84375 13.679688 6.816406 13.558594 6.773438 13.457031 C 7.0625 13.683594 7.082031 14.246094 7.082031 14.246094 L 7.082031 16.082031 C 6.792969 15.878906 6.84375 15.296875 6.84375 15.296875 M 8.917969 14.246094 C 8.917969 14.246094 8.9375 13.683594 9.226562 13.457031 C 9.183594 13.558594 9.160156 13.679688 9.160156 13.824219 L 9.160156 15.296875 C 9.160156 15.296875 9.207031 15.839844 8.917969 16.0625 Z M 8.917969 14.246094 "/>
</clipPath>
</defs>
<g id="surface1">
<path style=" stroke:none;fill-rule:nonzero;fill:rgb(62.745098%,86.27451%,94.901961%);fill-opacity:1;" d="M 12.554688 13.433594 C 12.554688 14.296875 10.542969 15 8.0625 15 C 5.582031 15 3.570312 14.296875 3.570312 13.433594 C 3.570312 12.566406 5.582031 11.867188 8.0625 11.867188 C 10.542969 11.867188 12.554688 12.566406 12.554688 13.433594 "/>
<g clip-path="url(#clip1)" clip-rule="nonzero">
<g clip-path="url(#clip2)" clip-rule="nonzero">
<path style=" stroke:none;fill-rule:nonzero;fill:rgb(50.980392%,74.117647%,90.588235%);fill-opacity:1;" d="M 12.554688 13.433594 C 12.554688 14.296875 10.542969 15 8.0625 15 C 5.582031 15 3.570312 14.296875 3.570312 13.433594 C 3.570312 12.566406 5.582031 11.867188 8.0625 11.867188 C 10.542969 11.867188 12.554688 12.566406 12.554688 13.433594 "/>
</g>
</g>
<path style=" stroke:none;fill-rule:nonzero;fill:rgb(62.745098%,86.27451%,94.901961%);fill-opacity:1;" d="M 2.933594 8.824219 L 2.804688 9.273438 C 2.804688 9.273438 2.769531 9.4375 2.921875 9.464844 C 3.082031 9.464844 3.070312 9.3125 3.058594 9.265625 Z M 2.933594 8.824219 "/>
<path style=" stroke:none;fill-rule:nonzero;fill:rgb(16.078431%,16.078431%,16.078431%);fill-opacity:1;" d="M 15.988281 6.9375 L 16 6.878906 C 14.683594 6.613281 13.332031 6.613281 12.511719 6.644531 C 12.644531 6.164062 12.6875 5.609375 12.6875 4.988281 C 12.6875 4.101562 12.351562 3.390625 11.808594 2.847656 C 11.902344 2.542969 12.03125 1.863281 11.683594 0.996094 C 11.683594 0.996094 11.066406 0.800781 9.675781 1.726562 C 9.132812 1.59375 8.550781 1.527344 7.972656 1.527344 C 7.332031 1.527344 6.6875 1.605469 6.085938 1.769531 C 4.652344 0.796875 4.015625 0.996094 4.015625 0.996094 C 3.605469 2.027344 3.859375 2.789062 3.9375 2.980469 C 3.449219 3.503906 3.152344 4.167969 3.152344 4.988281 C 3.152344 5.605469 3.226562 6.160156 3.398438 6.640625 C 2.570312 6.613281 1.269531 6.625 0 6.878906 L 0.0117188 6.9375 C 1.289062 6.679688 2.597656 6.671875 3.417969 6.703125 C 3.457031 6.800781 3.5 6.898438 3.546875 6.992188 C 2.734375 7.019531 1.351562 7.121094 0.0234375 7.496094 L 0.0390625 7.550781 C 1.378906 7.175781 2.773438 7.074219 3.578125 7.050781 C 4.0625 7.953125 5.015625 8.535156 6.714844 8.714844 C 6.472656 8.875 6.226562 9.152344 6.128906 9.617188 C 5.800781 9.773438 4.757812 10.15625 4.136719 9.085938 C 4.136719 9.085938 3.785156 8.449219 3.117188 8.398438 C 3.117188 8.398438 2.46875 8.390625 3.070312 8.800781 C 3.070312 8.800781 3.507812 9.003906 3.804688 9.769531 C 3.804688 9.769531 4.195312 11.078125 6.082031 10.660156 L 6.082031 12.007812 C 6.082031 12.007812 6.042969 12.488281 5.601562 12.644531 C 5.601562 12.644531 5.34375 12.824219 5.621094 12.925781 C 5.621094 12.925781 6.839844 13.023438 6.839844 12.03125 L 6.839844 10.558594 C 6.839844 10.558594 6.792969 9.972656 7.078125 9.769531 L 7.078125 12.191406 C 7.078125 12.191406 7.058594 12.765625 6.757812 12.988281 C 6.757812 12.988281 6.558594 13.34375 7 13.246094 C 7 13.246094 7.835938 13.125 7.878906 12.152344 L 7.894531 9.703125 L 8.097656 9.703125 L 8.117188 12.152344 C 8.15625 13.125 8.996094 13.246094 8.996094 13.246094 C 9.433594 13.34375 9.234375 12.988281 9.234375 12.988281 C 8.933594 12.765625 8.914062 12.191406 8.914062 12.191406 L 8.914062 9.792969 C 9.203125 10.015625 9.15625 10.558594 9.15625 10.558594 L 9.15625 12.03125 C 9.15625 13.027344 10.371094 12.925781 10.371094 12.925781 C 10.652344 12.828125 10.390625 12.648438 10.390625 12.648438 C 9.953125 12.488281 9.914062 12.011719 9.914062 12.011719 L 9.914062 10.082031 C 9.914062 9.328125 9.59375 8.929688 9.285156 8.71875 C 11.09375 8.539062 11.964844 7.957031 12.367188 7.050781 C 13.160156 7.070312 14.589844 7.167969 15.953125 7.554688 L 15.96875 7.496094 C 14.613281 7.113281 13.191406 7.015625 12.390625 6.992188 C 12.429688 6.898438 12.460938 6.804688 12.492188 6.707031 C 13.304688 6.671875 14.664062 6.671875 15.984375 6.9375 "/>
<path style=" stroke:none;fill-rule:nonzero;fill:rgb(96.078431%,80.392157%,70.980392%);fill-opacity:1;" d="M 10.914062 4.945312 C 11.304688 5.296875 11.535156 5.722656 11.535156 6.183594 C 11.535156 8.324219 9.933594 8.382812 7.957031 8.382812 C 5.984375 8.382812 4.382812 8.085938 4.382812 6.183594 C 4.382812 5.726562 4.605469 5.304688 4.992188 4.953125 C 5.636719 4.367188 6.722656 4.679688 7.957031 4.679688 C 9.1875 4.679688 10.269531 4.367188 10.914062 4.945312 "/>
<path style=" stroke:none;fill-rule:nonzero;fill:rgb(100%,100%,100%);fill-opacity:1;" d="M 6.769531 6.292969 C 6.769531 6.882812 6.433594 7.359375 6.023438 7.359375 C 5.613281 7.359375 5.28125 6.882812 5.28125 6.292969 C 5.28125 5.703125 5.613281 5.226562 6.023438 5.226562 C 6.433594 5.226562 6.769531 5.703125 6.769531 6.292969 "/>
<path style=" stroke:none;fill-rule:nonzero;fill:rgb(69.411765%,39.215686%,35.294118%);fill-opacity:1;" d="M 6.53125 6.304688 C 6.53125 6.699219 6.308594 7.019531 6.035156 7.019531 C 5.761719 7.019531 5.539062 6.699219 5.539062 6.304688 C 5.539062 5.914062 5.757812 5.59375 6.035156 5.59375 C 6.308594 5.59375 6.53125 5.914062 6.53125 6.304688 "/>
<path style=" stroke:none;fill-rule:nonzero;fill:rgb(100%,100%,100%);fill-opacity:1;" d="M 10.761719 6.292969 C 10.761719 6.882812 10.425781 7.359375 10.015625 7.359375 C 9.605469 7.359375 9.273438 6.882812 9.273438 6.292969 C 9.273438 5.703125 9.605469 5.226562 10.015625 5.226562 C 10.425781 5.226562 10.761719 5.703125 10.761719 6.292969 "/>
<path style=" stroke:none;fill-rule:nonzero;fill:rgb(69.411765%,39.215686%,35.294118%);fill-opacity:1;" d="M 10.523438 6.304688 C 10.523438 6.699219 10.296875 7.019531 10.027344 7.019531 C 9.753906 7.019531 9.53125 6.699219 9.53125 6.304688 C 9.53125 5.914062 9.753906 5.59375 10.027344 5.59375 C 10.296875 5.59375 10.523438 5.914062 10.523438 6.304688 M 8.152344 7.238281 C 8.152344 7.34375 8.070312 7.425781 7.96875 7.425781 C 7.867188 7.425781 7.78125 7.34375 7.78125 7.238281 C 7.78125 7.136719 7.867188 7.054688 7.96875 7.054688 C 8.070312 7.054688 8.152344 7.136719 8.152344 7.238281 M 7.535156 7.710938 C 7.523438 7.679688 7.539062 7.644531 7.570312 7.632812 C 7.601562 7.621094 7.636719 7.636719 7.648438 7.667969 C 7.695312 7.804688 7.824219 7.894531 7.964844 7.894531 C 8.109375 7.894531 8.238281 7.804688 8.285156 7.667969 C 8.296875 7.636719 8.332031 7.621094 8.363281 7.632812 C 8.394531 7.644531 8.410156 7.679688 8.398438 7.710938 C 8.332031 7.890625 8.160156 8.011719 7.964844 8.011719 C 7.773438 8.011719 7.601562 7.890625 7.535156 7.710938 "/>
<path style=" stroke:none;fill-rule:nonzero;fill:rgb(77.254902%,90.196078%,85.490196%);fill-opacity:1;" d="M 3.410156 8.558594 C 3.410156 8.609375 3.351562 8.648438 3.28125 8.648438 C 3.207031 8.648438 3.148438 8.609375 3.148438 8.558594 C 3.148438 8.507812 3.207031 8.46875 3.28125 8.46875 C 3.351562 8.46875 3.410156 8.507812 3.410156 8.558594 M 3.769531 8.757812 C 3.769531 8.808594 3.710938 8.847656 3.636719 8.847656 C 3.566406 8.847656 3.507812 8.808594 3.507812 8.757812 C 3.507812 8.707031 3.566406 8.667969 3.636719 8.667969 C 3.710938 8.667969 3.769531 8.707031 3.769531 8.757812 M 3.988281 9.015625 C 3.988281 9.066406 3.929688 9.105469 3.859375 9.105469 C 3.785156 9.105469 3.730469 9.066406 3.730469 9.015625 C 3.730469 8.964844 3.785156 8.925781 3.859375 8.925781 C 3.929688 8.925781 3.988281 8.964844 3.988281 9.015625 M 4.1875 9.3125 C 4.1875 9.363281 4.128906 9.402344 4.058594 9.402344 C 3.984375 9.402344 3.929688 9.363281 3.929688 9.3125 C 3.929688 9.265625 3.984375 9.222656 4.058594 9.222656 C 4.128906 9.222656 4.1875 9.265625 4.1875 9.3125 M 4.40625 9.59375 C 4.40625 9.644531 4.347656 9.683594 4.277344 9.683594 C 4.207031 9.683594 4.148438 9.644531 4.148438 9.59375 C 4.148438 9.542969 4.207031 9.503906 4.277344 9.503906 C 4.347656 9.503906 4.40625 9.542969 4.40625 9.59375 M 4.707031 9.832031 C 4.707031 9.882812 4.648438 9.921875 4.578125 9.921875 C 4.503906 9.921875 4.445312 9.882812 4.445312 9.832031 C 4.445312 9.78125 4.503906 9.742188 4.578125 9.742188 C 4.648438 9.742188 4.707031 9.78125 4.707031 9.832031 "/>
<path style=" stroke:none;fill-rule:nonzero;fill:rgb(77.254902%,90.196078%,85.490196%);fill-opacity:1;" d="M 5.125 9.992188 C 5.125 10.042969 5.066406 10.082031 4.996094 10.082031 C 4.925781 10.082031 4.867188 10.042969 4.867188 9.992188 C 4.867188 9.941406 4.925781 9.902344 4.996094 9.902344 C 5.066406 9.902344 5.125 9.941406 5.125 9.992188 "/>
<path style=" stroke:none;fill-rule:nonzero;fill:rgb(77.254902%,90.196078%,85.490196%);fill-opacity:1;" d="M 5.542969 9.992188 C 5.542969 10.042969 5.484375 10.082031 5.414062 10.082031 C 5.339844 10.082031 5.285156 10.042969 5.285156 9.992188 C 5.285156 9.941406 5.339844 9.902344 5.414062 9.902344 C 5.484375 9.902344 5.542969 9.941406 5.542969 9.992188 "/>
<path style=" stroke:none;fill-rule:nonzero;fill:rgb(77.254902%,90.196078%,85.490196%);fill-opacity:1;" d="M 5.964844 9.921875 C 5.964844 9.972656 5.910156 10.011719 5.835938 10.011719 C 5.765625 10.011719 5.707031 9.972656 5.707031 9.921875 C 5.707031 9.871094 5.765625 9.832031 5.835938 9.832031 C 5.910156 9.832031 5.964844 9.871094 5.964844 9.921875 "/>
</g>
</svg>
