<?xml version="1.0" encoding="UTF-8"?>
<svg xmlns="http://www.w3.org/2000/svg" xmlns:xlink="http://www.w3.org/1999/xlink" width="16px" height="16px" viewBox="0 0 16 16" version="1.1">
<g id="surface1">
<path style=" stroke:none;fill-rule:nonzero;fill:rgb(0%,67.45098%,84.313725%);fill-opacity:1;" d="M 1.199219 6.824219 C 1.175781 6.824219 1.148438 6.800781 1.175781 6.773438 L 1.351562 6.574219 C 1.375 6.550781 1.398438 6.523438 1.425781 6.523438 L 4.199219 6.523438 C 4.226562 6.523438 4.25 6.550781 4.226562 6.574219 L 4.101562 6.773438 C 4.074219 6.800781 4.050781 6.824219 4.023438 6.824219 Z M 0.0234375 7.550781 C 0 7.550781 0 7.523438 0 7.5 L 0.175781 7.300781 C 0.175781 7.273438 0.226562 7.25 0.25 7.25 L 3.800781 7.25 C 3.824219 7.25 3.851562 7.273438 3.851562 7.300781 L 3.800781 7.476562 C 3.800781 7.5 3.75 7.523438 3.726562 7.523438 Z M 1.925781 8.25 C 1.898438 8.25 1.875 8.226562 1.898438 8.199219 L 2 8.023438 C 2.023438 8 2.050781 7.976562 2.074219 7.976562 L 3.625 7.976562 C 3.648438 7.976562 3.675781 8 3.675781 8.023438 L 3.648438 8.199219 C 3.648438 8.226562 3.625 8.25 3.601562 8.25 Z M 10 6.675781 L 8.699219 7.023438 C 8.574219 7.050781 8.574219 7.074219 8.476562 6.949219 C 8.351562 6.824219 8.273438 6.726562 8.101562 6.648438 C 7.601562 6.398438 7.125 6.476562 6.699219 6.773438 C 6.175781 7.125 5.898438 7.625 5.898438 8.25 C 5.898438 8.875 6.324219 9.375 6.949219 9.476562 C 7.476562 9.550781 7.925781 9.351562 8.273438 8.949219 C 8.351562 8.875 8.398438 8.773438 8.476562 8.648438 L 6.976562 8.648438 C 6.800781 8.648438 6.773438 8.550781 6.824219 8.425781 C 6.925781 8.175781 7.125 7.773438 7.226562 7.574219 C 7.25 7.523438 7.300781 7.449219 7.425781 7.449219 L 10.25 7.449219 C 10.226562 7.648438 10.226562 7.875 10.199219 8.074219 C 10.125 8.625 9.898438 9.148438 9.550781 9.601562 C 9 10.351562 8.25 10.800781 7.324219 10.925781 C 6.550781 11.023438 5.851562 10.875 5.226562 10.398438 C 4.648438 9.976562 4.324219 9.375 4.226562 8.675781 C 4.125 7.824219 4.375 7.074219 4.875 6.398438 C 5.425781 5.675781 6.148438 5.226562 7.050781 5.050781 C 7.773438 4.925781 8.476562 5 9.125 5.425781 C 9.550781 5.699219 9.824219 6.074219 10.023438 6.523438 C 10.125 6.625 10.101562 6.648438 10 6.675781 Z M 10 6.675781 "/>
<path style=" stroke:none;fill-rule:nonzero;fill:rgb(0%,67.45098%,84.313725%);fill-opacity:1;" d="M 12.574219 11 C 11.875 10.976562 11.226562 10.773438 10.675781 10.324219 C 10.226562 9.925781 9.925781 9.425781 9.824219 8.824219 C 9.675781 7.949219 9.925781 7.175781 10.449219 6.476562 C 11.023438 5.726562 11.699219 5.351562 12.625 5.175781 C 13.425781 5.023438 14.175781 5.125 14.851562 5.574219 C 15.476562 6 15.851562 6.574219 15.949219 7.300781 C 16.074219 8.351562 15.773438 9.199219 15.050781 9.949219 C 14.523438 10.476562 13.898438 10.800781 13.175781 10.949219 C 13 10.949219 12.773438 10.976562 12.574219 11 Z M 14.425781 7.851562 C 14.425781 7.75 14.425781 7.675781 14.398438 7.601562 C 14.25 6.824219 13.550781 6.398438 12.800781 6.574219 C 12.074219 6.75 11.601562 7.199219 11.425781 7.925781 C 11.273438 8.523438 11.574219 9.148438 12.148438 9.398438 C 12.574219 9.574219 13 9.574219 13.425781 9.351562 C 14.050781 9 14.398438 8.5 14.425781 7.851562 Z M 14.425781 7.851562 "/>
</g>
</svg>
