<?xml version="1.0" encoding="UTF-8"?>
<svg xmlns="http://www.w3.org/2000/svg" xmlns:xlink="http://www.w3.org/1999/xlink" width="15px" height="15px" viewBox="0 0 15 15" version="1.1">
<g id="surface1">
<path style=" stroke:none;fill-rule:nonzero;fill:rgb(19.607843%,42.352941%,89.803922%);fill-opacity:1;" d="M 7.453125 0.222656 C 7.320312 0.230469 7.1875 0.265625 7.066406 0.324219 L 1.84375 2.816406 C 1.570312 2.945312 1.371094 3.195312 1.304688 3.488281 L 0.0234375 9.082031 C -0.0351562 9.34375 0.0117188 9.617188 0.164062 9.84375 C 0.183594 9.871094 0.203125 9.898438 0.222656 9.921875 L 3.832031 14.410156 C 4.023438 14.644531 4.308594 14.777344 4.609375 14.777344 L 10.398438 14.777344 C 10.703125 14.777344 10.988281 14.636719 11.179688 14.40625 L 14.789062 9.917969 C 14.976562 9.683594 15.046875 9.375 14.976562 9.082031 L 13.6875 3.484375 C 13.621094 3.1875 13.421875 2.941406 13.148438 2.8125 L 7.933594 0.324219 C 7.78125 0.25 7.617188 0.214844 7.449219 0.222656 Z M 7.453125 0.222656 "/>
<path style="fill-rule:nonzero;fill:rgb(100%,100%,100%);fill-opacity:1;stroke-width:0.055;stroke-linecap:butt;stroke-linejoin:miter;stroke:rgb(100%,100%,100%);stroke-opacity:1;stroke-miterlimit:4;" d="M 16 4.541667 C 15.616667 4.566667 15.325 4.9 15.35 5.283333 L 15.35 5.466667 C 15.366667 5.683333 15.4 5.891667 15.441667 6.1 C 15.5 6.5 15.525 6.908333 15.508333 7.316667 C 15.466667 7.45 15.391667 7.566667 15.283333 7.658333 L 15.275 7.941667 C 14.866667 7.975 14.466667 8.033333 14.066667 8.125 C 12.4 8.5 10.883333 9.366667 9.716667 10.608333 L 9.475 10.441667 C 9.341667 10.483333 9.2 10.466667 9.083333 10.4 C 8.758333 10.158333 8.458333 9.891667 8.183333 9.591667 C 8.05 9.425 7.9 9.275 7.75 9.125 L 7.6 9.008333 C 7.466667 8.9 7.3 8.841667 7.133333 8.833333 C 6.933333 8.825 6.733333 8.908333 6.6 9.066667 C 6.375 9.383333 6.45 9.825 6.766667 10.05 L 6.908333 10.158333 C 7.083333 10.283333 7.266667 10.391667 7.458333 10.483333 C 7.808333 10.683333 8.15 10.916667 8.458333 11.183333 C 8.533333 11.3 8.583333 11.433333 8.591667 11.566667 L 8.808333 11.766667 C 7.633333 13.533333 7.15 15.675 7.45 17.775 L 7.166667 17.858333 C 7.1 17.975 7 18.066667 6.883333 18.141667 C 6.491667 18.25 6.091667 18.316667 5.691667 18.341667 C 5.475 18.341667 5.258333 18.358333 5.05 18.391667 L 4.875 18.433333 L 4.85 18.433333 C 4.6 18.466667 4.391667 18.641667 4.308333 18.875 C 4.225 19.116667 4.291667 19.383333 4.466667 19.558333 C 4.641667 19.741667 4.908333 19.808333 5.15 19.725 L 5.158333 19.725 L 5.341667 19.708333 C 5.541667 19.65 5.741667 19.575 5.941667 19.491667 C 6.316667 19.341667 6.7 19.225 7.1 19.15 C 7.241667 19.158333 7.375 19.2 7.483333 19.283333 L 7.783333 19.233333 C 8.433333 21.25 9.8 22.958333 11.625 24.033333 L 11.5 24.291667 C 11.558333 24.408333 11.575 24.541667 11.558333 24.666667 C 11.4 25.05 11.191667 25.416667 10.958333 25.758333 C 10.833333 25.933333 10.708333 26.108333 10.6 26.291667 L 10.516667 26.475 C 10.391667 26.691667 10.4 26.958333 10.533333 27.175 C 10.675 27.383333 10.916667 27.5 11.166667 27.475 C 11.416667 27.441667 11.633333 27.275 11.716667 27.041667 L 11.8 26.875 C 11.875 26.675 11.941667 26.466667 11.991667 26.258333 C 12.175 25.825 12.266667 25.358333 12.508333 25.066667 C 12.591667 24.991667 12.691667 24.941667 12.791667 24.925 L 12.941667 24.65 C 14.925 25.416667 17.108333 25.416667 19.091667 24.666667 L 19.225 24.925 C 19.358333 24.941667 19.483333 25.016667 19.566667 25.125 C 19.75 25.483333 19.9 25.858333 20.016667 26.25 C 20.075 26.458333 20.141667 26.658333 20.216667 26.858333 L 20.3 27.025 C 20.383333 27.266667 20.6 27.433333 20.85 27.458333 C 21.1 27.483333 21.341667 27.366667 21.483333 27.158333 C 21.625 26.95 21.625 26.675 21.5 26.458333 L 21.416667 26.275 C 21.3 26.091667 21.183333 25.916667 21.058333 25.75 C 20.825 25.416667 20.625 25.058333 20.458333 24.691667 C 20.425 24.55 20.45 24.408333 20.525 24.291667 C 20.483333 24.2 20.441667 24.116667 20.408333 24.025 C 22.233333 22.933333 23.591667 21.225 24.233333 19.2 L 24.516667 19.25 C 24.625 19.158333 24.758333 19.108333 24.891667 19.116667 C 25.291667 19.191667 25.675 19.316667 26.05 19.45 C 26.25 19.541667 26.45 19.616667 26.65 19.683333 C 26.7 19.7 26.766667 19.708333 26.825 19.725 L 26.833333 19.725 C 27.075 19.8 27.341667 19.733333 27.516667 19.558333 C 27.7 19.375 27.758333 19.108333 27.675 18.866667 C 27.591667 18.633333 27.383333 18.458333 27.133333 18.425 L 26.941667 18.375 C 26.725 18.35 26.516667 18.333333 26.3 18.325 C 25.9 18.3 25.5 18.233333 25.108333 18.133333 C 24.983333 18.066667 24.883333 17.966667 24.816667 17.841667 L 24.55 17.766667 C 24.833333 15.666667 24.341667 13.533333 23.158333 11.766667 L 23.4 11.55 C 23.391667 11.416667 23.433333 11.275 23.525 11.175 C 23.825 10.908333 24.158333 10.675 24.508333 10.475 C 24.7 10.383333 24.883333 10.275 25.066667 10.158333 L 25.208333 10.033333 C 25.433333 9.9 25.55 9.65 25.525 9.391667 C 25.491667 9.133333 25.325 8.916667 25.075 8.833333 C 24.833333 8.75 24.566667 8.816667 24.383333 9 L 24.233333 9.116667 C 24.075 9.258333 23.933333 9.416667 23.8 9.575 C 23.533333 9.883333 23.241667 10.158333 22.925 10.4 C 22.791667 10.45 22.658333 10.466667 22.516667 10.45 L 22.266667 10.625 C 20.808333 9.1 18.841667 8.15 16.733333 7.958333 C 16.733333 7.858333 16.716667 7.708333 16.716667 7.658333 C 16.6 7.583333 16.525 7.458333 16.5 7.325 C 16.483333 6.925 16.508333 6.516667 16.575 6.116667 C 16.616667 5.908333 16.65 5.7 16.666667 5.483333 L 16.666667 5.283333 C 16.683333 4.9 16.4 4.575 16.008333 4.55 Z M 15.166667 9.708333 L 14.966667 13.2 L 14.95 13.2 C 14.941667 13.416667 14.816667 13.6 14.625 13.708333 C 14.425 13.808333 14.191667 13.775 14.025 13.65 L 11.158333 11.625 C 12.066667 10.725 13.208333 10.1 14.458333 9.825 C 14.691667 9.775 14.925 9.733333 15.166667 9.708333 Z M 16.833333 9.708333 C 18.341667 9.891667 19.741667 10.575 20.825 11.633333 L 17.991667 13.65 C 17.816667 13.791667 17.575 13.816667 17.366667 13.725 C 17.166667 13.625 17.033333 13.425 17.033333 13.2 Z M 10.116667 12.933333 L 12.733333 15.275 L 12.733333 15.291667 C 12.9 15.433333 12.966667 15.65 12.925 15.858333 C 12.875 16.075 12.708333 16.241667 12.508333 16.3 L 12.508333 16.308333 L 9.141667 17.275 C 8.975 15.758333 9.316667 14.233333 10.116667 12.933333 Z M 21.866667 12.933333 C 22.666667 14.233333 23.016667 15.75 22.875 17.258333 L 19.5 16.291667 L 19.5 16.275 C 19.291667 16.225 19.133333 16.058333 19.083333 15.841667 C 19.041667 15.633333 19.108333 15.416667 19.275 15.266667 L 21.875 12.941667 Z M 15.466667 15.458333 L 16.533333 15.458333 L 17.191667 16.283333 L 16.95 17.325 L 15.991667 17.791667 L 15.025 17.325 L 14.8 16.283333 Z M 18.9 18.291667 C 18.941667 18.291667 19 18.291667 19.033333 18.291667 L 22.5 18.875 C 22 20.316667 21.016667 21.55 19.725 22.375 L 18.383333 19.125 C 18.308333 18.95 18.325 18.75 18.425 18.583333 C 18.533333 18.425 18.7 18.316667 18.891667 18.308333 Z M 13.075 18.308333 C 13.275 18.308333 13.45 18.408333 13.558333 18.575 C 13.666667 18.741667 13.683333 18.95 13.608333 19.125 L 13.608333 19.141667 L 12.275 22.358333 C 11 21.541667 10.033333 20.325 9.516667 18.9 L 12.95 18.316667 C 12.991667 18.316667 13.033333 18.316667 13.066667 18.316667 Z M 15.983333 19.708333 C 16.2 19.7 16.408333 19.816667 16.516667 20.016667 L 16.533333 20.016667 L 18.225 23.075 L 17.55 23.275 C 16.3 23.558333 15 23.491667 13.791667 23.075 L 15.491667 20.025 C 15.591667 19.841667 15.783333 19.733333 15.991667 19.725 Z M 15.983333 19.708333 " transform="matrix(0.46875,0,0,0.46875,0,0)"/>
</g>
</svg>
