<?xml version="1.0" encoding="UTF-8"?>
<svg xmlns="http://www.w3.org/2000/svg" xmlns:xlink="http://www.w3.org/1999/xlink" width="16px" height="16px" viewBox="0 0 16 16" version="1.1">
<g id="surface1">
<path style=" stroke:none;fill-rule:nonzero;fill:rgb(54.901961%,78.431373%,29.411765%);fill-opacity:1;" d="M 7.328125 0.214844 C 7.726562 -0.0117188 8.238281 -0.015625 8.628906 0.214844 L 14.601562 3.578125 C 14.972656 3.789062 15.222656 4.207031 15.21875 4.636719 L 15.21875 11.386719 C 15.222656 11.835938 14.949219 12.261719 14.554688 12.46875 L 8.613281 15.816406 C 8.199219 16.046875 7.695312 16.03125 7.292969 15.78125 L 5.511719 14.75 C 5.390625 14.679688 5.253906 14.621094 5.167969 14.503906 C 5.242188 14.402344 5.378906 14.390625 5.488281 14.34375 C 5.738281 14.265625 5.964844 14.144531 6.191406 14.015625 C 6.25 13.976562 6.320312 13.992188 6.375 14.027344 L 7.894531 14.90625 C 8.003906 14.96875 8.113281 14.886719 8.207031 14.832031 L 14.039062 11.542969 C 14.109375 11.507812 14.152344 11.429688 14.144531 11.351562 L 14.144531 4.667969 C 14.152344 4.578125 14.101562 4.496094 14.019531 4.457031 L 8.09375 1.121094 C 8.023438 1.074219 7.933594 1.074219 7.863281 1.121094 L 1.945312 4.464844 C 1.867188 4.5 1.8125 4.582031 1.820312 4.671875 L 1.820312 11.359375 C 1.8125 11.4375 1.855469 11.511719 1.929688 11.546875 L 3.507812 12.4375 C 3.804688 12.597656 4.171875 12.6875 4.496094 12.570312 C 4.792969 12.460938 4.984375 12.179688 4.984375 11.867188 L 4.984375 5.21875 C 4.976562 5.121094 5.070312 5.039062 5.167969 5.050781 L 5.925781 5.050781 C 6.027344 5.046875 6.105469 5.152344 6.089844 5.253906 L 6.089844 11.941406 C 6.089844 12.535156 5.847656 13.179688 5.296875 13.472656 C 4.621094 13.820312 3.78125 13.746094 3.113281 13.410156 L 1.414062 12.472656 C 1.015625 12.273438 0.746094 11.839844 0.746094 11.390625 L 0.746094 4.640625 C 0.75 4.195312 0.996094 3.785156 1.390625 3.570312 Z M 9.050781 4.890625 C 9.914062 4.84375 10.839844 4.859375 11.613281 5.285156 C 12.214844 5.609375 12.550781 6.296875 12.5625 6.964844 C 12.542969 7.054688 12.449219 7.105469 12.363281 7.097656 C 12.113281 7.097656 11.863281 7.101562 11.613281 7.097656 C 11.503906 7.101562 11.445312 7.003906 11.429688 6.90625 C 11.359375 6.589844 11.183594 6.273438 10.882812 6.117188 C 10.421875 5.886719 9.886719 5.898438 9.382812 5.902344 C 9.011719 5.921875 8.617188 5.953125 8.304688 6.167969 C 8.066406 6.332031 7.992188 6.667969 8.078125 6.929688 C 8.160156 7.121094 8.382812 7.183594 8.5625 7.242188 C 9.601562 7.511719 10.703125 7.492188 11.726562 7.84375 C 12.148438 7.988281 12.5625 8.273438 12.707031 8.714844 C 12.898438 9.308594 12.8125 10.019531 12.390625 10.496094 C 12.050781 10.886719 11.550781 11.09375 11.054688 11.214844 C 10.394531 11.363281 9.707031 11.367188 9.035156 11.300781 C 8.40625 11.226562 7.746094 11.0625 7.261719 10.632812 C 6.84375 10.269531 6.640625 9.707031 6.660156 9.164062 C 6.664062 9.070312 6.757812 9.007812 6.84375 9.015625 L 7.59375 9.015625 C 7.695312 9.007812 7.769531 9.09375 7.773438 9.1875 C 7.820312 9.488281 7.9375 9.8125 8.203125 9.988281 C 8.714844 10.320312 9.359375 10.296875 9.945312 10.304688 C 10.433594 10.285156 10.976562 10.277344 11.375 9.957031 C 11.585938 9.773438 11.648438 9.464844 11.589844 9.203125 C 11.527344 8.980469 11.289062 8.875 11.089844 8.800781 C 10.0625 8.476562 8.949219 8.59375 7.929688 8.226562 C 7.515625 8.082031 7.117188 7.804688 6.960938 7.382812 C 6.738281 6.78125 6.839844 6.039062 7.304688 5.578125 C 7.757812 5.121094 8.414062 4.945312 9.039062 4.878906 Z M 9.050781 4.890625 "/>
</g>
</svg>
