<?xml version="1.0" encoding="UTF-8"?>
<svg xmlns="http://www.w3.org/2000/svg" xmlns:xlink="http://www.w3.org/1999/xlink" width="18px" height="18px" viewBox="0 0 18 18" version="1.1">
<defs>
<linearGradient id="linear0" gradientUnits="userSpaceOnUse" x1="811.527" y1="574.895" x2="665.255" y2="573.732" gradientTransform="matrix(0.0909563,0,0,0.0889251,-60.489923,-45.934802)">
<stop offset="0" style="stop-color:rgb(21.176471%,41.568627%,58.823529%);stop-opacity:1;"/>
<stop offset="1" style="stop-color:rgb(21.176471%,47.45098%,69.019608%);stop-opacity:1;"/>
</linearGradient>
<linearGradient id="linear1" gradientUnits="userSpaceOnUse" x1="862.824" y1="642.176" x2="573.276" y2="642.176" gradientTransform="matrix(0.0909563,0,0,0.0889251,-60.489923,-45.934802)">
<stop offset="0" style="stop-color:rgb(100%,78.431373%,21.176471%);stop-opacity:1;"/>
<stop offset="1" style="stop-color:rgb(100%,90.980392%,45.098039%);stop-opacity:1;"/>
</linearGradient>
</defs>
<g id="surface1">
<path style=" stroke:none;fill-rule:nonzero;fill:url(#linear0);" d="M 4.65625 2.484375 C 4.65625 1.273438 4.988281 0.613281 6.824219 0.300781 C 8.070312 0.0859375 9.667969 0.0585938 11.15625 0.300781 C 12.332031 0.488281 13.324219 1.347656 13.324219 2.484375 L 13.324219 6.480469 C 13.324219 7.652344 12.363281 8.613281 11.15625 8.613281 L 6.824219 8.613281 C 5.355469 8.613281 4.117188 9.839844 4.117188 11.222656 L 4.117188 13.140625 L 2.625 13.140625 C 1.367188 13.140625 0.632812 12.253906 0.324219 11.011719 C -0.0898438 9.339844 -0.0742188 8.347656 0.324219 6.746094 C 0.667969 5.351562 1.773438 4.617188 3.03125 4.617188 L 8.992188 4.617188 L 8.992188 4.082031 L 4.65625 4.082031 Z M 4.65625 2.484375 "/>
<path style=" stroke:none;fill-rule:nonzero;fill:url(#linear1);" d="M 13.324219 15.273438 C 13.324219 16.484375 12.25 17.097656 11.15625 17.40625 C 9.515625 17.867188 8.195312 17.796875 6.824219 17.40625 C 5.679688 17.078125 4.65625 16.410156 4.65625 15.273438 L 4.65625 11.277344 C 4.65625 10.128906 5.640625 9.144531 6.824219 9.144531 L 11.15625 9.144531 C 12.601562 9.144531 13.867188 7.925781 13.867188 6.480469 L 13.867188 4.617188 L 15.492188 4.617188 C 16.75 4.617188 17.347656 5.53125 17.65625 6.746094 C 18.089844 8.433594 18.109375 9.695312 17.65625 11.011719 C 17.21875 12.289062 16.75 13.140625 15.492188 13.140625 L 8.992188 13.140625 L 8.992188 13.675781 L 13.324219 13.675781 Z M 13.324219 15.273438 "/>
<path style=" stroke:none;fill-rule:nonzero;fill:rgb(100%,100%,100%);fill-opacity:1;" d="M 5.742188 2.21875 C 5.742188 1.777344 6.105469 1.417969 6.554688 1.417969 C 7 1.417969 7.367188 1.777344 7.367188 2.21875 C 7.367188 2.660156 7 3.015625 6.554688 3.015625 C 6.105469 3.015625 5.742188 2.660156 5.742188 2.21875 Z M 10.617188 15.539062 C 10.617188 15.097656 10.980469 14.742188 11.429688 14.742188 C 11.878906 14.742188 12.238281 15.097656 12.238281 15.539062 C 12.238281 15.980469 11.878906 16.339844 11.429688 16.339844 C 10.980469 16.339844 10.617188 15.980469 10.617188 15.539062 Z M 10.617188 15.539062 "/>
</g>
</svg>
