<?xml version="1.0" encoding="UTF-8"?>
<svg xmlns="http://www.w3.org/2000/svg" xmlns:xlink="http://www.w3.org/1999/xlink" width="16px" height="16px" viewBox="0 0 16 16" version="1.1">
<defs>
<linearGradient id="linear0" gradientUnits="userSpaceOnUse" x1="811.527" y1="574.895" x2="665.255" y2="573.732" gradientTransform="matrix(0.08085,0,0,0.0790445,-53.76882,-40.830935)">
<stop offset="0" style="stop-color:rgb(21.176471%,41.568627%,58.823529%);stop-opacity:1;"/>
<stop offset="1" style="stop-color:rgb(21.176471%,47.45098%,69.019608%);stop-opacity:1;"/>
</linearGradient>
<linearGradient id="linear1" gradientUnits="userSpaceOnUse" x1="862.824" y1="642.176" x2="573.276" y2="642.176" gradientTransform="matrix(0.08085,0,0,0.0790445,-53.76882,-40.830935)">
<stop offset="0" style="stop-color:rgb(100%,78.431373%,21.176471%);stop-opacity:1;"/>
<stop offset="1" style="stop-color:rgb(100%,90.980392%,45.098039%);stop-opacity:1;"/>
</linearGradient>
</defs>
<g id="surface1">
<path style=" stroke:none;fill-rule:nonzero;fill:url(#linear0);" d="M 4.140625 2.207031 C 4.140625 1.132812 4.4375 0.546875 6.066406 0.265625 C 7.171875 0.078125 8.59375 0.0546875 9.917969 0.265625 C 10.960938 0.433594 11.84375 1.195312 11.84375 2.207031 L 11.84375 5.761719 C 11.84375 6.800781 10.988281 7.65625 9.917969 7.65625 L 6.066406 7.65625 C 4.757812 7.65625 3.65625 8.746094 3.65625 9.976562 L 3.65625 11.679688 L 2.335938 11.679688 C 1.214844 11.679688 0.5625 10.890625 0.289062 9.789062 C -0.0820312 8.304688 -0.0664062 7.417969 0.289062 5.996094 C 0.59375 4.757812 1.574219 4.101562 2.695312 4.101562 L 7.992188 4.101562 L 7.992188 3.628906 L 4.140625 3.628906 Z M 4.140625 2.207031 "/>
<path style=" stroke:none;fill-rule:nonzero;fill:url(#linear1);" d="M 11.84375 13.578125 C 11.84375 14.652344 10.886719 15.199219 9.917969 15.472656 C 8.457031 15.882812 7.285156 15.820312 6.066406 15.472656 C 5.046875 15.179688 4.140625 14.589844 4.140625 13.578125 L 4.140625 10.023438 C 4.140625 9 5.011719 8.128906 6.066406 8.128906 L 9.917969 8.128906 C 11.199219 8.128906 12.324219 7.046875 12.324219 5.761719 L 12.324219 4.101562 L 13.769531 4.101562 C 14.890625 4.101562 15.417969 4.917969 15.695312 5.996094 C 16.082031 7.496094 16.097656 8.617188 15.695312 9.789062 C 15.304688 10.921875 14.890625 11.679688 13.769531 11.679688 L 7.992188 11.679688 L 7.992188 12.15625 L 11.84375 12.15625 Z M 11.84375 13.578125 "/>
<path style=" stroke:none;fill-rule:nonzero;fill:rgb(100%,100%,100%);fill-opacity:1;" d="M 5.101562 1.972656 C 5.101562 1.578125 5.425781 1.261719 5.824219 1.261719 C 6.222656 1.261719 6.546875 1.578125 6.546875 1.972656 C 6.546875 2.363281 6.222656 2.683594 5.824219 2.683594 C 5.425781 2.683594 5.101562 2.363281 5.101562 1.972656 Z M 9.4375 13.8125 C 9.4375 13.421875 9.761719 13.101562 10.15625 13.101562 C 10.558594 13.101562 10.878906 13.421875 10.878906 13.8125 C 10.878906 14.207031 10.558594 14.523438 10.15625 14.523438 C 9.761719 14.523438 9.4375 14.207031 9.4375 13.8125 Z M 9.4375 13.8125 "/>
</g>
</svg>
