<?xml version="1.0" encoding="UTF-8"?>
<svg xmlns="http://www.w3.org/2000/svg" xmlns:xlink="http://www.w3.org/1999/xlink" width="18px" height="18px" viewBox="0 0 18 18" version="1.1">
<g id="surface1">
<path style=" stroke:none;fill-rule:nonzero;fill:rgb(21.568627%,68.235294%,88.627451%);fill-opacity:1;" d="M 2.699219 0 L 15.300781 0 C 16.792969 0 18 1.207031 18 2.699219 L 18 15.300781 C 18 16.792969 16.792969 18 15.300781 18 L 2.699219 18 C 1.207031 18 0 16.792969 0 15.300781 L 0 2.699219 C 0 1.207031 1.207031 0 2.699219 0 Z M 2.699219 0 "/>
<path style=" stroke:none;fill-rule:nonzero;fill:rgb(78.431373%,85.490196%,91.764706%);fill-opacity:1;" d="M 6.996094 14.203125 C 6.609375 14.203125 6.644531 14.0625 6.539062 13.710938 L 5.414062 10.019531 L 14.027344 4.957031 "/>
<path style=" stroke:none;fill-rule:nonzero;fill:rgb(66.27451%,78.823529%,86.666667%);fill-opacity:1;" d="M 6.996094 14.203125 C 7.242188 14.203125 7.382812 14.0625 7.558594 13.921875 L 9.140625 12.410156 L 7.171875 11.214844 "/>
<path style=" stroke:none;fill-rule:nonzero;fill:rgb(96.470588%,98.431373%,99.607843%);fill-opacity:1;" d="M 7.171875 11.214844 L 11.917969 14.695312 C 12.410156 15.011719 12.832031 14.835938 12.972656 14.203125 L 14.90625 5.132812 C 15.082031 4.359375 14.589844 4.007812 14.0625 4.253906 L 2.777344 8.613281 C 2.039062 8.894531 2.039062 9.351562 2.636719 9.527344 L 5.554688 10.441406 L 12.234375 6.1875 C 12.550781 6.011719 12.832031 6.082031 12.621094 6.328125 "/>
</g>
</svg>
