<?xml version="1.0" encoding="UTF-8"?>
<svg xmlns="http://www.w3.org/2000/svg" xmlns:xlink="http://www.w3.org/1999/xlink" width="16px" height="16px" viewBox="0 0 16 16" version="1.1">
<g id="surface1">
<path style=" stroke:none;fill-rule:nonzero;fill:rgb(17.254902%,24.313725%,31.372549%);fill-opacity:1;" d="M 2 1.332031 C 1.261719 1.332031 0.667969 1.933594 0.667969 2.667969 L 0.667969 13.332031 C 0.667969 14.066406 1.261719 14.667969 2 14.667969 L 14 14.667969 C 14.738281 14.667969 15.332031 14.066406 15.332031 13.332031 L 15.332031 2.667969 C 15.332031 1.933594 14.738281 1.332031 14 1.332031 Z M 2 1.332031 "/>
<path style=" stroke:none;fill-rule:nonzero;fill:rgb(20.392157%,28.627451%,36.862745%);fill-opacity:1;" d="M 2 1.332031 C 1.261719 1.332031 0.667969 1.929688 0.667969 2.667969 L 0.667969 12.667969 C 0.667969 13.402344 1.261719 14 2 14 L 14 14 C 14.738281 14 15.332031 13.402344 15.332031 12.667969 L 15.332031 2.667969 C 15.332031 1.929688 14.738281 1.332031 14 1.332031 Z M 2 1.332031 "/>
<path style=" stroke:none;fill-rule:nonzero;fill:rgb(92.54902%,94.117647%,94.509804%);fill-opacity:1;" d="M 2.667969 3.417969 L 2.667969 4.167969 L 4.667969 5.332031 L 2.667969 6.5 L 2.667969 7.25 L 6 5.332031 Z M 6 6.667969 L 6 7.332031 L 9.332031 7.332031 L 9.332031 6.667969 Z M 6 6.667969 "/>
</g>
</svg>
